<?xml version="1.0" encoding="UTF-8" standalone="yes"?><svg xmlns="http://www.w3.org/2000/svg" xmlns:xlink="http://www.w3.org/1999/xlink" height="206px" style="width:223px;height:206px;" version="1.1" viewBox="0 0 223 206" width="223px"><defs><filter height="300%" id="f1" width="300%" x="-1" y="-1"><feGaussianBlur result="blurOut" stdDeviation="2.0"/><feColorMatrix in="blurOut" result="blurOut2" type="matrix" values="0 0 0 0 0 0 0 0 0 0 0 0 0 0 0 0 0 0 .4 0"/><feOffset dx="4.0" dy="4.0" in="blurOut2" result="blurOut3"/><feBlend in="SourceGraphic" in2="blurOut3" mode="normal"/></filter></defs><g><polygon fill="#DDDDDD" filter="url(#f1)" points="45,24,139,24,146,48.6689,165,48.6689,165,109,45,109,45,24" style="stroke: #000000; stroke-width: 2.0;"/><line style="stroke: #000000; stroke-width: 2.0;" x1="45" x2="146" y1="48.6689" y2="48.6689"/><text fill="#000000" font-family="Monaco" font-size="14" font-weight="bold" lengthAdjust="spacingAndGlyphs" textLength="88" x="48" y="42.1689">android.app</text><rect fill="#FEFECE" filter="url(#f1)" height="32" style="stroke: #A80036; stroke-width: 1.5;" width="88" x="61" y="61"/><ellipse cx="76" cy="77" fill="#008000" rx="11" ry="11" style="stroke: #A80036; stroke-width: 1.0;"/><path d="M76.1133,72.3481 L74.9595,77.4199 L77.2754,77.4199 Z M74.6191,70.1069 L77.6157,70.1069 L80.9609,82.5 L78.5122,82.5 L77.7485,79.437 L74.4697,79.437 L73.7227,82.5 L71.2739,82.5 Z "/><text fill="#000000" font-family="Monaco" font-size="12" lengthAdjust="spacingAndGlyphs" textLength="56" x="90" y="82.001">Activity</text><rect fill="#FEFECE" filter="url(#f1)" height="32" style="stroke: #A80036; stroke-width: 1.5;" width="102" x="54" y="153"/><ellipse cx="69" cy="169" fill="#ADD1B2" rx="11" ry="11" style="stroke: #A80036; stroke-width: 1.0;"/><path d="M71.9731,174.6431 Q71.3921,174.9419 70.7529,175.0913 Q70.1138,175.2407 69.4082,175.2407 Q66.9014,175.2407 65.5815,173.5889 Q64.2617,171.937 64.2617,168.8159 Q64.2617,165.6865 65.5815,164.0347 Q66.9014,162.3828 69.4082,162.3828 Q70.1138,162.3828 70.7612,162.5322 Q71.4087,162.6816 71.9731,162.9805 L71.9731,165.7031 Q71.3423,165.1221 70.7488,164.8523 Q70.1553,164.5825 69.5244,164.5825 Q68.1797,164.5825 67.4949,165.6492 Q66.8101,166.7158 66.8101,168.8159 Q66.8101,170.9077 67.4949,171.9744 Q68.1797,173.041 69.5244,173.041 Q70.1553,173.041 70.7488,172.7712 Q71.3423,172.5015 71.9731,171.9204 Z "/><text fill="#000000" font-family="Monaco" font-size="12" lengthAdjust="spacingAndGlyphs" textLength="70" x="83" y="174.001">MyActivity</text><path d="M105,113.6147 C105,127.3102 105,142.2196 105,152.9582 " fill="none" style="stroke: #A80036; stroke-width: 1.0;"/><polygon fill="none" points="98.0001,113.2673,105,93.2673,112.0001,113.2672,98.0001,113.2673" style="stroke: #A80036; stroke-width: 1.0;"/><text fill="#888888" font-family="Monaco" font-size="10" lengthAdjust="spacingAndGlyphs" textLength="222" x="0" y="205.835">CC BY-SA 3.0 - http://jmb.c.la - 2015</text></g></svg>