<?xml version="1.0" encoding="UTF-8" standalone="yes"?><svg xmlns="http://www.w3.org/2000/svg" xmlns:xlink="http://www.w3.org/1999/xlink" height="519px" style="width:528px;height:519px;" version="1.1" viewBox="0 0 528 519" width="528px"><defs><filter height="300%" id="f1" width="300%" x="-1" y="-1"><feGaussianBlur result="blurOut" stdDeviation="2.0"/><feColorMatrix in="blurOut" result="blurOut2" type="matrix" values="0 0 0 0 0 0 0 0 0 0 0 0 0 0 0 0 0 0 .4 0"/><feOffset dx="4.0" dy="4.0" in="blurOut2" result="blurOut3"/><feBlend in="SourceGraphic" in2="blurOut3" mode="normal"/></filter></defs><g><rect fill="#FEFECE" filter="url(#f1)" height="126" rx="12.5" ry="12.5" style="stroke: #808080; stroke-width: 1.5;" width="360" x="30" y="348"/><rect fill="#FFFFFF" height="91.3311" rx="12.5" ry="12.5" style="stroke: #FFFFFF; stroke-width: 1.0;" width="354" x="33" y="379.6689"/><line style="stroke: #808080; stroke-width: 1.5;" x1="30" x2="390" y1="376.6689" y2="376.6689"/><text fill="#000000" font-family="Monaco" font-size="14" lengthAdjust="spacingAndGlyphs" textLength="56" x="182" y="367.1689">Visible</text><rect fill="#FEFECE" filter="url(#f1)" height="57.3379" rx="12.5" ry="12.5" style="stroke: #006400; stroke-width: 1.5;" width="92" x="255" y="393"/><line style="stroke: #006400; stroke-width: 1.5;" x1="255" x2="347" y1="440.3379" y2="440.3379"/><text fill="#000000" font-family="Monaco" font-size="14" lengthAdjust="spacingAndGlyphs" textLength="64" x="265" y="413.1689">Activity</text><text fill="#000000" font-family="Monaco" font-size="14" lengthAdjust="spacingAndGlyphs" textLength="56" x="273" y="431.8379">running</text><rect fill="#FEFECE" filter="url(#f1)" height="50" rx="12.5" ry="12.5" style="stroke: #808080; stroke-width: 1.5;" width="84" x="54" y="396.5"/><line style="stroke: #808080; stroke-width: 1.5;" x1="54" x2="138" y1="425.1689" y2="425.1689"/><text fill="#000000" font-family="Monaco" font-size="14" lengthAdjust="spacingAndGlyphs" textLength="64" x="64" y="416.6689">No Focus</text><rect fill="#FEFECE" filter="url(#f1)" height="57.3379" rx="12.5" ry="12.5" style="stroke: #808080; stroke-width: 1.5;" width="92" x="250" y="89"/><line style="stroke: #808080; stroke-width: 1.5;" x1="250" x2="342" y1="136.3379" y2="136.3379"/><text fill="#000000" font-family="Monaco" font-size="14" lengthAdjust="spacingAndGlyphs" textLength="64" x="260" y="109.1689">Activity</text><text fill="#000000" font-family="Monaco" font-size="14" lengthAdjust="spacingAndGlyphs" textLength="64" x="264" y="127.8379">launched</text><rect fill="#FEFECE" filter="url(#f1)" height="57.3379" rx="12.5" ry="12.5" style="stroke: #808080; stroke-width: 1.5;" width="92" x="417" y="393"/><line style="stroke: #808080; stroke-width: 1.5;" x1="417" x2="509" y1="440.3379" y2="440.3379"/><text fill="#000000" font-family="Monaco" font-size="14" lengthAdjust="spacingAndGlyphs" textLength="64" x="427" y="413.1689">Activity</text><text fill="#000000" font-family="Monaco" font-size="14" lengthAdjust="spacingAndGlyphs" textLength="72" x="427" y="431.8379">destroyed</text><rect fill="#FEFECE" filter="url(#f1)" height="50" rx="12.5" ry="12.5" style="stroke: #808080; stroke-width: 1.5;" width="92" x="250" y="225"/><line style="stroke: #808080; stroke-width: 1.5;" x1="250" x2="342" y1="253.6689" y2="253.6689"/><text fill="#000000" font-family="Monaco" font-size="14" lengthAdjust="spacingAndGlyphs" textLength="72" x="260" y="245.1689">Invisible</text><ellipse cx="296" cy="18" fill="#000000" filter="url(#f1)" rx="10" ry="10" style="stroke: none; stroke-width: 1.0;"/><path d="M296,28.349 C296,40.983 296,64.164 296,83.584 " fill="none" style="stroke: #000000; stroke-width: 1.0;"/><polygon fill="#000000" points="296,88.949,300,79.949,296,83.949,292,79.949,296,88.949" style="stroke: #000000; stroke-width: 1.0;"/><path d="M296,146.176 C296,167.787 296,197.739 296,219.744 " fill="none" style="stroke: #000000; stroke-width: 1.0;"/><polygon fill="#000000" points="296,224.874,300,215.874,296,219.874,292,215.874,296,224.874" style="stroke: #000000; stroke-width: 1.0;"/><text fill="#000000" font-family="Monaco" font-size="13" lengthAdjust="spacingAndGlyphs" textLength="80" x="297" y="191.0854">onCreate()</text><path d="M249.588,257.833 C198.849,266.328 122.3,282.503 104,305 C84.4984,328.974 85.536,365.812 89.4759,391.415 " fill="none" style="stroke: #000000; stroke-width: 1.0;"/><polygon fill="#000000" points="90.2974,396.379,92.7728,386.8463,89.4803,391.4462,84.8803,388.1537,90.2974,396.379" style="stroke: #000000; stroke-width: 1.0;"/><text fill="#000000" font-family="Monaco" font-size="13" lengthAdjust="spacingAndGlyphs" textLength="88" x="105" y="320.0854">onRestart()</text><path d="M267.345,275.285 C230.662,306.374 167.252,360.114 128.713,392.776 " fill="none" style="stroke: #000000; stroke-width: 1.0;"/><polygon fill="#000000" points="124.602,396.26,134.054,393.4923,128.4163,393.0272,128.8814,387.3895,124.602,396.26" style="stroke: #000000; stroke-width: 1.0;"/><text fill="#000000" font-family="Monaco" font-size="13" lengthAdjust="spacingAndGlyphs" textLength="72" x="233" y="320.0854">onStart()</text><path d="M370.638,348.395 C368.512,342.672 365.99,337.129 363,332 C360.305,327.377 357.678,327.887 354,324 C340.792,310.041 327.361,293.33 316.754,279.421 " fill="none" style="stroke: #000000; stroke-width: 1.0;"/><polygon fill="#000000" points="313.556,275.2,315.801,284.7896,316.5747,279.1859,322.1784,279.9596,313.556,275.2" style="stroke: #000000; stroke-width: 1.0;"/><text fill="#000000" font-family="Monaco" font-size="13" lengthAdjust="spacingAndGlyphs" textLength="64" x="355" y="320.0854">onStop()</text><path d="M342.059,260.406 C369.23,268.151 402.413,281.764 424,305 C445.202,327.823 454.916,362.582 459.343,388.008 " fill="none" style="stroke: #000000; stroke-width: 1.0;"/><polygon fill="#000000" points="460.16,392.962,462.6408,383.4307,459.3457,388.0288,454.7476,384.7337,460.16,392.962" style="stroke: #000000; stroke-width: 1.0;"/><text fill="#000000" font-family="Monaco" font-size="13" lengthAdjust="spacingAndGlyphs" textLength="88" x="439" y="320.0854">onDestroy()</text><path d="M138.476,421.5 C170.648,421.5 215.001,421.5 249.246,421.5 " fill="none" style="stroke: #000000; stroke-width: 1.0;"/><polygon fill="#000000" points="254.652,421.5,245.652,417.5,249.652,421.5,245.652,425.5,254.652,421.5" style="stroke: #000000; stroke-width: 1.0;"/><text fill="#000000" font-family="Monaco" font-size="13" lengthAdjust="spacingAndGlyphs" textLength="80" x="156.5" y="414.5854">onResume()</text><path d="M254.995,438.6112 C247.886,440.6359 240.56,442.3785 233.5,443.5 C201.018,448.6597 191.933,448.9591 159.5,443.5 C154.127,442.5956 148.6,441.2889 143.156,439.7569 " fill="none" style="stroke: #000000; stroke-width: 1.0;"/><polygon fill="#000000" points="138.186,438.2917,145.6888,444.6719,142.9822,439.7046,147.9495,436.998,138.186,438.2917" style="stroke: #000000; stroke-width: 1.0;"/><text fill="#000000" font-family="Monaco" font-size="13" lengthAdjust="spacingAndGlyphs" textLength="72" x="160.5" y="439.5854">onPause()</text><text fill="#888888" font-family="Monaco" font-size="10" lengthAdjust="spacingAndGlyphs" textLength="222" x="162" y="518.835">CC BY-SA 3.0 - http://jmb.c.la - 2015</text></g></svg>