<?xml version="1.0" encoding="UTF-8" standalone="no"?><svg xmlns="http://www.w3.org/2000/svg" xmlns:xlink="http://www.w3.org/1999/xlink" contentScriptType="application/ecmascript" contentStyleType="text/css" height="465px" preserveAspectRatio="none" style="width:560px;height:465px;" version="1.1" viewBox="0 0 560 465" width="560px" zoomAndPan="magnify"><defs><filter height="300%" id="f82w6y8coueig" width="300%" x="-1" y="-1"><feGaussianBlur result="blurOut" stdDeviation="2.0"/><feColorMatrix in="blurOut" result="blurOut2" type="matrix" values="0 0 0 0 0 0 0 0 0 0 0 0 0 0 0 0 0 0 .4 0"/><feOffset dx="4.0" dy="4.0" in="blurOut2" result="blurOut3"/><feBlend in="SourceGraphic" in2="blurOut3" mode="normal"/></filter></defs><g><!--cluster visible--><rect fill="#FEFECE" filter="url(#f82w6y8coueig)" height="355.5" rx="12.5" ry="12.5" style="stroke: #808080; stroke-width: 1.5;" width="277" x="14" y="67.5"/><rect fill="#FFFFFF" height="320.8311" rx="12.5" ry="12.5" style="stroke: #FFFFFF; stroke-width: 1.0;" width="271" x="17" y="99.1689"/><line style="stroke: #808080; stroke-width: 1.5;" x1="14" x2="291" y1="96.1689" y2="96.1689"/><text fill="#000000" font-family="Monaco" font-size="14" lengthAdjust="spacingAndGlyphs" textLength="56" x="124.5" y="86.6689">Visible</text><rect fill="#FEFECE" filter="url(#f82w6y8coueig)" height="57.3379" rx="12.5" ry="12.5" style="stroke: #006400; stroke-width: 1.5;" width="92" x="89" y="96.5"/><line style="stroke: #006400; stroke-width: 1.5;" x1="89" x2="181" y1="143.8379" y2="143.8379"/><text fill="#000000" font-family="Monaco" font-size="14" lengthAdjust="spacingAndGlyphs" textLength="64" x="99" y="116.6689">Activity</text><text fill="#000000" font-family="Monaco" font-size="14" lengthAdjust="spacingAndGlyphs" textLength="56" x="107" y="135.3379">running</text><rect fill="#FEFECE" filter="url(#f82w6y8coueig)" height="50" rx="12.5" ry="12.5" style="stroke: #808080; stroke-width: 1.5;" width="84" x="179" y="365"/><line style="stroke: #808080; stroke-width: 1.5;" x1="179" x2="263" y1="393.6689" y2="393.6689"/><text fill="#000000" font-family="Monaco" font-size="14" lengthAdjust="spacingAndGlyphs" textLength="64" x="189" y="385.1689">No Focus</text><rect fill="#FEFECE" filter="url(#f82w6y8coueig)" height="57.3379" rx="12.5" ry="12.5" style="stroke: #808080; stroke-width: 1.5;" width="92" x="334" y="96.5"/><line style="stroke: #808080; stroke-width: 1.5;" x1="334" x2="426" y1="143.8379" y2="143.8379"/><text fill="#000000" font-family="Monaco" font-size="14" lengthAdjust="spacingAndGlyphs" textLength="64" x="344" y="116.6689">Activity</text><text fill="#000000" font-family="Monaco" font-size="14" lengthAdjust="spacingAndGlyphs" textLength="64" x="348" y="135.3379">launched</text><rect fill="#FEFECE" filter="url(#f82w6y8coueig)" height="57.3379" rx="12.5" ry="12.5" style="stroke: #808080; stroke-width: 1.5;" width="92" x="440" y="361.5"/><line style="stroke: #808080; stroke-width: 1.5;" x1="440" x2="532" y1="408.8379" y2="408.8379"/><text fill="#000000" font-family="Monaco" font-size="14" lengthAdjust="spacingAndGlyphs" textLength="64" x="450" y="381.6689">Activity</text><text fill="#000000" font-family="Monaco" font-size="14" lengthAdjust="spacingAndGlyphs" textLength="72" x="450" y="400.3379">destroyed</text><rect fill="#FEFECE" filter="url(#f82w6y8coueig)" height="50" rx="12.5" ry="12.5" style="stroke: #808080; stroke-width: 1.5;" width="92" x="326" y="232.5"/><line style="stroke: #808080; stroke-width: 1.5;" x1="326" x2="418" y1="261.1689" y2="261.1689"/><text fill="#000000" font-family="Monaco" font-size="14" lengthAdjust="spacingAndGlyphs" textLength="72" x="336" y="252.6689">Invisible</text><ellipse cx="380" cy="18.5" fill="#000000" filter="url(#f82w6y8coueig)" rx="10" ry="10" style="stroke: none; stroke-width: 1.0;"/><!--link *start to launched--><path d="M380,28.7117 C380,42.9785 380,69.5561 380,91.1798 " fill="none" id="*start-launched" style="stroke: #000000; stroke-width: 1.0;"/><polygon fill="#000000" points="380,96.276,384,87.276,380,91.276,376,87.276,380,96.276" style="stroke: #000000; stroke-width: 1.0;"/><!--link launched to zombi--><path d="M378.2641,153.7505 C376.9538,175.4531 375.1601,205.1611 373.8278,227.2266 " fill="none" id="launched-zombi" style="stroke: #000000; stroke-width: 1.0;"/><polygon fill="#000000" points="373.5168,232.3781,378.0521,223.6356,373.8182,227.3872,370.0667,223.1533,373.5168,232.3781" style="stroke: #000000; stroke-width: 1.0;"/><text fill="#000000" font-family="Monaco" font-size="13" lengthAdjust="spacingAndGlyphs" textLength="80" x="377" y="198.5854">onCreate()</text><!--link zombi to nofocus--><path d="M325.952,274.1708 C289.9791,287.5819 245.0812,305.3304 239,312.5 C228.0024,325.4659 223.419,343.8796 221.6243,359.5051 " fill="none" id="zombi-nofocus" style="stroke: #000000; stroke-width: 1.0;"/><polygon fill="#000000" points="221.1174,364.6853,225.9752,356.1178,221.6045,359.7091,218.0133,355.3384,221.1174,364.6853" style="stroke: #000000; stroke-width: 1.0;"/><text fill="#000000" font-family="Monaco" font-size="13" lengthAdjust="spacingAndGlyphs" textLength="88" x="240" y="327.5854">onRestart()</text><!--link zombi to nofocus--><path d="M363.2627,282.5424 C356.8248,298.134 346.7855,317.7653 333,331.5 C314.7193,349.7133 289.5907,363.5404 267.7672,373.1665 " fill="none" id="zombi-nofocus" style="stroke: #000000; stroke-width: 1.0;"/><polygon fill="#000000" points="263.1641,375.157,273.0125,375.2562,267.7534,373.1724,269.8371,367.9134,263.1641,375.157" style="stroke: #000000; stroke-width: 1.0;"/><text fill="#000000" font-family="Monaco" font-size="13" lengthAdjust="spacingAndGlyphs" textLength="72" x="348" y="327.5854">onStart()</text><!--link visible to zombi--><path d="M291.1613,185.5494 C292.1058,187.5412 293.0979,189.5101 294.1396,191.443 C296.2229,195.3086 298.5044,199.0298 301,202.5 C308.1691,212.4687 317.6461,221.5088 327.3328,229.2484 " fill="none" id="visible-zombi" style="stroke: #000000; stroke-width: 1.0;"/><polygon fill="#000000" points="331.4909,232.4846,326.8452,223.8003,327.5451,229.4137,321.9317,230.1135,331.4909,232.4846" style="stroke: #000000; stroke-width: 1.0;"/><text fill="#000000" font-family="Monaco" font-size="13" lengthAdjust="spacingAndGlyphs" textLength="64" x="302" y="198.5854">onStop()</text><!--link zombi to destroyed--><path d="M413.4801,282.6112 C425.2902,291.0896 437.5102,301.282 447,312.5 C457.9251,325.4146 466.7702,341.913 473.2578,356.3655 " fill="none" id="zombi-destroyed" style="stroke: #000000; stroke-width: 1.0;"/><polygon fill="#000000" points="475.3672,361.1801,475.4194,351.3314,473.3608,356.6003,468.0918,354.5417,475.3672,361.1801" style="stroke: #000000; stroke-width: 1.0;"/><text fill="#000000" font-family="Monaco" font-size="13" lengthAdjust="spacingAndGlyphs" textLength="88" x="460" y="327.5854">onDestroy()</text><!--link nofocus to running--><path d="M212.7703,364.6409 C197.1887,316.628 163.3808,212.4524 145.9225,158.6566 " fill="none" id="nofocus-running" style="stroke: #000000; stroke-width: 1.0;"/><polygon fill="#000000" points="144.2852,153.6114,143.259,163.4066,145.8287,158.3672,150.8682,160.937,144.2852,153.6114" style="stroke: #000000; stroke-width: 1.0;"/><text fill="#000000" font-family="Monaco" font-size="13" lengthAdjust="spacingAndGlyphs" textLength="80" x="186" y="263.0854">onResume()</text><!--link running to nofocus--><path d="M112.9822,153.5121 C90.9367,185.7864 63.067,239.4665 84,282.5 C102.6551,320.8507 142.3485,349.5771 174.2307,367.6413 " fill="none" id="running-nofocus" style="stroke: #000000; stroke-width: 1.0;"/><polygon fill="#000000" points="178.8745,370.229,172.9598,362.354,174.5068,367.7952,169.0656,369.3422,178.8745,370.229" style="stroke: #000000; stroke-width: 1.0;"/><text fill="#000000" font-family="Monaco" font-size="13" lengthAdjust="spacingAndGlyphs" textLength="72" x="85" y="263.0854">onPause()</text><text fill="#888888" font-family="Monaco" font-size="10" lengthAdjust="spacingAndGlyphs" textLength="222" x="172.5" y="451.835">CC BY-SA 3.0 - http://jmb.c.la - 2015</text><!--
@startuml
skinparam defaultFontName Monaco
skinparam state {
	ArrowColor Black
 	BorderColor Gray
	BorderColor<<Running>> DarkGreen
}
center footer CC BY-SA 3.0 - http://jmb.c.la - 2015
State "Activity \nlaunched" as launched
State "Activity \ndestroyed" as destroyed
State "Invisible"  as zombi <<NotVisible>>
State "Visible" as visible {
	State "Activity \nrunning" as running <<Running>>
	State "No Focus" as nofocus
}
[*] - -> launched
launched - -> zombi : onCreate()
zombi - -> nofocus : onRestart()
zombi - -> nofocus : onStart()
visible - -> zombi : onStop()
zombi - -> destroyed : onDestroy()
nofocus - -> running : onResume()
running -> nofocus : onPause()
@enduml

PlantUML version 1.2018.10(Sat Aug 25 19:02:59 CEST 2018)
(APACHE source distribution)
Java Runtime: Java(TM) SE Runtime Environment
JVM: Java HotSpot(TM) 64-Bit Server VM
Java Version: 1.8.0_152-b16
Operating System: Mac OS X
OS Version: 10.14.1
Default Encoding: UTF-8
Language: fr
Country: FR
--></g></svg>