<?xml version="1.0" encoding="UTF-8" standalone="no"?><svg xmlns="http://www.w3.org/2000/svg" xmlns:xlink="http://www.w3.org/1999/xlink" contentScriptType="application/ecmascript" contentStyleType="text/css" height="557px" preserveAspectRatio="none" style="width:635px;height:557px;" version="1.1" viewBox="0 0 635 557" width="635px" zoomAndPan="magnify"><defs><filter height="300%" id="f82w6y8coueig" width="300%" x="-1" y="-1"><feGaussianBlur result="blurOut" stdDeviation="2.0"/><feColorMatrix in="blurOut" result="blurOut2" type="matrix" values="0 0 0 0 0 0 0 0 0 0 0 0 0 0 0 0 0 0 .4 0"/><feOffset dx="4.0" dy="4.0" in="blurOut2" result="blurOut3"/><feBlend in="SourceGraphic" in2="blurOut3" mode="normal"/></filter></defs><g><!--MD5=[46796379d06a810e9dd5640ab54698c1]
cluster visible--><rect fill="#FEFECE" filter="url(#f82w6y8coueig)" height="279.5" rx="12.5" ry="12.5" style="stroke: #808080; stroke-width: 1.5;" width="287" x="30" y="219.5"/><rect fill="#FFFFFF" height="244.8311" rx="12.5" ry="12.5" style="stroke: #FFFFFF; stroke-width: 1.0;" width="281" x="33" y="251.1689"/><line style="stroke: #808080; stroke-width: 1.5;" x1="30" x2="317" y1="248.1689" y2="248.1689"/><text fill="#000000" font-family="Monaco" font-size="14" lengthAdjust="spacingAndGlyphs" textLength="56" x="145.5" y="238.6689">Visible</text><rect fill="#FEFECE" filter="url(#f82w6y8coueig)" height="57.3379" rx="12.5" ry="12.5" style="stroke: #006400; stroke-width: 1.5;" width="92" x="119" y="285.5"/><line style="stroke: #006400; stroke-width: 1.5;" x1="119" x2="211" y1="332.8379" y2="332.8379"/><text fill="#000000" font-family="Monaco" font-size="14" lengthAdjust="spacingAndGlyphs" textLength="64" x="129" y="305.6689">Activity</text><text fill="#000000" font-family="Monaco" font-size="14" lengthAdjust="spacingAndGlyphs" textLength="56" x="137" y="324.3379">running</text><rect fill="#FEFECE" filter="url(#f82w6y8coueig)" height="50" rx="12.5" ry="12.5" style="stroke: #808080; stroke-width: 1.5;" width="84" x="189" y="425"/><line style="stroke: #808080; stroke-width: 1.5;" x1="189" x2="273" y1="453.6689" y2="453.6689"/><text fill="#000000" font-family="Monaco" font-size="14" lengthAdjust="spacingAndGlyphs" textLength="64" x="199" y="445.1689">No Focus</text><rect fill="#FEFECE" filter="url(#f82w6y8coueig)" height="57.3379" rx="12.5" ry="12.5" style="stroke: #808080; stroke-width: 1.5;" width="92" x="341" y="89.5"/><line style="stroke: #808080; stroke-width: 1.5;" x1="341" x2="433" y1="136.8379" y2="136.8379"/><text fill="#000000" font-family="Monaco" font-size="14" lengthAdjust="spacingAndGlyphs" textLength="64" x="351" y="109.6689">Activity</text><text fill="#000000" font-family="Monaco" font-size="14" lengthAdjust="spacingAndGlyphs" textLength="64" x="355" y="128.3379">launched</text><rect fill="#FEFECE" filter="url(#f82w6y8coueig)" height="57.3379" rx="12.5" ry="12.5" style="stroke: #808080; stroke-width: 1.5;" width="92" x="531" y="421.5"/><line style="stroke: #808080; stroke-width: 1.5;" x1="531" x2="623" y1="468.8379" y2="468.8379"/><text fill="#000000" font-family="Monaco" font-size="14" lengthAdjust="spacingAndGlyphs" textLength="64" x="541" y="441.6689">Activity</text><text fill="#000000" font-family="Monaco" font-size="14" lengthAdjust="spacingAndGlyphs" textLength="72" x="541" y="460.3379">destroyed</text><rect fill="#FEFECE" filter="url(#f82w6y8coueig)" height="50" rx="12.5" ry="12.5" style="stroke: #808080; stroke-width: 1.5;" width="92" x="341" y="289"/><line style="stroke: #808080; stroke-width: 1.5;" x1="341" x2="433" y1="317.6689" y2="317.6689"/><text fill="#000000" font-family="Monaco" font-size="14" lengthAdjust="spacingAndGlyphs" textLength="72" x="351" y="309.1689">Invisible</text><ellipse cx="387" cy="18.5" fill="#000000" filter="url(#f82w6y8coueig)" rx="10" ry="10" style="stroke: none; stroke-width: 1.0;"/><!--MD5=[10d2f4bd5bd7db142d8b97c01f6d17d8]
link *start to launched--><path d="M387,28.85 C387,41.48 387,64.66 387,84.08 " fill="none" id="*start-&gt;launched" style="stroke: #000000; stroke-width: 1.0;"/><polygon fill="#000000" points="387,89.45,391,80.45,387,84.45,383,80.45,387,89.45" style="stroke: #000000; stroke-width: 1.0;"/><!--MD5=[1626feef2b4c108f96c71467379361a7]
link launched to zombi--><path d="M387,146.8 C387,183.14 387,246.55 387,283.65 " fill="none" id="launched-&gt;zombi" style="stroke: #000000; stroke-width: 1.0;"/><polygon fill="#000000" points="387,288.93,391,279.93,387,283.93,383,279.93,387,288.93" style="stroke: #000000; stroke-width: 1.0;"/><text fill="#000000" font-family="Monaco" font-size="13" lengthAdjust="spacingAndGlyphs" textLength="80" x="388" y="191.5854">onCreate()</text><!--MD5=[b4723d0bdf9da9ba0116ef605ec51ccd]
link zombi to nofocus--><path d="M358.75,339.27 C331.8,362.41 291.26,397.24 263.1,421.43 " fill="none" id="zombi-&gt;nofocus" style="stroke: #000000; stroke-width: 1.0;"/><polygon fill="#000000" points="259.04,424.91,268.4712,422.0723,262.8302,421.649,263.2536,416.008,259.04,424.91" style="stroke: #000000; stroke-width: 1.0;"/><text fill="#000000" font-family="Monaco" font-size="13" lengthAdjust="spacingAndGlyphs" textLength="88" x="319" y="387.5854">onRestart()</text><!--MD5=[b4723d0bdf9da9ba0116ef605ec51ccd]
link zombi to nofocus--><path d="M407.45,339.07 C418.42,355.02 427.54,375.83 416,391.5 C384.67,434.05 322.11,446.03 278.46,448.94 " fill="none" id="zombi-&gt;nofocus-1" style="stroke: #000000; stroke-width: 1.0;"/><polygon fill="#000000" points="273.23,449.25,282.4534,452.7038,278.221,448.9505,281.9743,444.7182,273.23,449.25" style="stroke: #000000; stroke-width: 1.0;"/><text fill="#000000" font-family="Monaco" font-size="13" lengthAdjust="spacingAndGlyphs" textLength="72" x="422" y="387.5854">onStart()</text><!--MD5=[6687edc95ecea82b95f27dd95b6670b8]
link visible to zombi--><path d="M29.9606,279.0335 C29.6337,276.518 29.3555,273.9331 29.1437,271.3025 C27.45,250.2575 30.015,226.285 46,211.5 C88.9,171.81 256.63,185.55 309,211.5 C339.37,226.55 361.12,259.71 373.81,284.26 " fill="none" id="visible-&gt;zombi" style="stroke: #000000; stroke-width: 1.0;"/><polygon fill="#000000" points="376.07,288.74,375.5725,278.9037,373.8111,284.2794,368.4354,282.518,376.07,288.74" style="stroke: #000000; stroke-width: 1.0;"/><text fill="#000000" font-family="Monaco" font-size="13" lengthAdjust="spacingAndGlyphs" textLength="64" x="158" y="191.5854">onStop()</text><!--MD5=[20f4146114baeff8330f87a6ce9303d2]
link zombi to destroyed--><path d="M433.11,333.47 C455.27,343.41 481.59,356.85 503,372.5 C520.46,385.26 537.41,402.33 550.68,417.11 " fill="none" id="zombi-&gt;destroyed" style="stroke: #000000; stroke-width: 1.0;"/><polygon fill="#000000" points="554.32,421.22,551.3482,411.8302,551.0053,417.4767,545.3588,417.1338,554.32,421.22" style="stroke: #000000; stroke-width: 1.0;"/><text fill="#000000" font-family="Monaco" font-size="13" lengthAdjust="spacingAndGlyphs" textLength="88" x="526" y="387.5854">onDestroy()</text><!--MD5=[04c14b85e02d0a6344fdb83e2eaad76e]
link nofocus to running--><path d="M219.11,424.86 C208.45,403.22 192.73,371.29 180.97,347.43 " fill="none" id="nofocus-&gt;running" style="stroke: #000000; stroke-width: 1.0;"/><polygon fill="#000000" points="178.68,342.76,179.0517,352.6018,180.8817,347.2492,186.2344,349.0791,178.68,342.76" style="stroke: #000000; stroke-width: 1.0;"/><text fill="#000000" font-family="Monaco" font-size="13" lengthAdjust="spacingAndGlyphs" textLength="80" x="202" y="387.5854">onResume()</text><!--MD5=[eccc5139318d7c38123332628ae642c4]
link running to nofocus--><path d="M118.95,342.31 C108.9,350.64 99.6,360.76 94,372.5 C90.36,380.12 89.32,384.47 94,391.5 C113.86,421.37 152.57,435.76 183.79,442.67 " fill="none" id="running-&gt;nofocus" style="stroke: #000000; stroke-width: 1.0;"/><polygon fill="#000000" points="188.73,443.71,180.7437,437.9464,183.8366,442.6828,179.1002,445.7758,188.73,443.71" style="stroke: #000000; stroke-width: 1.0;"/><text fill="#000000" font-family="Monaco" font-size="13" lengthAdjust="spacingAndGlyphs" textLength="72" x="95" y="387.5854">onPause()</text><text fill="#888888" font-family="Monaco" font-size="10" lengthAdjust="spacingAndGlyphs" textLength="222" x="209.5" y="543.835">CC BY-SA 3.0 - http://jmb.c.la - 2015</text><!--MD5=[287e242f994dfccb83dbd6e5f0195a46]
@startuml
skinparam defaultFontName Monaco
skinparam state {
	ArrowColor Black
 	BorderColor Gray
	BorderColor<<Running>> DarkGreen
}
center footer CC BY-SA 3.0 - http://jmb.c.la - 2015
State "Activity \nlaunched" as launched
State "Activity \ndestroyed" as destroyed
State "Invisible"  as zombi <<NotVisible>>
State "Visible" as visible {
	State "Activity \nrunning" as running <<Running>>
	State "No Focus" as nofocus
}
[*] - -> launched
launched - -> zombi : onCreate()
zombi - -> nofocus : onRestart()
zombi - -> nofocus : onStart()
visible - -> zombi : onStop()
zombi - -> destroyed : onDestroy()
nofocus - -> running : onResume()
running -> nofocus : onPause()
@enduml

PlantUML version 1.2019.12(Sun Nov 03 11:24:54 CET 2019)
(APACHE source distribution)
Java Runtime: Java(TM) SE Runtime Environment
JVM: Java HotSpot(TM) 64-Bit Server VM
Java Version: 15+36-1562
Operating System: Mac OS X
Default Encoding: UTF-8
Language: fr
Country: FR
--></g></svg>