<?xml version="1.0" encoding="UTF-8" standalone="no"?><svg xmlns="http://www.w3.org/2000/svg" xmlns:xlink="http://www.w3.org/1999/xlink" contentScriptType="application/ecmascript" contentStyleType="text/css" height="266px" preserveAspectRatio="none" style="width:841px;height:266px;" version="1.1" viewBox="0 0 841 266" width="841px" zoomAndPan="magnify"><defs><filter height="300%" id="f16dzoaglxy2mo" width="300%" x="-1" y="-1"><feGaussianBlur result="blurOut" stdDeviation="2.0"/><feColorMatrix in="blurOut" result="blurOut2" type="matrix" values="0 0 0 0 0 0 0 0 0 0 0 0 0 0 0 0 0 0 .4 0"/><feOffset dx="4.0" dy="4.0" in="blurOut2" result="blurOut3"/><feBlend in="SourceGraphic" in2="blurOut3" mode="normal"/></filter></defs><g><!--MD5=[6dd2f378bbb92bac41757861ddd11092]
cluster Android--><rect fill="#D3D3D3" filter="url(#f16dzoaglxy2mo)" height="103" rx="12.5" ry="12.5" style="stroke: #A80036; stroke-width: 1.5;" width="251" x="390" y="152"/><rect fill="#FFFFFF" height="68.3311" rx="12.5" ry="12.5" style="stroke: #FFFFFF; stroke-width: 1.0;" width="245" x="393" y="183.6689"/><line style="stroke: #A80036; stroke-width: 1.5;" x1="390" x2="641" y1="180.6689" y2="180.6689"/><text fill="#000000" font-family="Monaco" font-size="14" lengthAdjust="spacingAndGlyphs" textLength="56" x="487.5" y="171.1689">Android</text><rect fill="#FEFECE" filter="url(#f16dzoaglxy2mo)" height="50" rx="12.5" ry="12.5" style="stroke: #A80036; stroke-width: 1.5;" width="92" x="533" y="189"/><line style="stroke: #A80036; stroke-width: 1.5;" x1="533" x2="625" y1="217.6689" y2="217.6689"/><text fill="#000000" font-family="Monaco" font-size="14" lengthAdjust="spacingAndGlyphs" textLength="72" x="543" y="209.1689">resource1</text><rect fill="#FEFECE" filter="url(#f16dzoaglxy2mo)" height="50" rx="12.5" ry="12.5" style="stroke: #A80036; stroke-width: 1.5;" width="92" x="406" y="189"/><line style="stroke: #A80036; stroke-width: 1.5;" x1="406" x2="498" y1="217.6689" y2="217.6689"/><text fill="#000000" font-family="Monaco" font-size="14" lengthAdjust="spacingAndGlyphs" textLength="72" x="416" y="209.1689">resource2</text><rect fill="#FEFECE" filter="url(#f16dzoaglxy2mo)" height="57.3379" rx="12.5" ry="12.5" style="stroke: #A80036; stroke-width: 1.5;" width="76" x="336" y="8"/><line style="stroke: #A80036; stroke-width: 1.5;" x1="336" x2="412" y1="55.3379" y2="55.3379"/><text fill="#000000" font-family="Monaco" font-size="14" lengthAdjust="spacingAndGlyphs" textLength="40" x="350" y="28.1689">Linux</text><text fill="#000000" font-family="Monaco" font-size="14" lengthAdjust="spacingAndGlyphs" textLength="56" x="346" y="46.8379">Process</text><rect fill="#FEFECE" filter="url(#f16dzoaglxy2mo)" height="57.3379" rx="12.5" ry="12.5" style="stroke: #A80036; stroke-width: 1.5;" width="84" x="537" y="8"/><line style="stroke: #A80036; stroke-width: 1.5;" x1="537" x2="621" y1="55.3379" y2="55.3379"/><text fill="#000000" font-family="Monaco" font-size="14" lengthAdjust="spacingAndGlyphs" textLength="56" x="547" y="28.1689">Virtual</text><text fill="#000000" font-family="Monaco" font-size="14" lengthAdjust="spacingAndGlyphs" textLength="56" x="551" y="46.8379">Machine</text><rect fill="#FEFECE" filter="url(#f16dzoaglxy2mo)" height="50" rx="12.5" ry="12.5" style="stroke: #A80036; stroke-width: 1.5;" width="108" x="6" y="11.5"/><line style="stroke: #A80036; stroke-width: 1.5;" x1="6" x2="114" y1="40.1689" y2="40.1689"/><text fill="#000000" font-family="Monaco" font-size="14" lengthAdjust="spacingAndGlyphs" textLength="88" x="16" y="31.6689">Application</text><rect fill="#FEFECE" filter="url(#f16dzoaglxy2mo)" height="50" rx="12.5" ry="12.5" style="stroke: #A80036; stroke-width: 1.5;" width="68" x="175" y="11.5"/><line style="stroke: #A80036; stroke-width: 1.5;" x1="175" x2="243" y1="40.1689" y2="40.1689"/><text fill="#000000" font-family="Monaco" font-size="14" lengthAdjust="spacingAndGlyphs" textLength="48" x="185" y="31.6689">UserId</text><!--MD5=[3e81cbb1ead1382574163a86fec7ef7f]
link Application to UserId--><path d="M114.21,36.5 C132.61,36.5 152.8,36.5 169.8,36.5 " fill="none" id="Application-&gt;UserId" style="stroke: #A80036; stroke-width: 1.0;"/><polygon fill="#A80036" points="174.97,36.5,165.97,32.5,169.97,36.5,165.97,40.5,174.97,36.5" style="stroke: #A80036; stroke-width: 1.0;"/><text fill="#000000" font-family="Monaco" font-size="13" lengthAdjust="spacingAndGlyphs" textLength="24" x="132.5" y="29.5854">has</text><!--MD5=[5f665978b1e1be73b2061633123cb69d]
link UserId to linux--><path d="M243.19,36.5 C268.6,36.5 303.46,36.5 330.8,36.5 " fill="none" id="UserId-&gt;linux" style="stroke: #A80036; stroke-width: 1.0;"/><polygon fill="#A80036" points="335.82,36.5,326.82,32.5,330.82,36.5,326.82,40.5,335.82,36.5" style="stroke: #A80036; stroke-width: 1.0;"/><text fill="#000000" font-family="Monaco" font-size="13" lengthAdjust="spacingAndGlyphs" textLength="56" x="261.5" y="29.5854">runs on</text><!--MD5=[1a662a500145c523a2562f0d6caf0ecb]
link linux to vm--><path d="M412.08,36.5 C445.85,36.5 495.31,36.5 531.63,36.5 " fill="none" id="linux-&gt;vm" style="stroke: #A80036; stroke-width: 1.0;"/><polygon fill="#A80036" points="536.89,36.5,527.89,32.5,531.89,36.5,527.89,40.5,536.89,36.5" style="stroke: #A80036; stroke-width: 1.0;"/><text fill="#000000" font-family="Monaco" font-size="13" lengthAdjust="spacingAndGlyphs" textLength="88" x="430.5" y="29.5854">has its own</text><!--MD5=[3ae0fcea5ddaa61af70bd2946c57fdde]
link vm to resource1--><path d="M579,65.31 C579,97.69 579,150.95 579,183.88 " fill="none" id="vm-&gt;resource1" style="stroke: #A80036; stroke-width: 1.0;"/><polygon fill="#A80036" points="579,188.99,583,179.99,579,183.99,575,179.99,579,188.99" style="stroke: #A80036; stroke-width: 1.0;"/><path d="M584,100 L584,127 L829,127 L829,110 L819,100 L584,100 " fill="#FBFB77" filter="url(#f16dzoaglxy2mo)" style="stroke: #A80036; stroke-width: 1.0;"/><path d="M819,100 L819,110 L829,110 L819,100 " fill="#FBFB77" style="stroke: #A80036; stroke-width: 1.0;"/><text fill="#000000" font-family="Monaco" font-size="13" lengthAdjust="spacingAndGlyphs" textLength="224" x="590" y="119.0854">principle of least privilege</text><!--MD5=[634715191a9911d25f5356529a5316d4]
@startuml
skinparam defaultFontName Monaco
skinparam package {
 	BackgroundColor LightGrey
}
skinparam stateBackgroundColor<<extra>> LightBlue

State "Linux \nProcess" as linux
State "Virtual \nMachine" as vm
State Android {
	State resource1
	State resource2
}
hide empty members
Application -> UserId : has
UserId -> linux : runs on
linux -> vm: has its own
vm - -> resource1
note right on link : principle of least privilege

@enduml

PlantUML version 1.2019.12(Sun Nov 03 11:24:54 CET 2019)
(APACHE source distribution)
Java Runtime: Java(TM) SE Runtime Environment
JVM: Java HotSpot(TM) 64-Bit Server VM
Java Version: 15+36-1562
Operating System: Mac OS X
Default Encoding: UTF-8
Language: fr
Country: FR
--></g></svg>