<?xml version="1.0" encoding="UTF-8" standalone="no"?><svg xmlns="http://www.w3.org/2000/svg" xmlns:xlink="http://www.w3.org/1999/xlink" contentScriptType="application/ecmascript" contentStyleType="text/css" height="242px" preserveAspectRatio="none" style="width:841px;height:242px;" version="1.1" viewBox="0 0 841 242" width="841px" zoomAndPan="magnify"><defs><filter height="300%" id="f81keiik33z6z" width="300%" x="-1" y="-1"><feGaussianBlur result="blurOut" stdDeviation="2.0"/><feColorMatrix in="blurOut" result="blurOut2" type="matrix" values="0 0 0 0 0 0 0 0 0 0 0 0 0 0 0 0 0 0 .4 0"/><feOffset dx="4.0" dy="4.0" in="blurOut2" result="blurOut3"/><feBlend in="SourceGraphic" in2="blurOut3" mode="normal"/></filter></defs><g><!--cluster Android--><rect fill="#D3D3D3" filter="url(#f81keiik33z6z)" height="87" rx="12.5" ry="12.5" style="stroke: #A80036; stroke-width: 1.5;" width="235" x="398" y="144"/><rect fill="#FFFFFF" height="52.3311" rx="12.5" ry="12.5" style="stroke: #FFFFFF; stroke-width: 1.0;" width="229" x="401" y="175.6689"/><line style="stroke: #A80036; stroke-width: 1.5;" x1="398" x2="633" y1="172.6689" y2="172.6689"/><text fill="#000000" font-family="Monaco" font-size="14" lengthAdjust="spacingAndGlyphs" textLength="56" x="487.5" y="163.1689">Android</text><rect fill="#FEFECE" filter="url(#f81keiik33z6z)" height="50" rx="12.5" ry="12.5" style="stroke: #A80036; stroke-width: 1.5;" width="92" x="533" y="173"/><line style="stroke: #A80036; stroke-width: 1.5;" x1="533" x2="625" y1="201.6689" y2="201.6689"/><text fill="#000000" font-family="Monaco" font-size="14" lengthAdjust="spacingAndGlyphs" textLength="72" x="543" y="193.1689">resource1</text><rect fill="#FEFECE" filter="url(#f81keiik33z6z)" height="50" rx="12.5" ry="12.5" style="stroke: #A80036; stroke-width: 1.5;" width="92" x="406" y="173"/><line style="stroke: #A80036; stroke-width: 1.5;" x1="406" x2="498" y1="201.6689" y2="201.6689"/><text fill="#000000" font-family="Monaco" font-size="14" lengthAdjust="spacingAndGlyphs" textLength="72" x="416" y="193.1689">resource2</text><rect fill="#FEFECE" filter="url(#f81keiik33z6z)" height="57.3379" rx="12.5" ry="12.5" style="stroke: #A80036; stroke-width: 1.5;" width="76" x="336" y="8"/><line style="stroke: #A80036; stroke-width: 1.5;" x1="336" x2="412" y1="55.3379" y2="55.3379"/><text fill="#000000" font-family="Monaco" font-size="14" lengthAdjust="spacingAndGlyphs" textLength="40" x="350" y="28.1689">Linux</text><text fill="#000000" font-family="Monaco" font-size="14" lengthAdjust="spacingAndGlyphs" textLength="56" x="346" y="46.8379">Process</text><rect fill="#FEFECE" filter="url(#f81keiik33z6z)" height="57.3379" rx="12.5" ry="12.5" style="stroke: #A80036; stroke-width: 1.5;" width="84" x="537" y="8"/><line style="stroke: #A80036; stroke-width: 1.5;" x1="537" x2="621" y1="55.3379" y2="55.3379"/><text fill="#000000" font-family="Monaco" font-size="14" lengthAdjust="spacingAndGlyphs" textLength="56" x="547" y="28.1689">Virtual</text><text fill="#000000" font-family="Monaco" font-size="14" lengthAdjust="spacingAndGlyphs" textLength="56" x="551" y="46.8379">Machine</text><rect fill="#FEFECE" filter="url(#f81keiik33z6z)" height="50" rx="12.5" ry="12.5" style="stroke: #A80036; stroke-width: 1.5;" width="108" x="6" y="11.5"/><line style="stroke: #A80036; stroke-width: 1.5;" x1="6" x2="114" y1="40.1689" y2="40.1689"/><text fill="#000000" font-family="Monaco" font-size="14" lengthAdjust="spacingAndGlyphs" textLength="88" x="16" y="31.6689">Application</text><rect fill="#FEFECE" filter="url(#f81keiik33z6z)" height="50" rx="12.5" ry="12.5" style="stroke: #A80036; stroke-width: 1.5;" width="68" x="175" y="11.5"/><line style="stroke: #A80036; stroke-width: 1.5;" x1="175" x2="243" y1="40.1689" y2="40.1689"/><text fill="#000000" font-family="Monaco" font-size="14" lengthAdjust="spacingAndGlyphs" textLength="48" x="185" y="31.6689">UserId</text><!--link Application to UserId--><path d="M114.2139,36.5 C132.6134,36.5 152.7999,36.5 169.7979,36.5 " fill="none" id="Application-UserId" style="stroke: #A80036; stroke-width: 1.0;"/><polygon fill="#A80036" points="174.9652,36.5,165.9652,32.5,169.9652,36.5,165.9652,40.5,174.9652,36.5" style="stroke: #A80036; stroke-width: 1.0;"/><text fill="#000000" font-family="Monaco" font-size="13" lengthAdjust="spacingAndGlyphs" textLength="24" x="132.5" y="29.5854">has</text><!--link UserId to linux--><path d="M243.1881,36.5 C268.6028,36.5 303.462,36.5 330.8045,36.5 " fill="none" id="UserId-linux" style="stroke: #A80036; stroke-width: 1.0;"/><polygon fill="#A80036" points="335.8186,36.5,326.8186,32.5,330.8186,36.5,326.8186,40.5,335.8186,36.5" style="stroke: #A80036; stroke-width: 1.0;"/><text fill="#000000" font-family="Monaco" font-size="13" lengthAdjust="spacingAndGlyphs" textLength="56" x="261.5" y="29.5854">runs on</text><!--link linux to vm--><path d="M412.0785,36.5 C445.8494,36.5 495.3102,36.5 531.6274,36.5 " fill="none" id="linux-vm" style="stroke: #A80036; stroke-width: 1.0;"/><polygon fill="#A80036" points="536.8868,36.5,527.8868,32.5,531.8868,36.5,527.8868,40.5,536.8868,36.5" style="stroke: #A80036; stroke-width: 1.0;"/><text fill="#000000" font-family="Monaco" font-size="13" lengthAdjust="spacingAndGlyphs" textLength="88" x="430.5" y="29.5854">has its own</text><!--link vm to resource1--><path d="M579,65.0012 C579,93.8149 579,138.1829 579,167.6433 " fill="none" id="vm-resource1" style="stroke: #A80036; stroke-width: 1.0;"/><polygon fill="#A80036" points="579,172.9636,583,163.9636,579,167.9636,575,163.9636,579,172.9636" style="stroke: #A80036; stroke-width: 1.0;"/><path d="M584,100 L584,127 L829,127 L829,110 L819,100 L584,100 " fill="#FBFB77" filter="url(#f81keiik33z6z)" style="stroke: #A80036; stroke-width: 1.0;"/><path d="M819,100 L819,110 L829,110 L819,100 " fill="#FBFB77" style="stroke: #A80036; stroke-width: 1.0;"/><text fill="#000000" font-family="Monaco" font-size="13" lengthAdjust="spacingAndGlyphs" textLength="224" x="590" y="119.0854">principle of least privilege</text><!--
@startuml
skinparam defaultFontName Monaco
skinparam package {
 	BackgroundColor LightGrey
}
skinparam stateBackgroundColor<<extra>> LightBlue

State "Linux \nProcess" as linux
State "Virtual \nMachine" as vm
State Android {
	State resource1
	State resource2
}
Application -> UserId : has
UserId -> linux : runs on
linux -> vm: has its own
vm - -> resource1
note right on link : principle of least privilege

@enduml

PlantUML version 1.2018.10(Sat Aug 25 19:02:59 CEST 2018)
(APACHE source distribution)
Java Runtime: Java(TM) SE Runtime Environment
JVM: Java HotSpot(TM) 64-Bit Server VM
Java Version: 1.8.0_152-b16
Operating System: Mac OS X
OS Version: 10.14.1
Default Encoding: UTF-8
Language: fr
Country: FR
--></g></svg>