<?xml version="1.0" encoding="UTF-8" standalone="yes"?><svg xmlns="http://www.w3.org/2000/svg" xmlns:xlink="http://www.w3.org/1999/xlink" height="262px" style="width:847px;height:262px;" version="1.1" viewBox="0 0 847 262" width="847px"><defs><filter height="300%" id="f1" width="300%" x="-1" y="-1"><feGaussianBlur result="blurOut" stdDeviation="2.0"/><feColorMatrix in="blurOut" result="blurOut2" type="matrix" values="0 0 0 0 0 0 0 0 0 0 0 0 0 0 0 0 0 0 .4 0"/><feOffset dx="4.0" dy="4.0" in="blurOut2" result="blurOut3"/><feBlend in="SourceGraphic" in2="blurOut3" mode="normal"/></filter></defs><g><rect fill="#D3D3D3" filter="url(#f1)" height="103" rx="12.5" ry="12.5" style="stroke: #A80036; stroke-width: 1.5;" width="251" x="399" y="152"/><rect fill="#FFFFFF" height="68.3311" rx="12.5" ry="12.5" style="stroke: #FFFFFF; stroke-width: 1.0;" width="245" x="402" y="183.6689"/><line style="stroke: #A80036; stroke-width: 1.5;" x1="399" x2="650" y1="180.6689" y2="180.6689"/><text fill="#000000" font-family="Monaco" font-size="14" lengthAdjust="spacingAndGlyphs" textLength="56" x="496.5" y="171.1689">Android</text><rect fill="#FEFECE" filter="url(#f1)" height="50" rx="12.5" ry="12.5" style="stroke: #A80036; stroke-width: 1.5;" width="92" x="542" y="189"/><line style="stroke: #A80036; stroke-width: 1.5;" x1="542" x2="634" y1="217.6689" y2="217.6689"/><text fill="#000000" font-family="Monaco" font-size="14" lengthAdjust="spacingAndGlyphs" textLength="72" x="552" y="209.1689">resource1</text><rect fill="#FEFECE" filter="url(#f1)" height="50" rx="12.5" ry="12.5" style="stroke: #A80036; stroke-width: 1.5;" width="92" x="415" y="189"/><line style="stroke: #A80036; stroke-width: 1.5;" x1="415" x2="507" y1="217.6689" y2="217.6689"/><text fill="#000000" font-family="Monaco" font-size="14" lengthAdjust="spacingAndGlyphs" textLength="72" x="425" y="209.1689">resource2</text><rect fill="#FEFECE" filter="url(#f1)" height="57.3379" rx="12.5" ry="12.5" style="stroke: #A80036; stroke-width: 1.5;" width="76" x="345" y="8"/><line style="stroke: #A80036; stroke-width: 1.5;" x1="345" x2="421" y1="55.3379" y2="55.3379"/><text fill="#000000" font-family="Monaco" font-size="14" lengthAdjust="spacingAndGlyphs" textLength="40" x="359" y="28.1689">Linux</text><text fill="#000000" font-family="Monaco" font-size="14" lengthAdjust="spacingAndGlyphs" textLength="56" x="355" y="46.8379">Process</text><rect fill="#FEFECE" filter="url(#f1)" height="57.3379" rx="12.5" ry="12.5" style="stroke: #A80036; stroke-width: 1.5;" width="84" x="546" y="8"/><line style="stroke: #A80036; stroke-width: 1.5;" x1="546" x2="630" y1="55.3379" y2="55.3379"/><text fill="#000000" font-family="Monaco" font-size="14" lengthAdjust="spacingAndGlyphs" textLength="56" x="556" y="28.1689">Virtual</text><text fill="#000000" font-family="Monaco" font-size="14" lengthAdjust="spacingAndGlyphs" textLength="56" x="560" y="46.8379">Machine</text><rect fill="#FEFECE" filter="url(#f1)" height="50" rx="12.5" ry="12.5" style="stroke: #A80036; stroke-width: 1.5;" width="108" x="6" y="11.5"/><line style="stroke: #A80036; stroke-width: 1.5;" x1="6" x2="114" y1="40.1689" y2="40.1689"/><text fill="#000000" font-family="Monaco" font-size="14" lengthAdjust="spacingAndGlyphs" textLength="88" x="16" y="31.6689">Application</text><rect fill="#FEFECE" filter="url(#f1)" height="50" rx="12.5" ry="12.5" style="stroke: #A80036; stroke-width: 1.5;" width="68" x="184" y="11.5"/><line style="stroke: #A80036; stroke-width: 1.5;" x1="184" x2="252" y1="40.1689" y2="40.1689"/><text fill="#000000" font-family="Monaco" font-size="14" lengthAdjust="spacingAndGlyphs" textLength="48" x="194" y="31.6689">UserId</text><path d="M114.3746,36.5 C135.4259,36.5 159.0692,36.5 178.4506,36.5 " fill="none" style="stroke: #A80036; stroke-width: 1.0;"/><polygon fill="#A80036" points="183.7985,36.5,174.7985,32.5,178.7985,36.5,174.7985,40.5,183.7985,36.5" style="stroke: #A80036; stroke-width: 1.0;"/><text fill="#000000" font-family="Monaco" font-size="13" lengthAdjust="spacingAndGlyphs" textLength="24" x="137" y="29.5854">has</text><path d="M252.1881,36.5 C277.6028,36.5 312.462,36.5 339.8045,36.5 " fill="none" style="stroke: #A80036; stroke-width: 1.0;"/><polygon fill="#A80036" points="344.8186,36.5,335.8186,32.5,339.8186,36.5,335.8186,40.5,344.8186,36.5" style="stroke: #A80036; stroke-width: 1.0;"/><text fill="#000000" font-family="Monaco" font-size="13" lengthAdjust="spacingAndGlyphs" textLength="56" x="270.5" y="29.5854">runs on</text><path d="M421.0785,36.5 C454.8494,36.5 504.3102,36.5 540.6274,36.5 " fill="none" style="stroke: #A80036; stroke-width: 1.0;"/><polygon fill="#A80036" points="545.8868,36.5,536.8868,32.5,540.8868,36.5,536.8868,40.5,545.8868,36.5" style="stroke: #A80036; stroke-width: 1.0;"/><text fill="#000000" font-family="Monaco" font-size="13" lengthAdjust="spacingAndGlyphs" textLength="88" x="439.5" y="29.5854">has its own</text><path d="M588,65.0184 C588,97.5761 588,150.6097 588,183.8381 " fill="none" style="stroke: #A80036; stroke-width: 1.0;"/><polygon fill="#A80036" points="588,188.9949,592,179.9949,588,183.9949,584,179.9949,588,188.9949" style="stroke: #A80036; stroke-width: 1.0;"/><polygon fill="#FBFB77" filter="url(#f1)" points="593,100,593,127,838,127,838,110,828,100,593,100" style="stroke: #A80036; stroke-width: 1.0;"/><line style="stroke: #A80036; stroke-width: 1.0;" x1="828" x2="828" y1="100" y2="110"/><line style="stroke: #A80036; stroke-width: 1.0;" x1="838" x2="828" y1="110" y2="110"/><text fill="#000000" font-family="Monaco" font-size="13" lengthAdjust="spacingAndGlyphs" textLength="224" x="599" y="119.0854">principle of least privilege</text></g></svg>