<?xml version="1.0" encoding="UTF-8" standalone="no"?><svg xmlns="http://www.w3.org/2000/svg" xmlns:xlink="http://www.w3.org/1999/xlink" contentScriptType="application/ecmascript" contentStyleType="text/css" height="824px" preserveAspectRatio="none" style="width:1258px;height:824px;" version="1.1" viewBox="0 0 1258 824" width="1258px" zoomAndPan="magnify"><defs><filter height="300%" id="f17te5z24on4bm" width="300%" x="-1" y="-1"><feGaussianBlur result="blurOut" stdDeviation="2.0"/><feColorMatrix in="blurOut" result="blurOut2" type="matrix" values="0 0 0 0 0 0 0 0 0 0 0 0 0 0 0 0 0 0 .4 0"/><feOffset dx="4.0" dy="4.0" in="blurOut2" result="blurOut3"/><feBlend in="SourceGraphic" in2="blurOut3" mode="normal"/></filter></defs><g><!--cluster android--><polygon fill="#DDDDDD" filter="url(#f17te5z24on4bm)" points="211,201.5,273,201.5,280,226.1689,1236,226.1689,1236,782,211,782,211,201.5" style="stroke: #000000; stroke-width: 1.5;"/><line style="stroke: #000000; stroke-width: 1.5;" x1="211" x2="280" y1="226.1689" y2="226.1689"/><text fill="#000000" font-family="Monaco" font-size="14" font-weight="bold" lengthAdjust="spacingAndGlyphs" textLength="56" x="215" y="218.6689">android</text><!--cluster android.view--><polygon fill="#D3D3D3" filter="url(#f17te5z24on4bm)" points="761,252,863,252,870,276.6689,873,276.6689,873,444,761,444,761,252" style="stroke: #000000; stroke-width: 1.5;"/><line style="stroke: #000000; stroke-width: 1.5;" x1="761" x2="870" y1="276.6689" y2="276.6689"/><text fill="#000000" font-family="Monaco" font-size="14" font-weight="bold" lengthAdjust="spacingAndGlyphs" textLength="96" x="765" y="269.1689">android.view</text><!--cluster android.widget--><polygon fill="#D3D3D3" filter="url(#f17te5z24on4bm)" points="546,467,664,467,671,491.6689,1228,491.6689,1228,666.5,546,666.5,546,467" style="stroke: #000000; stroke-width: 1.5;"/><line style="stroke: #000000; stroke-width: 1.5;" x1="546" x2="671" y1="491.6689" y2="491.6689"/><text fill="#000000" font-family="Monaco" font-size="14" font-weight="bold" lengthAdjust="spacingAndGlyphs" textLength="112" x="550" y="484.1689">android.widget</text><!--cluster android.app--><polygon fill="#DDDDDD" filter="url(#f17te5z24on4bm)" points="219,230.5,313,230.5,320,255.1689,538,255.1689,538,774,219,774,219,230.5" style="stroke: #000000; stroke-width: 1.5;"/><line style="stroke: #000000; stroke-width: 1.5;" x1="219" x2="320" y1="255.1689" y2="255.1689"/><text fill="#000000" font-family="Monaco" font-size="14" font-weight="bold" lengthAdjust="spacingAndGlyphs" textLength="88" x="223" y="247.6689">android.app</text><!--cluster fragment--><polygon fill="#D3D3D3" filter="url(#f17te5z24on4bm)" points="416,259.5,486,259.5,493,284.1689,520,284.1689,520,336.5,416,336.5,416,259.5" style="stroke: #000000; stroke-width: 1.5;"/><line style="stroke: #000000; stroke-width: 1.5;" x1="416" x2="493" y1="284.1689" y2="284.1689"/><text fill="#000000" font-family="Monaco" font-size="14" font-weight="bold" lengthAdjust="spacingAndGlyphs" textLength="64" x="420" y="276.6689">fragment</text><!--cluster layout--><polygon fill="#DDDDDD" filter="url(#f17te5z24on4bm)" points="457,116.5,511,116.5,518,141.1689,547,141.1689,547,193.5,457,193.5,457,116.5" style="stroke: #000000; stroke-width: 1.5;"/><line style="stroke: #000000; stroke-width: 1.5;" x1="457" x2="518" y1="141.1689" y2="141.1689"/><text fill="#000000" font-family="Monaco" font-size="14" font-weight="bold" lengthAdjust="spacingAndGlyphs" textLength="48" x="461" y="133.6689">layout</text><!--cluster Resources--><polygon fill="#DDDDDD" filter="url(#f17te5z24on4bm)" points="443,16.5,521,16.5,528,41.1689,561,41.1689,561,93.5,443,93.5,443,16.5" style="stroke: #000000; stroke-width: 1.5;"/><line style="stroke: #000000; stroke-width: 1.5;" x1="443" x2="528" y1="41.1689" y2="41.1689"/><text fill="#000000" font-family="Monaco" font-size="14" font-weight="bold" lengthAdjust="spacingAndGlyphs" textLength="72" x="447" y="33.6689">Resources</text><!--cluster com.MyCompany--><polygon fill="#FFFFFF" filter="url(#f17te5z24on4bm)" points="14,589.5,124,589.5,131,614.1689,140,614.1689,140,774,14,774,14,589.5" style="stroke: #000000; stroke-width: 1.5;"/><line style="stroke: #000000; stroke-width: 1.5;" x1="14" x2="131" y1="614.1689" y2="614.1689"/><text fill="#000000" font-family="Monaco" font-size="14" font-weight="bold" lengthAdjust="spacingAndGlyphs" textLength="104" x="18" y="606.6689">com.MyCompany</text><!--class v--><rect fill="#FEFECE" filter="url(#f17te5z24on4bm)" height="54.6685" id="v" style="stroke: #A80036; stroke-width: 1.5;" width="82" x="779" y="281"/><ellipse cx="803.9" cy="297" fill="#008000" rx="11" ry="11" style="stroke: #A80036; stroke-width: 1.0;"/><path d="M804.0133,292.5981 L802.8595,297.6699 L805.1754,297.6699 Z M802.5191,290.3569 L805.5157,290.3569 L808.8609,302.75 L806.4122,302.75 L805.6485,299.687 L802.3697,299.687 L801.6227,302.75 L799.1739,302.75 Z "/><text fill="#000000" font-family="Monaco" font-size="12" lengthAdjust="spacingAndGlyphs" textLength="28" x="820.1" y="302.001">View</text><line style="stroke: #A80036; stroke-width: 1.5;" x1="780" x2="860" y1="313" y2="313"/><text fill="#000000" font-family="Monaco" font-size="11" lengthAdjust="spacingAndGlyphs" textLength="70" x="785" y="328.9185">setId(int)</text><!--class vg--><rect fill="#FEFECE" filter="url(#f17te5z24on4bm)" height="40" id="vg" style="stroke: #A80036; stroke-width: 1.5;" width="95" x="769.5" y="396"/><ellipse cx="784.5" cy="412" fill="#008000" rx="11" ry="11" style="stroke: #A80036; stroke-width: 1.0;"/><path d="M784.6133,407.5981 L783.4595,412.6699 L785.7754,412.6699 Z M783.1191,405.3569 L786.1157,405.3569 L789.4609,417.75 L787.0122,417.75 L786.2485,414.687 L782.9697,414.687 L782.2227,417.75 L779.7739,417.75 Z "/><text fill="#000000" font-family="Monaco" font-size="12" lengthAdjust="spacingAndGlyphs" textLength="63" x="798.5" y="417.001">ViewGroup</text><line style="stroke: #A80036; stroke-width: 1.5;" x1="770.5" x2="863.5" y1="428" y2="428"/><!--class tv--><rect fill="#FEFECE" filter="url(#f17te5z24on4bm)" height="54.6685" id="tv" style="stroke: #A80036; stroke-width: 1.5;" width="96" x="1007" y="496"/><ellipse cx="1025.6" cy="512" fill="#008000" rx="11" ry="11" style="stroke: #A80036; stroke-width: 1.0;"/><path d="M1025.7133,507.5981 L1024.5595,512.6699 L1026.8754,512.6699 Z M1024.2191,505.3569 L1027.2157,505.3569 L1030.5609,517.75 L1028.1122,517.75 L1027.3485,514.687 L1024.0697,514.687 L1023.3227,517.75 L1020.8739,517.75 Z "/><text fill="#000000" font-family="Monaco" font-size="12" lengthAdjust="spacingAndGlyphs" textLength="56" x="1040.4" y="517.001">TextView</text><line style="stroke: #A80036; stroke-width: 1.5;" x1="1008" x2="1102" y1="528" y2="528"/><text fill="#000000" font-family="Monaco" font-size="11" lengthAdjust="spacingAndGlyphs" textLength="84" x="1013" y="543.9185">setText(...)</text><!--class b--><rect fill="#FEFECE" filter="url(#f17te5z24on4bm)" height="40" id="b" style="stroke: #A80036; stroke-width: 1.5;" width="74" x="960" y="618.5"/><ellipse cx="975" cy="634.5" fill="#008000" rx="11" ry="11" style="stroke: #A80036; stroke-width: 1.0;"/><path d="M975.1133,630.0981 L973.9595,635.1699 L976.2754,635.1699 Z M973.6191,627.8569 L976.6157,627.8569 L979.9609,640.25 L977.5122,640.25 L976.7485,637.187 L973.4697,637.187 L972.7227,640.25 L970.2739,640.25 Z "/><text fill="#000000" font-family="Monaco" font-size="12" lengthAdjust="spacingAndGlyphs" textLength="42" x="989" y="639.501">Button</text><line style="stroke: #A80036; stroke-width: 1.5;" x1="961" x2="1033" y1="650.5" y2="650.5"/><!--class spinner--><rect fill="#FEFECE" filter="url(#f17te5z24on4bm)" height="40" id="spinner" style="stroke: #A80036; stroke-width: 1.5;" width="81" x="1138.5" y="503.5"/><ellipse cx="1153.5" cy="519.5" fill="#008000" rx="11" ry="11" style="stroke: #A80036; stroke-width: 1.0;"/><path d="M1153.6133,515.0981 L1152.4595,520.1699 L1154.7754,520.1699 Z M1152.1191,512.8569 L1155.1157,512.8569 L1158.4609,525.25 L1156.0122,525.25 L1155.2485,522.187 L1151.9697,522.187 L1151.2227,525.25 L1148.7739,525.25 Z "/><text fill="#000000" font-family="Monaco" font-size="12" lengthAdjust="spacingAndGlyphs" textLength="49" x="1167.5" y="524.501">Spinner</text><line style="stroke: #A80036; stroke-width: 1.5;" x1="1139.5" x2="1218.5" y1="535.5" y2="535.5"/><!--class EditText--><rect fill="#FEFECE" filter="url(#f17te5z24on4bm)" height="40" id="EditText" style="stroke: #A80036; stroke-width: 1.5;" width="88" x="1069" y="618.5"/><ellipse cx="1084" cy="634.5" fill="#008000" rx="11" ry="11" style="stroke: #A80036; stroke-width: 1.0;"/><path d="M1084.1133,630.0981 L1082.9595,635.1699 L1085.2754,635.1699 Z M1082.6191,627.8569 L1085.6157,627.8569 L1088.9609,640.25 L1086.5122,640.25 L1085.7485,637.187 L1082.4697,637.187 L1081.7227,640.25 L1079.2739,640.25 Z "/><text fill="#000000" font-family="Monaco" font-size="12" lengthAdjust="spacingAndGlyphs" textLength="56" x="1098" y="639.501">EditText</text><line style="stroke: #A80036; stroke-width: 1.5;" x1="1070" x2="1156" y1="650.5" y2="650.5"/><!--class RelativeLayout--><rect fill="#FEFECE" filter="url(#f17te5z24on4bm)" height="40" id="RelativeLayout" style="stroke: #A80036; stroke-width: 1.5;" width="130" x="554" y="503.5"/><ellipse cx="569" cy="519.5" fill="#008000" rx="11" ry="11" style="stroke: #A80036; stroke-width: 1.0;"/><path d="M569.1133,515.0981 L567.9595,520.1699 L570.2754,520.1699 Z M567.6191,512.8569 L570.6157,512.8569 L573.9609,525.25 L571.5122,525.25 L570.7485,522.187 L567.4697,522.187 L566.7227,525.25 L564.2739,525.25 Z "/><text fill="#000000" font-family="Monaco" font-size="12" lengthAdjust="spacingAndGlyphs" textLength="98" x="583" y="524.501">RelativeLayout</text><line style="stroke: #A80036; stroke-width: 1.5;" x1="555" x2="683" y1="535.5" y2="535.5"/><!--class LinearLayout--><rect fill="#FEFECE" filter="url(#f17te5z24on4bm)" height="40" id="LinearLayout" style="stroke: #A80036; stroke-width: 1.5;" width="116" x="856" y="503.5"/><ellipse cx="871" cy="519.5" fill="#008000" rx="11" ry="11" style="stroke: #A80036; stroke-width: 1.0;"/><path d="M871.1133,515.0981 L869.9595,520.1699 L872.2754,520.1699 Z M869.6191,512.8569 L872.6157,512.8569 L875.9609,525.25 L873.5122,525.25 L872.7485,522.187 L869.4697,522.187 L868.7227,525.25 L866.2739,525.25 Z "/><text fill="#000000" font-family="Monaco" font-size="12" lengthAdjust="spacingAndGlyphs" textLength="84" x="885" y="524.501">LinearLayout</text><line style="stroke: #A80036; stroke-width: 1.5;" x1="857" x2="971" y1="535.5" y2="535.5"/><!--class GridLayout--><rect fill="#FEFECE" filter="url(#f17te5z24on4bm)" height="40" id="GridLayout" style="stroke: #A80036; stroke-width: 1.5;" width="102" x="719" y="503.5"/><ellipse cx="734" cy="519.5" fill="#008000" rx="11" ry="11" style="stroke: #A80036; stroke-width: 1.0;"/><path d="M734.1133,515.0981 L732.9595,520.1699 L735.2754,520.1699 Z M732.6191,512.8569 L735.6157,512.8569 L738.9609,525.25 L736.5122,525.25 L735.7485,522.187 L732.4697,522.187 L731.7227,525.25 L729.2739,525.25 Z "/><text fill="#000000" font-family="Monaco" font-size="12" lengthAdjust="spacingAndGlyphs" textLength="70" x="748" y="524.501">GridLayout</text><line style="stroke: #A80036; stroke-width: 1.5;" x1="720" x2="820" y1="535.5" y2="535.5"/><!--class Activity--><rect fill="#FEFECE" filter="url(#f17te5z24on4bm)" height="54.6685" id="Activity" style="stroke: #A80036; stroke-width: 1.5;" width="124" x="248" y="611"/><ellipse cx="279.2" cy="627" fill="#008000" rx="11" ry="11" style="stroke: #A80036; stroke-width: 1.0;"/><path d="M279.3133,622.5981 L278.1595,627.6699 L280.4754,627.6699 Z M277.8191,620.3569 L280.8157,620.3569 L284.1609,632.75 L281.7122,632.75 L280.9485,629.687 L277.6697,629.687 L276.9227,632.75 L274.4739,632.75 Z "/><text fill="#000000" font-family="Monaco" font-size="12" font-style="italic" lengthAdjust="spacingAndGlyphs" textLength="56" x="296.8" y="632.001">Activity</text><line style="stroke: #A80036; stroke-width: 1.5;" x1="249" x2="371" y1="643" y2="643"/><text fill="#000000" font-family="Monaco" font-size="11" lengthAdjust="spacingAndGlyphs" textLength="112" x="254" y="658.9185">onCreate(Bundle)</text><!--class CRUDActivity--><rect fill="#FEFECE" filter="url(#f17te5z24on4bm)" height="40" id="CRUDActivity" style="stroke: #A80036; stroke-width: 1.5;" width="116" x="227" y="726"/><ellipse cx="242" cy="742" fill="#008000" rx="11" ry="11" style="stroke: #A80036; stroke-width: 1.0;"/><path d="M242.1133,737.5981 L240.9595,742.6699 L243.2754,742.6699 Z M240.6191,735.3569 L243.6157,735.3569 L246.9609,747.75 L244.5122,747.75 L243.7485,744.687 L240.4697,744.687 L239.7227,747.75 L237.2739,747.75 Z "/><text fill="#000000" font-family="Monaco" font-size="12" font-style="italic" lengthAdjust="spacingAndGlyphs" textLength="84" x="256" y="747.001">CRUDActivity</text><line style="stroke: #A80036; stroke-width: 1.5;" x1="228" x2="342" y1="758" y2="758"/><!--class DashboardActivity--><rect fill="#FEFECE" filter="url(#f17te5z24on4bm)" height="40" id="DashboardActivity" style="stroke: #A80036; stroke-width: 1.5;" width="151" x="378.5" y="726"/><ellipse cx="393.5" cy="742" fill="#008000" rx="11" ry="11" style="stroke: #A80036; stroke-width: 1.0;"/><path d="M393.6133,737.5981 L392.4595,742.6699 L394.7754,742.6699 Z M392.1191,735.3569 L395.1157,735.3569 L398.4609,747.75 L396.0122,747.75 L395.2485,744.687 L391.9697,744.687 L391.2227,747.75 L388.7739,747.75 Z "/><text fill="#000000" font-family="Monaco" font-size="12" lengthAdjust="spacingAndGlyphs" textLength="119" x="407.5" y="747.001">DashboardActivity</text><line style="stroke: #A80036; stroke-width: 1.5;" x1="379.5" x2="528.5" y1="758" y2="758"/><!--class Context--><rect fill="#FEFECE" filter="url(#f17te5z24on4bm)" height="54.6685" id="Context" style="stroke: #A80036; stroke-width: 1.5;" width="117" x="262.5" y="281"/><ellipse cx="293.7" cy="297" fill="#008000" rx="11" ry="11" style="stroke: #A80036; stroke-width: 1.0;"/><path d="M293.8133,292.5981 L292.6595,297.6699 L294.9754,297.6699 Z M292.3191,290.3569 L295.3157,290.3569 L298.6609,302.75 L296.2122,302.75 L295.4485,299.687 L292.1697,299.687 L291.4227,302.75 L288.9739,302.75 Z "/><text fill="#000000" font-family="Monaco" font-size="12" lengthAdjust="spacingAndGlyphs" textLength="49" x="311.3" y="302.001">Context</text><line style="stroke: #A80036; stroke-width: 1.5;" x1="263.5" x2="378.5" y1="313" y2="313"/><text fill="#000000" font-family="Monaco" font-size="11" lengthAdjust="spacingAndGlyphs" textLength="105" x="268.5" y="328.9185">startActivity()</text><!--class ContextWrapper--><rect fill="#FEFECE" filter="url(#f17te5z24on4bm)" height="40" id="ContextWrapper" style="stroke: #A80036; stroke-width: 1.5;" width="130" x="256" y="396"/><ellipse cx="271" cy="412" fill="#008000" rx="11" ry="11" style="stroke: #A80036; stroke-width: 1.0;"/><path d="M271.1133,407.5981 L269.9595,412.6699 L272.2754,412.6699 Z M269.6191,405.3569 L272.6157,405.3569 L275.9609,417.75 L273.5122,417.75 L272.7485,414.687 L269.4697,414.687 L268.7227,417.75 L266.2739,417.75 Z "/><text fill="#000000" font-family="Monaco" font-size="12" lengthAdjust="spacingAndGlyphs" textLength="98" x="285" y="417.001">ContextWrapper</text><line style="stroke: #A80036; stroke-width: 1.5;" x1="257" x2="385" y1="428" y2="428"/><!--class ContextThemeWrapper--><rect fill="#FEFECE" filter="url(#f17te5z24on4bm)" height="40" id="ContextThemeWrapper" style="stroke: #A80036; stroke-width: 1.5;" width="165" x="238.5" y="503.5"/><ellipse cx="253.5" cy="519.5" fill="#008000" rx="11" ry="11" style="stroke: #A80036; stroke-width: 1.0;"/><path d="M253.6133,515.0981 L252.4595,520.1699 L254.7754,520.1699 Z M252.1191,512.8569 L255.1157,512.8569 L258.4609,525.25 L256.0122,525.25 L255.2485,522.187 L251.9697,522.187 L251.2227,525.25 L248.7739,525.25 Z "/><text fill="#000000" font-family="Monaco" font-size="12" lengthAdjust="spacingAndGlyphs" textLength="133" x="267.5" y="524.501">ContextThemeWrapper</text><line style="stroke: #A80036; stroke-width: 1.5;" x1="239.5" x2="402.5" y1="535.5" y2="535.5"/><!--class Fragment--><rect fill="#FEFECE" filter="url(#f17te5z24on4bm)" height="40" id="Fragment" style="stroke: #A80036; stroke-width: 1.5;" width="88" x="424" y="288.5"/><ellipse cx="439" cy="304.5" fill="#008000" rx="11" ry="11" style="stroke: #A80036; stroke-width: 1.0;"/><path d="M439.1133,300.0981 L437.9595,305.1699 L440.2754,305.1699 Z M437.6191,297.8569 L440.6157,297.8569 L443.9609,310.25 L441.5122,310.25 L440.7485,307.187 L437.4697,307.187 L436.7227,310.25 L434.2739,310.25 Z "/><text fill="#000000" font-family="Monaco" font-size="12" font-style="italic" lengthAdjust="spacingAndGlyphs" textLength="56" x="453" y="309.501">Fragment</text><line style="stroke: #A80036; stroke-width: 1.5;" x1="425" x2="511" y1="320.5" y2="320.5"/><!--class Layout--><rect fill="#FEFECE" filter="url(#f17te5z24on4bm)" height="40" id="Layout" style="stroke: #A80036; stroke-width: 1.5;" width="74" x="465" y="145.5"/><ellipse cx="480" cy="161.5" fill="#FFFFFF" rx="11" ry="11" style="stroke: #A80036; stroke-width: 1.0;"/><path d="M485.0107,168 L482.479,168 L480.1133,163.8994 L477.7559,168 L475.2241,168 L478.8599,161.708 L475.3237,155.6069 L477.8555,155.6069 L480.1133,159.5498 L482.3794,155.6069 L484.9111,155.6069 L481.3916,161.708 Z "/><text fill="#000000" font-family="Monaco" font-size="12" lengthAdjust="spacingAndGlyphs" textLength="42" x="494" y="166.501">Layout</text><line style="stroke: #A80036; stroke-width: 1.5;" x1="466" x2="538" y1="177.5" y2="177.5"/><!--class String--><rect fill="#FEFECE" filter="url(#f17te5z24on4bm)" height="40" id="String" style="stroke: #A80036; stroke-width: 1.5;" width="102" x="451" y="45.5"/><ellipse cx="466" cy="61.5" fill="#008000" rx="11" ry="11" style="stroke: #A80036; stroke-width: 1.0;"/><path d="M471.0107,68 L468.479,68 L466.1133,63.8994 L463.7559,68 L461.2241,68 L464.8599,61.708 L461.3237,55.6069 L463.8555,55.6069 L466.1133,59.5498 L468.3794,55.6069 L470.9111,55.6069 L467.3916,61.708 Z "/><text fill="#000000" font-family="Monaco" font-size="12" lengthAdjust="spacingAndGlyphs" textLength="70" x="480" y="66.501">String.xml</text><line style="stroke: #A80036; stroke-width: 1.5;" x1="452" x2="552" y1="77.5" y2="77.5"/><!--class Application--><rect fill="#FEFECE" filter="url(#f17te5z24on4bm)" height="40" id="Application" style="stroke: #A80036; stroke-width: 1.5;" width="109" x="22.5" y="618.5"/><ellipse cx="37.5" cy="634.5" fill="#ADD1B2" rx="11" ry="11" style="stroke: #A80036; stroke-width: 1.0;"/><path d="M39.9731,640.6431 Q39.3921,640.9419 38.7529,641.0913 Q38.1138,641.2407 37.4082,641.2407 Q34.9014,641.2407 33.5815,639.5889 Q32.2617,637.937 32.2617,634.8159 Q32.2617,631.6865 33.5815,630.0347 Q34.9014,628.3828 37.4082,628.3828 Q38.1138,628.3828 38.7612,628.5322 Q39.4087,628.6816 39.9731,628.9805 L39.9731,631.7031 Q39.3423,631.1221 38.7488,630.8523 Q38.1553,630.5825 37.5244,630.5825 Q36.1797,630.5825 35.4949,631.6492 Q34.8101,632.7158 34.8101,634.8159 Q34.8101,636.9077 35.4949,637.9744 Q36.1797,639.041 37.5244,639.041 Q38.1553,639.041 38.7488,638.7712 Q39.3423,638.5015 39.9731,637.9204 Z "/><text fill="#000000" font-family="Monaco" font-size="12" lengthAdjust="spacingAndGlyphs" textLength="77" x="51.5" y="639.501">Application</text><line style="stroke: #A80036; stroke-width: 1.5;" x1="23.5" x2="130.5" y1="650.5" y2="650.5"/><!--class MyActivity--><rect fill="#FEFECE" filter="url(#f17te5z24on4bm)" height="40" id="MyActivity" style="stroke: #A80036; stroke-width: 1.5;" width="102" x="30" y="726"/><ellipse cx="45" cy="742" fill="#ADD1B2" rx="11" ry="11" style="stroke: #A80036; stroke-width: 1.0;"/><path d="M47.4731,748.1431 Q46.8921,748.4419 46.2529,748.5913 Q45.6138,748.7407 44.9082,748.7407 Q42.4014,748.7407 41.0815,747.0889 Q39.7617,745.437 39.7617,742.3159 Q39.7617,739.1865 41.0815,737.5347 Q42.4014,735.8828 44.9082,735.8828 Q45.6138,735.8828 46.2612,736.0322 Q46.9087,736.1816 47.4731,736.4805 L47.4731,739.2031 Q46.8423,738.6221 46.2488,738.3523 Q45.6553,738.0825 45.0244,738.0825 Q43.6797,738.0825 42.9949,739.1492 Q42.3101,740.2158 42.3101,742.3159 Q42.3101,744.4077 42.9949,745.4744 Q43.6797,746.541 45.0244,746.541 Q45.6553,746.541 46.2488,746.2712 Q46.8423,746.0015 47.4731,745.4204 Z "/><text fill="#000000" font-family="Monaco" font-size="12" lengthAdjust="spacingAndGlyphs" textLength="70" x="59" y="747.001">MyActivity</text><line style="stroke: #A80036; stroke-width: 1.5;" x1="31" x2="131" y1="758" y2="758"/><!--link v to vg--><path d="M818.6639,356.3769 C818.2761,370.2725 817.8735,384.698 817.5615,395.8786 " fill="none" id="v-vg" style="stroke: #A80036; stroke-width: 1.0;"/><polygon fill="none" points="811.6721,355.9808,819.2274,336.1839,825.6667,356.3714,811.6721,355.9808" style="stroke: #A80036; stroke-width: 1.0;"/><!--link v to spinner--><path d="M879.7416,333.7639 C942.6728,361.7564 1043.2367,410.4812 1121,467 C1135.6689,477.6615 1150.2818,491.9247 1161.1703,503.4527 " fill="none" id="v-spinner" style="stroke: #A80036; stroke-width: 1.0;"/><polygon fill="none" points="876.6027,340.031,861.0974,325.5884,882.225,327.2095,876.6027,340.031" style="stroke: #A80036; stroke-width: 1.0;"/><!--link tv to EditText--><path d="M1077.9767,569.0573 C1086.605,586.165 1095.9773,604.7482 1102.8536,618.3822 " fill="none" id="tv-EditText" style="stroke: #A80036; stroke-width: 1.0;"/><polygon fill="none" points="1071.6487,572.055,1068.8924,551.0454,1084.1489,565.7505,1071.6487,572.055" style="stroke: #A80036; stroke-width: 1.0;"/><!--link vg to RelativeLayout--><path d="M750.843,442.8976 C734.591,450.1674 717.4339,458.4166 702,467 C682.5004,477.8445 661.7504,491.9695 645.8753,503.3834 " fill="none" id="vg-RelativeLayout" style="stroke: #A80036; stroke-width: 1.0;"/><polygon fill="none" points="748.2157,436.407,769.3482,434.8521,753.7978,449.246,748.2157,436.407" style="stroke: #A80036; stroke-width: 1.0;"/><!--link vg to LinearLayout--><path d="M848.8726,451.3227 C864.4572,468.5943 882.6477,488.7539 895.8369,503.3707 " fill="none" id="vg-LinearLayout" style="stroke: #A80036; stroke-width: 1.0;"/><polygon fill="none" points="843.4463,455.7581,835.245,436.2199,853.8404,446.3792,843.4463,455.7581" style="stroke: #A80036; stroke-width: 1.0;"/><!--link vg to GridLayout--><path d="M800.0306,454.813 C792.8409,471.2576 784.7653,489.7284 778.8007,503.3707 " fill="none" id="vg-GridLayout" style="stroke: #A80036; stroke-width: 1.0;"/><polygon fill="none" points="793.7339,451.7409,808.1597,436.2199,806.5615,457.3492,793.7339,451.7409" style="stroke: #A80036; stroke-width: 1.0;"/><!--link Activity to CRUDActivity--><path d="M298.9798,685.8867 C295.7133,699.9326 292.3101,714.5664 289.6794,725.8786 " fill="none" id="Activity-CRUDActivity" style="stroke: #A80036; stroke-width: 1.0;"/><polygon fill="none" points="292.2135,684.0785,303.5619,666.1839,305.8496,687.2497,292.2135,684.0785" style="stroke: #A80036; stroke-width: 1.0;"/><!--link Activity to DashboardActivity--><path d="M363.4104,678.3723 C385.0806,694.5497 409.1626,712.5276 427.0467,725.8786 " fill="none" id="Activity-DashboardActivity" style="stroke: #A80036; stroke-width: 1.0;"/><polygon fill="none" points="358.9227,683.7577,347.0836,666.1839,367.2978,672.539,358.9227,683.7577" style="stroke: #A80036; stroke-width: 1.0;"/><!--link Context to ContextWrapper--><path d="M321,356.3769 C321,370.2725 321,384.698 321,395.8786 " fill="none" id="Context-ContextWrapper" style="stroke: #A80036; stroke-width: 1.0;"/><polygon fill="none" points="314.0001,356.184,321,336.1839,328.0001,356.1839,314.0001,356.184" style="stroke: #A80036; stroke-width: 1.0;"/><!--link ContextWrapper to ContextThemeWrapper--><path d="M321,456.4458 C321,472.4702 321,490.1781 321,503.3707 " fill="none" id="ContextWrapper-ContextThemeWrapper" style="stroke: #A80036; stroke-width: 1.0;"/><polygon fill="none" points="314.0001,456.22,321,436.2199,328.0001,456.2199,314.0001,456.22" style="stroke: #A80036; stroke-width: 1.0;"/><!--link ContextThemeWrapper to Activity--><path d="M317.1717,563.5228 C315.6739,579.1819 313.9933,596.752 312.6356,610.9455 " fill="none" id="ContextThemeWrapper-Activity" style="stroke: #A80036; stroke-width: 1.0;"/><polygon fill="none" points="310.2113,562.774,319.0839,543.5315,324.1477,564.1072,310.2113,562.774" style="stroke: #A80036; stroke-width: 1.0;"/><!--link Layout to v--><path d="M550.9771,187.5243 C613.4599,215.6219 720.4151,263.7181 778.8757,290.007 " fill="none" id="Layout-v" style="stroke: #A80036; stroke-width: 1.0;"/><polygon fill="#A80036" points="539.101,182.1838,542.9326,188.2927,550.0453,187.1054,546.2137,180.9965,539.101,182.1838" style="stroke: #A80036; stroke-width: 1.0;"/><!--link Application to MyActivity--><path d="M78.2358,671.7122 C78.72,684.7243 79.2745,699.6266 79.7591,712.6519 " fill="none" id="Application-MyActivity" style="stroke: #A80036; stroke-width: 1.0;"/><polygon fill="#A80036" points="80.251,725.8707,83.9136,716.7282,80.0651,720.8742,75.9191,717.0257,80.251,725.8707" style="stroke: #A80036; stroke-width: 1.0;"/><line style="stroke: #A80036; stroke-width: 1.0;" x1="80.0651" x2="79.7676" y1="720.8742" y2="712.8797"/><polygon fill="#A80036" points="77.7524,658.7199,73.9784,664.8645,78.1988,670.7116,81.9728,664.567,77.7524,658.7199" style="stroke: #A80036; stroke-width: 1.0;"/><!--link v to tv--><path d="M865.1241,349.7838 C912.1127,392.7733 984.3955,458.9044 1024.875,495.9389 " fill="none" id="v-tv" style="stroke: #A80036; stroke-width: 1.0;"/><polygon fill="none" points="860.2721,354.8323,850.241,336.1673,869.7223,344.503,860.2721,354.8323" style="stroke: #A80036; stroke-width: 1.0;"/><!--link tv to b--><path d="M1032.0233,569.0573 C1023.395,586.165 1014.0227,604.7482 1007.1464,618.3822 " fill="none" id="tv-b" style="stroke: #A80036; stroke-width: 1.0;"/><polygon fill="none" points="1025.8511,565.7505,1041.1076,551.0454,1038.3513,572.055,1025.8511,565.7505" style="stroke: #A80036; stroke-width: 1.0;"/><!--link Activity to Activity--><path d="M372.0391,618.6359 C391.5823,618.9392 407,625.5605 407,638.5 C407,650.2264 394.3376,656.7638 377.4175,658.1122 " fill="none" id="Activity-Activity" style="stroke: #A80036; stroke-width: 1.0;"/><polygon fill="#A80036" points="372.0391,658.3641,381.2164,661.9385,377.0336,658.1301,380.842,653.9473,372.0391,658.3641" style="stroke: #A80036; stroke-width: 1.0;"/><!--link Activity to MyActivity--><path d="M233.1125,674.5935 C196.5851,691.7406 154.3126,711.5847 123.6155,725.9949 " fill="none" id="Activity-MyActivity" style="stroke: #A80036; stroke-width: 1.0;"/><polygon fill="none" points="230.2451,668.2066,251.3242,666.0443,236.1943,680.8797,230.2451,668.2066" style="stroke: #A80036; stroke-width: 1.0;"/><!--link MyActivity to Layout--><path d="M103.0405,725.7367 C118.0813,710.7463 137.3236,689.0877 149,666.5 C179.096,608.2803 185,589.0386 185,523.5 C185,416 185,416 185,416 C185,319.9689 143.1794,269.4878 211,201.5 C228.2253,184.2322 382.7517,172.6426 459.3485,167.9072 " fill="none" id="MyActivity-Layout" style="stroke: #A80036; stroke-width: 1.0;"/><polygon fill="#A80036" points="464.7258,167.5781,455.4982,164.1356,459.7351,167.8837,455.9871,172.1206,464.7258,167.5781" style="stroke: #A80036; stroke-width: 1.0;"/><!--link String to Layout--><path d="M502,90.8019 C502,107.6824 502,129.5785 502,145.2936 " fill="none" id="String-Layout" style="stroke: #A80036; stroke-width: 1.0; stroke-dasharray: 7.0,7.0;"/><polygon fill="#A80036" points="502,85.7365,498,94.7365,502,90.7365,506,94.7365,502,85.7365" style="stroke: #A80036; stroke-width: 1.0;"/><text fill="#888888" font-family="Monaco" font-size="10" lengthAdjust="spacingAndGlyphs" textLength="222" x="520" y="810.835">CC BY-SA 3.0 - http://jmb.c.la - 2015</text><!--
@startuml
skinparam defaultFontName Monaco
skinparam package {
 	BackgroundColor LightGrey
}
center footer CC BY-SA 3.0 - http://jmb.c.la - 2015
hide members
show methods
package android #DDDDDD {
	package android.view {
		class "View" as v << (A,green)>> {
			setId(int)
		}
		class "ViewGroup" as vg << (A,green)>>
		v <|- - vg
	}
	package android.widget {
		class "TextView" as tv << (A,green)>> {
			setText(...)
		}
		class "Button" as b << (A,green)>>
		class "Spinner" as spinner << (A,green)>>
		v <|- - spinner
		class EditText << (A,green)>>
		tv <|- - EditText
		class RelativeLayout << (A,green)>>
		class LinearLayout << (A,green)>>
		class GridLayout << (A,green)>>
		vg <|- - RelativeLayout
		vg <|- - LinearLayout
		vg <|- - GridLayout

	}
	package android.app #DDDDDD {
		abstract class Activity << (A,green)>> {
			onCreate(Bundle)
		}
		abstract class CRUDActivity << (A,green)>>
		class DashboardActivity << (A,green)>>
		Activity <|- - CRUDActivity
		Activity <|- - DashboardActivity
		package fragment {
			abstract class Fragment << (A,green)>>
	  	}
		Class Context << (A,green)>> {
			startActivity()
		}
		Class ContextWrapper  << (A,green)>>
		Class ContextThemeWrapper  << (A,green)>>
		Context <|- - ContextWrapper
		ContextWrapper <|- - ContextThemeWrapper
		ContextThemeWrapper <|- - Activity
	}
}
package layout #DDDDDD {
	class Layout << (A,green)>>
	Layout *- - v
}
package Resources #DDDDDD {
  class "String.xml" as String << (X,green)>>
}
package com.MyCompany #FFFFF {
	Application *- -> MyActivity
}
v <|- - tv
tv <|- - b
class Layout << (X,white) >>
Activity - -> Activity
Activity <|- - MyActivity
MyActivity -> Layout
String  <.. Layout
@enduml

PlantUML version 1.2018.10(Sat Aug 25 19:02:59 CEST 2018)
(APACHE source distribution)
Java Runtime: Java(TM) SE Runtime Environment
JVM: Java HotSpot(TM) 64-Bit Server VM
Java Version: 1.8.0_152-b16
Operating System: Mac OS X
OS Version: 10.14.1
Default Encoding: UTF-8
Language: fr
Country: FR
--></g></svg>