<?xml version="1.0" encoding="UTF-8" standalone="yes"?><svg xmlns="http://www.w3.org/2000/svg" xmlns:xlink="http://www.w3.org/1999/xlink" height="468px" style="width:848px;height:468px;" version="1.1" viewBox="0 0 848 468" width="848px"><defs><filter height="300%" id="f1" width="300%" x="-1" y="-1"><feGaussianBlur result="blurOut" stdDeviation="2.0"/><feColorMatrix in="blurOut" result="blurOut2" type="matrix" values="0 0 0 0 0 0 0 0 0 0 0 0 0 0 0 0 0 0 .4 0"/><feOffset dx="4.0" dy="4.0" in="blurOut2" result="blurOut3"/><feBlend in="SourceGraphic" in2="blurOut3" mode="normal"/></filter></defs><g><polygon fill="#D3D3D3" filter="url(#f1)" points="366.5,24,460.5,24,467.5,48.6689,551.5,48.6689,551.5,103,366.5,103,366.5,24" style="stroke: #000000; stroke-width: 2.0;"/><line style="stroke: #000000; stroke-width: 2.0;" x1="366.5" x2="467.5" y1="48.6689" y2="48.6689"/><text fill="#000000" font-family="Monaco" font-size="14" font-weight="bold" lengthAdjust="spacingAndGlyphs" textLength="88" x="369.5" y="42.1689">android.app</text><polygon fill="#D3D3D3" filter="url(#f1)" points="255.5,241,381.5,241,388.5,265.6689,642.5,265.6689,642.5,320,255.5,320,255.5,241" style="stroke: #000000; stroke-width: 2.0;"/><line style="stroke: #000000; stroke-width: 2.0;" x1="255.5" x2="388.5" y1="265.6689" y2="265.6689"/><text fill="#000000" font-family="Monaco" font-size="14" font-weight="bold" lengthAdjust="spacingAndGlyphs" textLength="120" x="258.5" y="259.1689">android.content</text><rect fill="#FEFECE" filter="url(#f1)" height="26.002" style="stroke: #A80036; stroke-width: 1.5;" width="62" x="382.5" y="61"/><text fill="#000000" font-family="Monaco" font-size="12" lengthAdjust="spacingAndGlyphs" textLength="56" x="385.5" y="79.002">Activity</text><rect fill="#FEFECE" filter="url(#f1)" height="26.002" style="stroke: #A80036; stroke-width: 1.5;" width="55" x="480" y="61"/><text fill="#000000" font-family="Monaco" font-size="12" lengthAdjust="spacingAndGlyphs" textLength="49" x="483" y="79.002">Service</text><rect fill="#FEFECE" filter="url(#f1)" height="26.002" style="stroke: #A80036; stroke-width: 1.5;" width="111" x="515" y="278"/><text fill="#000000" font-family="Monaco" font-size="12" lengthAdjust="spacingAndGlyphs" textLength="105" x="518" y="296.002">ContentProvider</text><rect fill="#FEFECE" filter="url(#f1)" height="26.002" style="stroke: #A80036; stroke-width: 1.5;" width="125" x="355" y="278"/><text fill="#000000" font-family="Monaco" font-size="12" lengthAdjust="spacingAndGlyphs" textLength="119" x="358" y="296.002">BroadcastReceiver</text><rect fill="#FEFECE" filter="url(#f1)" height="26.002" style="stroke: #A80036; stroke-width: 1.5;" width="48" x="271.5" y="278"/><text fill="#000000" font-family="Monaco" font-size="12" lengthAdjust="spacingAndGlyphs" textLength="42" x="274.5" y="296.002">Intent</text><rect fill="#90EE90" filter="url(#f1)" height="26.002" style="stroke: #A80036; stroke-width: 1.5;" width="76" x="257.5" y="150"/><text fill="#000000" font-family="Monaco" font-size="12" lengthAdjust="spacingAndGlyphs" textLength="70" x="260.5" y="168.002">Activities</text><rect fill="#FEFECE" filter="url(#f1)" height="26.002" style="stroke: #A80036; stroke-width: 1.5;" width="83" x="254" y="61"/><text fill="#000000" font-family="Monaco" font-size="12" lengthAdjust="spacingAndGlyphs" textLength="77" x="257" y="79.002">Application</text><rect fill="#FEFECE" filter="url(#f1)" height="42.0039" style="stroke: #A80036; stroke-width: 1.5;" width="55" x="6" y="270"/><text fill="#000000" font-family="Monaco" font-size="12" lengthAdjust="spacingAndGlyphs" textLength="42" x="9" y="288.002">Single</text><text fill="#000000" font-family="Monaco" font-size="12" lengthAdjust="spacingAndGlyphs" textLength="42" x="12.5" y="304.0039">Screen</text><rect fill="#90EE90" filter="url(#f1)" height="26.002" style="stroke: #A80036; stroke-width: 1.5;" width="62" x="506.5" y="150"/><text fill="#000000" font-family="Monaco" font-size="12" lengthAdjust="spacingAndGlyphs" textLength="56" x="509.5" y="168.002">Services</text><rect fill="#90EE90" filter="url(#f1)" height="42.0039" style="stroke: #A80036; stroke-width: 1.5;" width="69" x="675" y="391"/><text fill="#000000" font-family="Monaco" font-size="12" lengthAdjust="spacingAndGlyphs" textLength="49" x="681.5" y="409.002">Content</text><text fill="#000000" font-family="Monaco" font-size="12" lengthAdjust="spacingAndGlyphs" textLength="63" x="678" y="425.0039">Providers</text><rect fill="#FEFECE" filter="url(#f1)" height="42.0039" style="stroke: #A80036; stroke-width: 1.5;" width="97" x="661" y="270"/><text fill="#000000" font-family="Monaco" font-size="12" font-style="italic" lengthAdjust="spacingAndGlyphs" textLength="84" x="664" y="288.002">Standard Set</text><text fill="#000000" font-family="Monaco" font-size="12" font-style="italic" lengthAdjust="spacingAndGlyphs" textLength="49" x="685" y="304.0039">of APIs</text><rect fill="#90EE90" filter="url(#f1)" height="42.0039" style="stroke: #A80036; stroke-width: 1.5;" width="76" x="257.5" y="391"/><text fill="#000000" font-family="Monaco" font-size="12" lengthAdjust="spacingAndGlyphs" textLength="63" x="260.5" y="409.002">Broadcast</text><text fill="#000000" font-family="Monaco" font-size="12" lengthAdjust="spacingAndGlyphs" textLength="56" x="267.5" y="425.0039">Receiver</text><path d="M380.89,99.043 C358.583,115.49 329.936,136.611 312.148,149.725 " fill="none" style="stroke: #A80036; stroke-width: 1.0;"/><polygon fill="none" points="376.841,93.331,397.093,87.097,385.149,104.6,376.841,93.331" style="stroke: #A80036; stroke-width: 1.0;"/><path d="M295.5,100.52 C295.5,111.923 295.5,125.326 295.5,136.702 " fill="none" style="stroke: #A80036; stroke-width: 1.0;"/><polygon fill="#A80036" points="295.5,149.725,299.5,140.725,295.5,144.725,291.5,140.725,295.5,149.725" style="stroke: #A80036; stroke-width: 1.0;"/><line style="stroke: #A80036; stroke-width: 1.0;" x1="295.5" x2="295.5" y1="144.725" y2="136.725"/><polygon fill="#A80036" points="295.5,87.097,291.5,93.097,295.5,99.097,299.5,93.097,295.5,87.097" style="stroke: #A80036; stroke-width: 1.0;"/><text fill="#000000" font-family="Monaco" font-size="13" lengthAdjust="spacingAndGlyphs" textLength="32" x="257.6" y="138.8424">1..*</text><path d="M257.471,164.225 C191.291,165.513 59.2377,172.349 30.5,206 C16.9004,221.925 19.4908,246.392 24.3933,264.82 " fill="none" style="stroke: #A80036; stroke-width: 1.0;"/><polygon fill="#A80036" points="25.8259,269.846,27.204,260.094,24.4545,265.0377,19.5108,262.2882,25.8259,269.846" style="stroke: #A80036; stroke-width: 1.0;"/><text fill="#000000" font-family="Monaco" font-size="13" lengthAdjust="spacingAndGlyphs" textLength="80" x="31.5" y="221.0854">represents</text><path d="M518.23,106.118 C523.428,121.191 529.372,138.429 533.267,149.725 " fill="none" style="stroke: #A80036; stroke-width: 1.0;"/><polygon fill="none" points="511.574,108.286,511.671,87.097,524.809,103.722,511.574,108.286" style="stroke: #A80036; stroke-width: 1.0;"/><path d="M333.579,163 C381.231,163 461.943,163 506.185,163 " fill="none" style="stroke: #A80036; stroke-width: 1.0;"/><text fill="#000000" font-family="Monaco" font-size="13" lengthAdjust="spacingAndGlyphs" textLength="136" x="352" y="156.0854">can interact with</text><path d="M599.926,317.192 C625.536,339.1175 662.175,370.4848 685.903,390.798 " fill="none" style="stroke: #A80036; stroke-width: 1.0;"/><polygon fill="none" points="595.233,322.39,584.593,304.065,604.338,311.755,595.233,322.39" style="stroke: #A80036; stroke-width: 1.0;"/><path d="M709.5,332.493 C709.5,352.1016 709.5,374.7871 709.5,390.7142 " fill="none" style="stroke: #A80036; stroke-width: 1.0; stroke-dasharray: 7.0,7.0;"/><polygon fill="none" points="702.5,332.187,709.5,312.187,716.5,332.187,702.5,332.187" style="stroke: #A80036; stroke-width: 1.0;"/><path d="M412.87,323.88 C409.707,336.5737 404.399,350.6029 395.5,361 C379.471,379.7282 354.735,392.1799 333.876,399.9735 " fill="none" style="stroke: #A80036; stroke-width: 1.0;"/><polygon fill="none" points="406.003,322.517,416.491,304.105,419.775,325.038,406.003,322.517" style="stroke: #A80036; stroke-width: 1.0;"/><path d="M295.5,176.081 C295.5,198.508 295.5,246.648 295.5,272.589 " fill="none" style="stroke: #A80036; stroke-width: 1.0;"/><polygon fill="#A80036" points="295.5,277.77,299.5,268.77,295.5,272.77,291.5,268.77,295.5,277.77" style="stroke: #A80036; stroke-width: 1.0;"/><text fill="#000000" font-family="Monaco" font-size="13" lengthAdjust="spacingAndGlyphs" textLength="96" x="296.5" y="221.0854">activated by</text><path d="M516.11,176.011 C489.935,190.131 443.862,213.139 401.5,225 C373.896,232.729 362.232,218.507 337.5,233 C321.821,242.188 310.243,259.774 303.26,272.994 " fill="none" style="stroke: #A80036; stroke-width: 1.0;"/><polygon fill="#A80036" points="300.895,277.644,308.5391,271.4337,303.1607,273.1868,301.4076,267.8085,300.895,277.644" style="stroke: #A80036; stroke-width: 1.0;"/><text fill="#000000" font-family="Monaco" font-size="13" lengthAdjust="spacingAndGlyphs" textLength="96" x="452.5" y="221.0854">activated by</text><path d="M294.523,309.425 C293.855,323.374 293.149,343.441 293.5,361 C293.694,370.7281 294.102,381.5144 294.498,390.571 " fill="none" style="stroke: #A80036; stroke-width: 1.0;"/><polygon fill="#A80036" points="294.785,304.213,290.3375,313.0005,294.5336,309.2067,298.3274,313.4027,294.785,304.213" style="stroke: #A80036; stroke-width: 1.0;"/><text fill="#000000" font-family="Monaco" font-size="13" lengthAdjust="spacingAndGlyphs" textLength="96" x="294.5" y="357.0854">activated by</text><path d="M333.621,166.647 C442.1,174.565 746.555,199.596 775.5,233 C803.15,264.909 789.417,288.137 775.5,328 C767.556,350.7532 750.479,371.9395 735.686,387.2119 " fill="none" style="stroke: #A80036; stroke-width: 1.0;"/><polygon fill="#A80036" points="731.981,390.9647,741.151,387.3715,735.4942,387.407,735.4587,381.7503,731.981,390.9647" style="stroke: #A80036; stroke-width: 1.0;"/><text fill="#000000" font-family="Monaco" font-size="13" lengthAdjust="spacingAndGlyphs" textLength="56" x="791.5" y="296.5854">can use</text><path d="M257.243,171.505 C224.425,180.184 179.116,198.024 157.5,233 C135.302,268.916 136.717,291.247 157.5,328 C177.7,363.7211 220.103,385.7657 252.608,398.0739 " fill="none" style="stroke: #A80036; stroke-width: 1.0;"/><polygon fill="#A80036" points="257.328,399.8197,250.2742,392.9462,252.6384,398.0854,247.4993,400.4495,257.328,399.8197" style="stroke: #A80036; stroke-width: 1.0;"/><text fill="#000000" font-family="Monaco" font-size="13" lengthAdjust="spacingAndGlyphs" textLength="96" x="158.5" y="296.5854">can initiate</text><text fill="#888888" font-family="Monaco" font-size="10" lengthAdjust="spacingAndGlyphs" textLength="438" x="211.5" y="453.835">For more: http://developer.android.com/guide/components/fundamentals.html</text><text fill="#888888" font-family="Monaco" font-size="10" lengthAdjust="spacingAndGlyphs" textLength="222" x="322.5" y="467.1699">CC BY-SA 3.0 - http://jmb.c.la - 2015</text></g></svg>