<?xml version="1.0" encoding="UTF-8" standalone="no"?><svg xmlns="http://www.w3.org/2000/svg" xmlns:xlink="http://www.w3.org/1999/xlink" contentScriptType="application/ecmascript" contentStyleType="text/css" height="480px" preserveAspectRatio="none" style="width:859px;height:480px;" version="1.1" viewBox="0 0 859 480" width="859px" zoomAndPan="magnify"><defs><filter height="300%" id="fkzn5wxwi2nwb" width="300%" x="-1" y="-1"><feGaussianBlur result="blurOut" stdDeviation="2.0"/><feColorMatrix in="blurOut" result="blurOut2" type="matrix" values="0 0 0 0 0 0 0 0 0 0 0 0 0 0 0 0 0 0 .4 0"/><feOffset dx="4.0" dy="4.0" in="blurOut2" result="blurOut3"/><feBlend in="SourceGraphic" in2="blurOut3" mode="normal"/></filter></defs><g><!--MD5=[6b5de916a6164d178ea2b5081d300c77]
cluster android.app--><polygon fill="#D3D3D3" filter="url(#fkzn5wxwi2nwb)" points="376.5,24,470.5,24,477.5,48.6689,561.5,48.6689,561.5,103,376.5,103,376.5,24" style="stroke: #000000; stroke-width: 1.5;"/><line style="stroke: #000000; stroke-width: 1.5;" x1="376.5" x2="477.5" y1="48.6689" y2="48.6689"/><text fill="#000000" font-family="Monaco" font-size="14" font-weight="bold" lengthAdjust="spacingAndGlyphs" textLength="88" x="380.5" y="41.1689">android.app</text><!--MD5=[59cbe5613c4b1168525eb1a57df57b4a]
cluster android.content--><polygon fill="#D3D3D3" filter="url(#fkzn5wxwi2nwb)" points="255.5,241,381.5,241,388.5,265.6689,642.5,265.6689,642.5,320,255.5,320,255.5,241" style="stroke: #000000; stroke-width: 1.5;"/><line style="stroke: #000000; stroke-width: 1.5;" x1="255.5" x2="388.5" y1="265.6689" y2="265.6689"/><text fill="#000000" font-family="Monaco" font-size="14" font-weight="bold" lengthAdjust="spacingAndGlyphs" textLength="120" x="259.5" y="258.1689">android.content</text><!--MD5=[ebe82eb04b1f5f8f36b6b73d5af4a409]
class android.app.Activity--><rect fill="#FEFECE" filter="url(#fkzn5wxwi2nwb)" height="26.002" id="android.app.Activity" style="stroke: #A80036; stroke-width: 1.5;" width="62" x="392.5" y="61"/><text fill="#000000" font-family="Monaco" font-size="12" lengthAdjust="spacingAndGlyphs" textLength="56" x="395.5" y="79.002">Activity</text><!--MD5=[6b7538499f0a4cad506977e619eab7b3]
class android.app.Service--><rect fill="#FEFECE" filter="url(#fkzn5wxwi2nwb)" height="26.002" id="android.app.Service" style="stroke: #A80036; stroke-width: 1.5;" width="55" x="490" y="61"/><text fill="#000000" font-family="Monaco" font-size="12" lengthAdjust="spacingAndGlyphs" textLength="49" x="493" y="79.002">Service</text><!--MD5=[9e77a9bf92de64742a1d93955f2c9c8a]
class android.content.ContentProvider--><rect fill="#FEFECE" filter="url(#fkzn5wxwi2nwb)" height="26.002" id="android.content.ContentProvider" style="stroke: #A80036; stroke-width: 1.5;" width="111" x="515" y="278"/><text fill="#000000" font-family="Monaco" font-size="12" lengthAdjust="spacingAndGlyphs" textLength="105" x="518" y="296.002">ContentProvider</text><!--MD5=[153c5f7e19387446fea9823b9798821f]
class android.content.BroadcastReceiver--><rect fill="#FEFECE" filter="url(#fkzn5wxwi2nwb)" height="26.002" id="android.content.BroadcastReceiver" style="stroke: #A80036; stroke-width: 1.5;" width="125" x="355" y="278"/><text fill="#000000" font-family="Monaco" font-size="12" lengthAdjust="spacingAndGlyphs" textLength="119" x="358" y="296.002">BroadcastReceiver</text><!--MD5=[11bbc82dbe25b7dfdcbaa2f9927d2c38]
class android.content.Intent--><rect fill="#FEFECE" filter="url(#fkzn5wxwi2nwb)" height="26.002" id="android.content.Intent" style="stroke: #A80036; stroke-width: 1.5;" width="48" x="271.5" y="278"/><text fill="#000000" font-family="Monaco" font-size="12" lengthAdjust="spacingAndGlyphs" textLength="42" x="274.5" y="296.002">Intent</text><!--MD5=[a369faf6373d890c6ba8a9ef2654171b]
class Activities--><rect fill="#90EE90" filter="url(#fkzn5wxwi2nwb)" height="26.002" id="Activities" style="stroke: #A80036; stroke-width: 1.5;" width="76" x="257.5" y="150"/><text fill="#000000" font-family="Monaco" font-size="12" lengthAdjust="spacingAndGlyphs" textLength="70" x="260.5" y="168.002">Activities</text><!--MD5=[0b4e4b4980470ea387cc45de9bd14b5b]
class Application--><rect fill="#FEFECE" filter="url(#fkzn5wxwi2nwb)" height="26.002" id="Application" style="stroke: #A80036; stroke-width: 1.5;" width="83" x="254" y="61"/><text fill="#000000" font-family="Monaco" font-size="12" lengthAdjust="spacingAndGlyphs" textLength="77" x="257" y="79.002">Application</text><!--MD5=[f3bb6a0badfb335b403fa9876e289bf4]
class screen--><rect fill="#FEFECE" filter="url(#fkzn5wxwi2nwb)" height="42.0039" id="screen" style="stroke: #A80036; stroke-width: 1.5;" width="55" x="6" y="270"/><text fill="#000000" font-family="Monaco" font-size="12" lengthAdjust="spacingAndGlyphs" textLength="42" x="9" y="288.002">Single</text><text fill="#000000" font-family="Monaco" font-size="12" lengthAdjust="spacingAndGlyphs" textLength="42" x="12.5" y="304.0039">Screen</text><!--MD5=[eb3b6380e8f904013ef4f64be44cb6d0]
class Services--><rect fill="#90EE90" filter="url(#fkzn5wxwi2nwb)" height="26.002" id="Services" style="stroke: #A80036; stroke-width: 1.5;" width="62" x="506.5" y="150"/><text fill="#000000" font-family="Monaco" font-size="12" lengthAdjust="spacingAndGlyphs" textLength="56" x="509.5" y="168.002">Services</text><!--MD5=[76e459d46047ab2fc8454f11fa061786]
class cp--><rect fill="#90EE90" filter="url(#fkzn5wxwi2nwb)" height="42.0039" id="cp" style="stroke: #A80036; stroke-width: 1.5;" width="69" x="675" y="391"/><text fill="#000000" font-family="Monaco" font-size="12" lengthAdjust="spacingAndGlyphs" textLength="49" x="681.5" y="409.002">Content</text><text fill="#000000" font-family="Monaco" font-size="12" lengthAdjust="spacingAndGlyphs" textLength="63" x="678" y="425.0039">Providers</text><!--MD5=[1e281070be324fe4119de6bf55ec0dae]
class api--><rect fill="#FEFECE" filter="url(#fkzn5wxwi2nwb)" height="42.0039" id="api" style="stroke: #A80036; stroke-width: 1.5;" width="97" x="661" y="270"/><text fill="#000000" font-family="Monaco" font-size="12" font-style="italic" lengthAdjust="spacingAndGlyphs" textLength="84" x="664" y="288.002">Standard Set</text><text fill="#000000" font-family="Monaco" font-size="12" font-style="italic" lengthAdjust="spacingAndGlyphs" textLength="49" x="685" y="304.0039">of APIs</text><!--MD5=[40b2705e726e547bd3b73baa71472eea]
class broad--><rect fill="#90EE90" filter="url(#fkzn5wxwi2nwb)" height="42.0039" id="broad" style="stroke: #A80036; stroke-width: 1.5;" width="76" x="257.5" y="391"/><text fill="#000000" font-family="Monaco" font-size="12" lengthAdjust="spacingAndGlyphs" textLength="63" x="260.5" y="409.002">Broadcast</text><text fill="#000000" font-family="Monaco" font-size="12" lengthAdjust="spacingAndGlyphs" textLength="56" x="267.5" y="425.0039">Receiver</text><!--MD5=[e2ead05a08d14f08348a871eb24fb1b5]
reverse link android.app.Activity to Activities--><path d="M388.84,98.56 C364.55,115.07 333.05,136.48 313.56,149.73 " fill="none" id="android.app.Activity&lt;-Activities" style="stroke: #A80036; stroke-width: 1.0;"/><polygon fill="none" points="385.23,92.55,405.7,87.1,393.1,104.13,385.23,92.55" style="stroke: #A80036; stroke-width: 1.0;"/><!--MD5=[f7c53cb7438377c8bffa1b61d08340a4]
link Application to Activities--><path d="M295.5,99.1 C295.5,99.1 295.5,125.33 295.5,136.7 " fill="none" id="Application-Activities" style="stroke: #A80036; stroke-width: 1.0;"/><polygon fill="#A80036" points="295.5,149.73,299.5,140.73,295.5,144.73,291.5,140.73,295.5,149.73" style="stroke: #A80036; stroke-width: 1.0;"/><line style="stroke: #A80036; stroke-width: 1.0;" x1="295.5" x2="295.5" y1="144.73" y2="136.73"/><polygon fill="#A80036" points="295.5,87.1,291.5,93.1,295.5,99.1,299.5,93.1,295.5,87.1" style="stroke: #A80036; stroke-width: 1.0;"/><text fill="#000000" font-family="Monaco" font-size="13" lengthAdjust="spacingAndGlyphs" textLength="32" x="257.6" y="138.8493">1..*</text><!--MD5=[1d06160ac24b28b96a64b25ff617aa65]
link Activities to screen--><path d="M257.47,164.23 C191.29,165.51 59.24,172.35 30.5,206 C16.9,221.92 19.49,246.39 24.39,264.82 " fill="none" id="Activities-&gt;screen" style="stroke: #A80036; stroke-width: 1.0;"/><polygon fill="#A80036" points="25.83,269.85,27.2113,260.0985,24.4602,265.0413,19.5173,262.2902,25.83,269.85" style="stroke: #A80036; stroke-width: 1.0;"/><text fill="#000000" font-family="Monaco" font-size="13" lengthAdjust="spacingAndGlyphs" textLength="80" x="31.5" y="221.0854">represents</text><!--MD5=[06403a57601337d2f56ac1aeb3768172]
reverse link android.app.Service to Services--><path d="M524.77,106.64 C528.21,121.59 532.11,138.56 534.68,149.73 " fill="none" id="android.app.Service&lt;-Services" style="stroke: #A80036; stroke-width: 1.0;"/><polygon fill="none" points="517.94,108.16,520.28,87.1,531.58,105.02,517.94,108.16" style="stroke: #A80036; stroke-width: 1.0;"/><!--MD5=[5ba4dc29150a5889ea9f4c728f5bb087]
link Activities to Services--><path d="M333.58,163 C381.23,163 461.94,163 506.19,163 " fill="none" id="Activities-Services" style="stroke: #A80036; stroke-width: 1.0;"/><text fill="#000000" font-family="Monaco" font-size="13" lengthAdjust="spacingAndGlyphs" textLength="136" x="352" y="156.0854">can interact with</text><!--MD5=[75a899935c4621add926f31e1cbccc93]
reverse link android.content.ContentProvider to cp--><path d="M599.93,317.19 C625.54,339.12 662.18,370.48 685.9,390.8 " fill="none" id="android.content.ContentProvider&lt;-cp" style="stroke: #A80036; stroke-width: 1.0;"/><polygon fill="none" points="595.23,322.39,584.59,304.07,604.34,311.75,595.23,322.39" style="stroke: #A80036; stroke-width: 1.0;"/><!--MD5=[8903ab41833d05824ee6f5a5515d9d47]
reverse link api to cp--><path d="M709.5,332.49 C709.5,352.1 709.5,374.79 709.5,390.71 " fill="none" id="api&lt;-cp" style="stroke: #A80036; stroke-width: 1.0; stroke-dasharray: 7.0,7.0;"/><polygon fill="none" points="702.5,332.19,709.5,312.19,716.5,332.19,702.5,332.19" style="stroke: #A80036; stroke-width: 1.0;"/><!--MD5=[14852913aacd48bc91e4cfae5d24640a]
reverse link android.content.BroadcastReceiver to broad--><path d="M412.87,323.88 C409.71,336.57 404.4,350.6 395.5,361 C379.47,379.73 354.73,392.18 333.88,399.97 " fill="none" id="android.content.BroadcastReceiver&lt;-broad" style="stroke: #A80036; stroke-width: 1.0;"/><polygon fill="none" points="406,322.52,416.49,304.1,419.77,325.04,406,322.52" style="stroke: #A80036; stroke-width: 1.0;"/><!--MD5=[058257249f6c1b62e9b51c6952baf2be]
link Activities to android.content.Intent--><path d="M295.5,176.08 C295.5,198.51 295.5,246.65 295.5,272.59 " fill="none" id="Activities-&gt;android.content.Intent" style="stroke: #A80036; stroke-width: 1.0;"/><polygon fill="#A80036" points="295.5,277.77,299.5,268.77,295.5,272.77,291.5,268.77,295.5,277.77" style="stroke: #A80036; stroke-width: 1.0;"/><text fill="#000000" font-family="Monaco" font-size="13" lengthAdjust="spacingAndGlyphs" textLength="96" x="296.5" y="221.0854">activated by</text><!--MD5=[129496b894e7ff852f3ef83d65aa306b]
link Services to android.content.Intent--><path d="M516.11,176.01 C489.94,190.13 443.86,213.14 401.5,225 C373.9,232.73 362.23,218.51 337.5,233 C321.82,242.19 310.24,259.77 303.26,272.99 " fill="none" id="Services-&gt;android.content.Intent" style="stroke: #A80036; stroke-width: 1.0;"/><polygon fill="#A80036" points="300.9,277.64,308.5504,271.4374,303.1703,273.1851,301.4226,267.805,300.9,277.64" style="stroke: #A80036; stroke-width: 1.0;"/><text fill="#000000" font-family="Monaco" font-size="13" lengthAdjust="spacingAndGlyphs" textLength="96" x="452.5" y="221.0854">activated by</text><!--MD5=[eaa7f428f48c25b8ccca8803f4fe25cc]
reverse link android.content.Intent to broad--><path d="M294.52,309.42 C293.86,323.37 293.15,343.44 293.5,361 C293.69,370.73 294.1,381.51 294.5,390.57 " fill="none" id="android.content.Intent&lt;-broad" style="stroke: #A80036; stroke-width: 1.0;"/><polygon fill="#A80036" points="294.78,304.21,290.3469,313.0047,294.5367,309.2041,298.3374,313.394,294.78,304.21" style="stroke: #A80036; stroke-width: 1.0;"/><text fill="#000000" font-family="Monaco" font-size="13" lengthAdjust="spacingAndGlyphs" textLength="96" x="294.5" y="357.0854">activated by</text><!--MD5=[53102887d22a8097945c6eb14ccc26a6]
link Activities to cp--><path d="M333.62,166.65 C442.1,174.56 746.55,199.6 775.5,233 C803.15,264.91 789.42,288.14 775.5,328 C767.56,350.75 750.48,371.94 735.69,387.21 " fill="none" id="Activities-&gt;cp" style="stroke: #A80036; stroke-width: 1.0;"/><polygon fill="#A80036" points="731.98,390.96,741.1508,387.3688,735.494,387.4031,735.4598,381.7464,731.98,390.96" style="stroke: #A80036; stroke-width: 1.0;"/><text fill="#000000" font-family="Monaco" font-size="13" lengthAdjust="spacingAndGlyphs" textLength="56" x="791.5" y="296.5854">can use</text><!--MD5=[c4ad581a295e9fb1e7ec1276a12db42d]
link Activities to broad--><path d="M257.24,171.51 C224.43,180.18 179.12,198.02 157.5,233 C135.3,268.92 136.72,291.25 157.5,328 C177.7,363.72 220.1,385.77 252.61,398.07 " fill="none" id="Activities-&gt;broad" style="stroke: #A80036; stroke-width: 1.0;"/><polygon fill="#A80036" points="257.33,399.82,250.2822,392.9404,252.6419,398.0816,247.5008,400.4413,257.33,399.82" style="stroke: #A80036; stroke-width: 1.0;"/><text fill="#000000" font-family="Monaco" font-size="13" lengthAdjust="spacingAndGlyphs" textLength="96" x="158.5" y="296.5854">can initiate</text><text fill="#888888" font-family="Monaco" font-size="10" lengthAdjust="spacingAndGlyphs" textLength="438" x="211.5" y="453.835">For more: http://developer.android.com/guide/components/fundamentals.html</text><text fill="#888888" font-family="Monaco" font-size="10" lengthAdjust="spacingAndGlyphs" textLength="222" x="322.5" y="467.1699">CC BY-SA 3.0 - http://jmb.c.la - 2015</text><!--MD5=[fefe3fe609fda863b2a3411f89688c0c]
@startuml
skinparam defaultFontName Monaco
skinparam package {
 	BackgroundColor LightGrey
}
skinparam ClassBackgroundColor<<MAIN>> LightGreen
center footer For more: http://developer.android.com/guide/components/fundamentals.html \nCC BY-SA 3.0 - http://jmb.c.la - 2015

hide members
hide stereotypes
hide circle
class Activities  <<MAIN>>
android.app.Activity <|- - Activities
Application *- -> "1..*" Activities

class "Single \nScreen" as screen
Activities - -> screen : represents

class Services <<MAIN>>
android.app.Service <|- - Services
Activities - Services : can interact with

class "Content \nProviders" as cp <<MAIN>>
android.content.ContentProvider <|- - cp
Interface "Standard Set \nof APIs" as api
api <|.. cp

class "Broadcast \nReceiver" as broad <<MAIN>>
android.content.BroadcastReceiver <|- - broad

Activities -> android.content.Intent : activated by
Services - -> android.content.Intent : activated by
android.content.Intent <- - broad : activated by

Activities - -> cp : can use
Activities - -> broad : can initiate

@enduml

PlantUML version 1.2019.12(Sun Nov 03 11:24:54 CET 2019)
(APACHE source distribution)
Java Runtime: Java(TM) SE Runtime Environment
JVM: Java HotSpot(TM) 64-Bit Server VM
Java Version: 15+36-1562
Operating System: Mac OS X
Default Encoding: UTF-8
Language: fr
Country: FR
--></g></svg>