<?xml version="1.0" encoding="UTF-8" standalone="yes"?><svg xmlns="http://www.w3.org/2000/svg" xmlns:xlink="http://www.w3.org/1999/xlink" height="957px" style="width:1347px;height:957px;" version="1.1" viewBox="0 0 1347 957" width="1347px"><defs><filter height="300%" id="f1" width="300%" x="-1" y="-1"><feGaussianBlur result="blurOut" stdDeviation="2.0"/><feColorMatrix in="blurOut" result="blurOut2" type="matrix" values="0 0 0 0 0 0 0 0 0 0 0 0 0 0 0 0 0 0 .4 0"/><feOffset dx="4.0" dy="4.0" in="blurOut2" result="blurOut3"/><feBlend in="SourceGraphic" in2="blurOut3" mode="normal"/></filter></defs><g><polygon fill="#DDDDDD" filter="url(#f1)" points="235,258.5,297,258.5,304,283.1689,1340,283.1689,1340,920,235,920,235,258.5" style="stroke: #000000; stroke-width: 2.0;"/><line style="stroke: #000000; stroke-width: 2.0;" x1="235" x2="304" y1="283.1689" y2="283.1689"/><text fill="#000000" font-family="Monaco" font-size="14" font-weight="bold" lengthAdjust="spacingAndGlyphs" textLength="56" x="238" y="276.6689">android</text><polygon fill="#D3D3D3" filter="url(#f1)" points="833,341,935,341,942,365.6689,961,365.6689,961,549,833,549,833,341" style="stroke: #000000; stroke-width: 2.0;"/><line style="stroke: #000000; stroke-width: 2.0;" x1="833" x2="942" y1="365.6689" y2="365.6689"/><text fill="#000000" font-family="Monaco" font-size="14" font-weight="bold" lengthAdjust="spacingAndGlyphs" textLength="96" x="836" y="359.1689">android.view</text><polygon fill="#D3D3D3" filter="url(#f1)" points="618,573,736,573,743,597.6689,1316,597.6689,1316,788.5,618,788.5,618,573" style="stroke: #000000; stroke-width: 2.0;"/><line style="stroke: #000000; stroke-width: 2.0;" x1="618" x2="743" y1="597.6689" y2="597.6689"/><text fill="#000000" font-family="Monaco" font-size="14" font-weight="bold" lengthAdjust="spacingAndGlyphs" textLength="112" x="621" y="591.1689">android.widget</text><polygon fill="#DDDDDD" filter="url(#f1)" points="259,303.5,353,303.5,360,328.1689,594,328.1689,594,896,259,896,259,303.5" style="stroke: #000000; stroke-width: 2.0;"/><line style="stroke: #000000; stroke-width: 2.0;" x1="259" x2="360" y1="328.1689" y2="328.1689"/><text fill="#000000" font-family="Monaco" font-size="14" font-weight="bold" lengthAdjust="spacingAndGlyphs" textLength="88" x="262" y="321.6689">android.app</text><polygon fill="#D3D3D3" filter="url(#f1)" points="443,348.5,513,348.5,520,373.1689,563,373.1689,563,441.5,443,441.5,443,348.5" style="stroke: #000000; stroke-width: 2.0;"/><line style="stroke: #000000; stroke-width: 2.0;" x1="443" x2="520" y1="373.1689" y2="373.1689"/><text fill="#000000" font-family="Monaco" font-size="14" font-weight="bold" lengthAdjust="spacingAndGlyphs" textLength="64" x="446" y="366.6689">fragment</text><polygon fill="#DDDDDD" filter="url(#f1)" points="497,141.5,551,141.5,558,166.1689,603,166.1689,603,234.5,497,234.5,497,141.5" style="stroke: #000000; stroke-width: 2.0;"/><line style="stroke: #000000; stroke-width: 2.0;" x1="497" x2="558" y1="166.1689" y2="166.1689"/><text fill="#000000" font-family="Monaco" font-size="14" font-weight="bold" lengthAdjust="spacingAndGlyphs" textLength="48" x="500" y="159.6689">layout</text><polygon fill="#DDDDDD" filter="url(#f1)" points="483,24.5,561,24.5,568,49.1689,617,49.1689,617,117.5,483,117.5,483,24.5" style="stroke: #000000; stroke-width: 2.0;"/><line style="stroke: #000000; stroke-width: 2.0;" x1="483" x2="568" y1="49.1689" y2="49.1689"/><text fill="#000000" font-family="Monaco" font-size="14" font-weight="bold" lengthAdjust="spacingAndGlyphs" textLength="72" x="486" y="42.6689">Resources</text><polygon fill="#FFFFFF" filter="url(#f1)" points="22,695.5,132,695.5,139,720.1689,164,720.1689,164,896,22,896,22,695.5" style="stroke: #000000; stroke-width: 2.0;"/><line style="stroke: #000000; stroke-width: 2.0;" x1="22" x2="139" y1="720.1689" y2="720.1689"/><text fill="#000000" font-family="Monaco" font-size="14" font-weight="bold" lengthAdjust="spacingAndGlyphs" textLength="104" x="25" y="713.6689">com.MyCompany</text><rect fill="#FEFECE" filter="url(#f1)" height="54.6685" style="stroke: #A80036; stroke-width: 1.5;" width="82" x="859" y="378"/><ellipse cx="883.9" cy="394" fill="#008000" rx="11" ry="11" style="stroke: #A80036; stroke-width: 1.0;"/><path d="M883.7633,389.3481 L882.6095,394.4199 L884.9254,394.4199 Z M882.2691,387.1069 L885.2657,387.1069 L888.6109,399.5 L886.1622,399.5 L885.3985,396.437 L882.1197,396.437 L881.3727,399.5 L878.9239,399.5 Z "/><text fill="#000000" font-family="Monaco" font-size="12" lengthAdjust="spacingAndGlyphs" textLength="28" x="900.1" y="399.001">View</text><line style="stroke: #A80036; stroke-width: 1.5;" x1="860" x2="940" y1="410" y2="410"/><text fill="#000000" font-family="Monaco" font-size="11" lengthAdjust="spacingAndGlyphs" textLength="70" x="865" y="425.9185">setId(int)</text><rect fill="#FEFECE" filter="url(#f1)" height="40" style="stroke: #A80036; stroke-width: 1.5;" width="95" x="849.5" y="493"/><ellipse cx="864.5" cy="509" fill="#008000" rx="11" ry="11" style="stroke: #A80036; stroke-width: 1.0;"/><path d="M864.3633,504.3481 L863.2095,509.4199 L865.5254,509.4199 Z M862.8691,502.1069 L865.8657,502.1069 L869.2109,514.5 L866.7622,514.5 L865.9985,511.437 L862.7197,511.437 L861.9727,514.5 L859.5239,514.5 Z "/><text fill="#000000" font-family="Monaco" font-size="12" lengthAdjust="spacingAndGlyphs" textLength="63" x="878.5" y="514.001">ViewGroup</text><line style="stroke: #A80036; stroke-width: 1.5;" x1="850.5" x2="943.5" y1="525" y2="525"/><rect fill="#FEFECE" filter="url(#f1)" height="54.6685" style="stroke: #A80036; stroke-width: 1.5;" width="96" x="1087" y="610"/><ellipse cx="1105.6" cy="626" fill="#008000" rx="11" ry="11" style="stroke: #A80036; stroke-width: 1.0;"/><path d="M1105.4633,621.3481 L1104.3095,626.4199 L1106.6254,626.4199 Z M1103.9691,619.1069 L1106.9657,619.1069 L1110.3109,631.5 L1107.8622,631.5 L1107.0985,628.437 L1103.8197,628.437 L1103.0727,631.5 L1100.6239,631.5 Z "/><text fill="#000000" font-family="Monaco" font-size="12" lengthAdjust="spacingAndGlyphs" textLength="56" x="1120.4" y="631.001">TextView</text><line style="stroke: #A80036; stroke-width: 1.5;" x1="1088" x2="1182" y1="642" y2="642"/><text fill="#000000" font-family="Monaco" font-size="11" lengthAdjust="spacingAndGlyphs" textLength="84" x="1093" y="657.9185">setText(...)</text><rect fill="#FEFECE" filter="url(#f1)" height="40" style="stroke: #A80036; stroke-width: 1.5;" width="74" x="1040" y="732.5"/><ellipse cx="1055" cy="748.5" fill="#008000" rx="11" ry="11" style="stroke: #A80036; stroke-width: 1.0;"/><path d="M1054.8633,743.8481 L1053.7095,748.9199 L1056.0254,748.9199 Z M1053.3691,741.6069 L1056.3657,741.6069 L1059.7109,754 L1057.2622,754 L1056.4985,750.937 L1053.2197,750.937 L1052.4727,754 L1050.0239,754 Z "/><text fill="#000000" font-family="Monaco" font-size="12" lengthAdjust="spacingAndGlyphs" textLength="42" x="1069" y="753.501">Button</text><line style="stroke: #A80036; stroke-width: 1.5;" x1="1041" x2="1113" y1="764.5" y2="764.5"/><rect fill="#FEFECE" filter="url(#f1)" height="40" style="stroke: #A80036; stroke-width: 1.5;" width="81" x="1218.5" y="617.5"/><ellipse cx="1233.5" cy="633.5" fill="#008000" rx="11" ry="11" style="stroke: #A80036; stroke-width: 1.0;"/><path d="M1233.3633,628.8481 L1232.2095,633.9199 L1234.5254,633.9199 Z M1231.8691,626.6069 L1234.8657,626.6069 L1238.2109,639 L1235.7622,639 L1234.9985,635.937 L1231.7197,635.937 L1230.9727,639 L1228.5239,639 Z "/><text fill="#000000" font-family="Monaco" font-size="12" lengthAdjust="spacingAndGlyphs" textLength="49" x="1247.5" y="638.501">Spinner</text><line style="stroke: #A80036; stroke-width: 1.5;" x1="1219.5" x2="1298.5" y1="649.5" y2="649.5"/><rect fill="#FEFECE" filter="url(#f1)" height="40" style="stroke: #A80036; stroke-width: 1.5;" width="88" x="1149" y="732.5"/><ellipse cx="1164" cy="748.5" fill="#008000" rx="11" ry="11" style="stroke: #A80036; stroke-width: 1.0;"/><path d="M1163.8633,743.8481 L1162.7095,748.9199 L1165.0254,748.9199 Z M1162.3691,741.6069 L1165.3657,741.6069 L1168.7109,754 L1166.2622,754 L1165.4985,750.937 L1162.2197,750.937 L1161.4727,754 L1159.0239,754 Z "/><text fill="#000000" font-family="Monaco" font-size="12" lengthAdjust="spacingAndGlyphs" textLength="56" x="1178" y="753.501">EditText</text><line style="stroke: #A80036; stroke-width: 1.5;" x1="1150" x2="1236" y1="764.5" y2="764.5"/><rect fill="#FEFECE" filter="url(#f1)" height="40" style="stroke: #A80036; stroke-width: 1.5;" width="130" x="634" y="617.5"/><ellipse cx="649" cy="633.5" fill="#008000" rx="11" ry="11" style="stroke: #A80036; stroke-width: 1.0;"/><path d="M648.8633,628.8481 L647.7095,633.9199 L650.0254,633.9199 Z M647.3691,626.6069 L650.3657,626.6069 L653.7109,639 L651.2622,639 L650.4985,635.937 L647.2197,635.937 L646.4727,639 L644.0239,639 Z "/><text fill="#000000" font-family="Monaco" font-size="12" lengthAdjust="spacingAndGlyphs" textLength="98" x="663" y="638.501">RelativeLayout</text><line style="stroke: #A80036; stroke-width: 1.5;" x1="635" x2="763" y1="649.5" y2="649.5"/><rect fill="#FEFECE" filter="url(#f1)" height="40" style="stroke: #A80036; stroke-width: 1.5;" width="116" x="936" y="617.5"/><ellipse cx="951" cy="633.5" fill="#008000" rx="11" ry="11" style="stroke: #A80036; stroke-width: 1.0;"/><path d="M950.8633,628.8481 L949.7095,633.9199 L952.0254,633.9199 Z M949.3691,626.6069 L952.3657,626.6069 L955.7109,639 L953.2622,639 L952.4985,635.937 L949.2197,635.937 L948.4727,639 L946.0239,639 Z "/><text fill="#000000" font-family="Monaco" font-size="12" lengthAdjust="spacingAndGlyphs" textLength="84" x="965" y="638.501">LinearLayout</text><line style="stroke: #A80036; stroke-width: 1.5;" x1="937" x2="1051" y1="649.5" y2="649.5"/><rect fill="#FEFECE" filter="url(#f1)" height="40" style="stroke: #A80036; stroke-width: 1.5;" width="102" x="799" y="617.5"/><ellipse cx="814" cy="633.5" fill="#008000" rx="11" ry="11" style="stroke: #A80036; stroke-width: 1.0;"/><path d="M813.8633,628.8481 L812.7095,633.9199 L815.0254,633.9199 Z M812.3691,626.6069 L815.3657,626.6069 L818.7109,639 L816.2622,639 L815.4985,635.937 L812.2197,635.937 L811.4727,639 L809.0239,639 Z "/><text fill="#000000" font-family="Monaco" font-size="12" lengthAdjust="spacingAndGlyphs" textLength="70" x="828" y="638.501">GridLayout</text><line style="stroke: #A80036; stroke-width: 1.5;" x1="800" x2="900" y1="649.5" y2="649.5"/><rect fill="#FEFECE" filter="url(#f1)" height="54.6685" style="stroke: #A80036; stroke-width: 1.5;" width="124" x="285" y="725"/><ellipse cx="316.2" cy="741" fill="#008000" rx="11" ry="11" style="stroke: #A80036; stroke-width: 1.0;"/><path d="M316.0633,736.3481 L314.9095,741.4199 L317.2254,741.4199 Z M314.5691,734.1069 L317.5657,734.1069 L320.9109,746.5 L318.4622,746.5 L317.6985,743.437 L314.4197,743.437 L313.6727,746.5 L311.2239,746.5 Z "/><text fill="#000000" font-family="Monaco" font-size="12" font-style="italic" lengthAdjust="spacingAndGlyphs" textLength="56" x="333.8" y="746.001">Activity</text><line style="stroke: #A80036; stroke-width: 1.5;" x1="286" x2="408" y1="757" y2="757"/><text fill="#000000" font-family="Monaco" font-size="11" lengthAdjust="spacingAndGlyphs" textLength="112" x="291" y="772.9185">onCreate(Bundle)</text><rect fill="#FEFECE" filter="url(#f1)" height="40" style="stroke: #A80036; stroke-width: 1.5;" width="116" x="275" y="840"/><ellipse cx="290" cy="856" fill="#008000" rx="11" ry="11" style="stroke: #A80036; stroke-width: 1.0;"/><path d="M289.8633,851.3481 L288.7095,856.4199 L291.0254,856.4199 Z M288.3691,849.1069 L291.3657,849.1069 L294.7109,861.5 L292.2622,861.5 L291.4985,858.437 L288.2197,858.437 L287.4727,861.5 L285.0239,861.5 Z "/><text fill="#000000" font-family="Monaco" font-size="12" font-style="italic" lengthAdjust="spacingAndGlyphs" textLength="84" x="304" y="861.001">CRUDActivity</text><line style="stroke: #A80036; stroke-width: 1.5;" x1="276" x2="390" y1="872" y2="872"/><rect fill="#FEFECE" filter="url(#f1)" height="40" style="stroke: #A80036; stroke-width: 1.5;" width="151" x="426.5" y="840"/><ellipse cx="441.5" cy="856" fill="#008000" rx="11" ry="11" style="stroke: #A80036; stroke-width: 1.0;"/><path d="M441.3633,851.3481 L440.2095,856.4199 L442.5254,856.4199 Z M439.8691,849.1069 L442.8657,849.1069 L446.2109,861.5 L443.7622,861.5 L442.9985,858.437 L439.7197,858.437 L438.9727,861.5 L436.5239,861.5 Z "/><text fill="#000000" font-family="Monaco" font-size="12" lengthAdjust="spacingAndGlyphs" textLength="119" x="455.5" y="861.001">DashboardActivity</text><line style="stroke: #A80036; stroke-width: 1.5;" x1="427.5" x2="576.5" y1="872" y2="872"/><rect fill="#FEFECE" filter="url(#f1)" height="54.6685" style="stroke: #A80036; stroke-width: 1.5;" width="117" x="299.5" y="378"/><ellipse cx="330.7" cy="394" fill="#008000" rx="11" ry="11" style="stroke: #A80036; stroke-width: 1.0;"/><path d="M330.5633,389.3481 L329.4095,394.4199 L331.7254,394.4199 Z M329.0691,387.1069 L332.0657,387.1069 L335.4109,399.5 L332.9622,399.5 L332.1985,396.437 L328.9197,396.437 L328.1727,399.5 L325.7239,399.5 Z "/><text fill="#000000" font-family="Monaco" font-size="12" lengthAdjust="spacingAndGlyphs" textLength="49" x="348.3" y="399.001">Context</text><line style="stroke: #A80036; stroke-width: 1.5;" x1="300.5" x2="415.5" y1="410" y2="410"/><text fill="#000000" font-family="Monaco" font-size="11" lengthAdjust="spacingAndGlyphs" textLength="105" x="305.5" y="425.9185">startActivity()</text><rect fill="#FEFECE" filter="url(#f1)" height="40" style="stroke: #A80036; stroke-width: 1.5;" width="130" x="293" y="493"/><ellipse cx="308" cy="509" fill="#008000" rx="11" ry="11" style="stroke: #A80036; stroke-width: 1.0;"/><path d="M307.8633,504.3481 L306.7095,509.4199 L309.0254,509.4199 Z M306.3691,502.1069 L309.3657,502.1069 L312.7109,514.5 L310.2622,514.5 L309.4985,511.437 L306.2197,511.437 L305.4727,514.5 L303.0239,514.5 Z "/><text fill="#000000" font-family="Monaco" font-size="12" lengthAdjust="spacingAndGlyphs" textLength="98" x="322" y="514.001">ContextWrapper</text><line style="stroke: #A80036; stroke-width: 1.5;" x1="294" x2="422" y1="525" y2="525"/><rect fill="#FEFECE" filter="url(#f1)" height="40" style="stroke: #A80036; stroke-width: 1.5;" width="165" x="275.5" y="617.5"/><ellipse cx="290.5" cy="633.5" fill="#008000" rx="11" ry="11" style="stroke: #A80036; stroke-width: 1.0;"/><path d="M290.3633,628.8481 L289.2095,633.9199 L291.5254,633.9199 Z M288.8691,626.6069 L291.8657,626.6069 L295.2109,639 L292.7622,639 L291.9985,635.937 L288.7197,635.937 L287.9727,639 L285.5239,639 Z "/><text fill="#000000" font-family="Monaco" font-size="12" lengthAdjust="spacingAndGlyphs" textLength="133" x="304.5" y="638.501">ContextThemeWrapper</text><line style="stroke: #A80036; stroke-width: 1.5;" x1="276.5" x2="439.5" y1="649.5" y2="649.5"/><rect fill="#FEFECE" filter="url(#f1)" height="40" style="stroke: #A80036; stroke-width: 1.5;" width="88" x="459" y="385.5"/><ellipse cx="474" cy="401.5" fill="#008000" rx="11" ry="11" style="stroke: #A80036; stroke-width: 1.0;"/><path d="M473.8633,396.8481 L472.7095,401.9199 L475.0254,401.9199 Z M472.3691,394.6069 L475.3657,394.6069 L478.7109,407 L476.2622,407 L475.4985,403.937 L472.2197,403.937 L471.4727,407 L469.0239,407 Z "/><text fill="#000000" font-family="Monaco" font-size="12" font-style="italic" lengthAdjust="spacingAndGlyphs" textLength="56" x="488" y="406.501">Fragment</text><line style="stroke: #A80036; stroke-width: 1.5;" x1="460" x2="546" y1="417.5" y2="417.5"/><rect fill="#FEFECE" filter="url(#f1)" height="40" style="stroke: #A80036; stroke-width: 1.5;" width="74" x="513" y="178.5"/><ellipse cx="528" cy="194.5" fill="#FFFFFF" rx="11" ry="11" style="stroke: #A80036; stroke-width: 1.0;"/><path d="M532.5107,201 L529.979,201 L527.6133,196.8994 L525.2559,201 L522.7241,201 L526.3599,194.708 L522.8237,188.6069 L525.3555,188.6069 L527.6133,192.5498 L529.8794,188.6069 L532.4111,188.6069 L528.8916,194.708 Z "/><text fill="#000000" font-family="Monaco" font-size="12" lengthAdjust="spacingAndGlyphs" textLength="42" x="542" y="199.501">Layout</text><line style="stroke: #A80036; stroke-width: 1.5;" x1="514" x2="586" y1="210.5" y2="210.5"/><rect fill="#FEFECE" filter="url(#f1)" height="40" style="stroke: #A80036; stroke-width: 1.5;" width="102" x="499" y="61.5"/><ellipse cx="514" cy="77.5" fill="#008000" rx="11" ry="11" style="stroke: #A80036; stroke-width: 1.0;"/><path d="M518.5107,84 L515.979,84 L513.6133,79.8994 L511.2559,84 L508.7241,84 L512.3599,77.708 L508.8237,71.6069 L511.3555,71.6069 L513.6133,75.5498 L515.8794,71.6069 L518.4111,71.6069 L514.8916,77.708 Z "/><text fill="#000000" font-family="Monaco" font-size="12" lengthAdjust="spacingAndGlyphs" textLength="70" x="528" y="82.501">String.xml</text><line style="stroke: #A80036; stroke-width: 1.5;" x1="500" x2="600" y1="93.5" y2="93.5"/><rect fill="#FEFECE" filter="url(#f1)" height="40" style="stroke: #A80036; stroke-width: 1.5;" width="109" x="38.5" y="732.5"/><ellipse cx="53.5" cy="748.5" fill="#ADD1B2" rx="11" ry="11" style="stroke: #A80036; stroke-width: 1.0;"/><path d="M55.9731,754.6431 Q55.3921,754.9419 54.7529,755.0913 Q54.1138,755.2407 53.4082,755.2407 Q50.9014,755.2407 49.5815,753.5889 Q48.2617,751.937 48.2617,748.8159 Q48.2617,745.6865 49.5815,744.0347 Q50.9014,742.3828 53.4082,742.3828 Q54.1138,742.3828 54.7612,742.5322 Q55.4087,742.6816 55.9731,742.9805 L55.9731,745.7031 Q55.3423,745.1221 54.7488,744.8523 Q54.1553,744.5825 53.5244,744.5825 Q52.1797,744.5825 51.4949,745.6492 Q50.8101,746.7158 50.8101,748.8159 Q50.8101,750.9077 51.4949,751.9744 Q52.1797,753.041 53.5244,753.041 Q54.1553,753.041 54.7488,752.7712 Q55.3423,752.5015 55.9731,751.9204 Z "/><text fill="#000000" font-family="Monaco" font-size="12" lengthAdjust="spacingAndGlyphs" textLength="77" x="67.5" y="753.501">Application</text><line style="stroke: #A80036; stroke-width: 1.5;" x1="39.5" x2="146.5" y1="764.5" y2="764.5"/><rect fill="#FEFECE" filter="url(#f1)" height="40" style="stroke: #A80036; stroke-width: 1.5;" width="102" x="46" y="840"/><ellipse cx="61" cy="856" fill="#ADD1B2" rx="11" ry="11" style="stroke: #A80036; stroke-width: 1.0;"/><path d="M63.4731,862.1431 Q62.8921,862.4419 62.2529,862.5913 Q61.6138,862.7407 60.9082,862.7407 Q58.4014,862.7407 57.0815,861.0889 Q55.7617,859.437 55.7617,856.3159 Q55.7617,853.1865 57.0815,851.5347 Q58.4014,849.8828 60.9082,849.8828 Q61.6138,849.8828 62.2612,850.0322 Q62.9087,850.1816 63.4731,850.4805 L63.4731,853.2031 Q62.8423,852.6221 62.2488,852.3523 Q61.6553,852.0825 61.0244,852.0825 Q59.6797,852.0825 58.9949,853.1492 Q58.3101,854.2158 58.3101,856.3159 Q58.3101,858.4077 58.9949,859.4744 Q59.6797,860.541 61.0244,860.541 Q61.6553,860.541 62.2488,860.2712 Q62.8423,860.0015 63.4731,859.4204 Z "/><text fill="#000000" font-family="Monaco" font-size="12" lengthAdjust="spacingAndGlyphs" textLength="70" x="75" y="861.001">MyActivity</text><line style="stroke: #A80036; stroke-width: 1.5;" x1="47" x2="147" y1="872" y2="872"/><path d="M898.67,453.27 C898.27,467.16 897.86,481.62 897.55,492.71 " fill="none" style="stroke: #A80036; stroke-width: 1.0;"/><polygon fill="none" points="891.68,452.92,899.24,433.12,905.67,453.31,891.68,452.92" style="stroke: #A80036; stroke-width: 1.0;"/><path d="M959.63,429.38 C1023.61,455.78 1126.1,503.56 1201,565 C1219.41,580.1 1236.04,601.85 1246.72,617.38 " fill="none" style="stroke: #A80036; stroke-width: 1.0;"/><polygon fill="none" points="957,435.87,941.09,421.88,962.25,422.89,957,435.87" style="stroke: #A80036; stroke-width: 1.0;"/><path d="M1157.96,683.23 C1166.72,700.31 1176.26,718.88 1183.16,732.34 " fill="none" style="stroke: #A80036; stroke-width: 1.0;"/><polygon fill="none" points="1151.65,686.27,1148.75,665.28,1164.11,679.88,1151.65,686.27" style="stroke: #A80036; stroke-width: 1.0;"/><path d="M830.82,539.37 C814.38,546.74 797.14,555.42 782,565 C758.05,580.16 733.87,601.89 717.83,617.41 " fill="none" style="stroke: #A80036; stroke-width: 1.0;"/><polygon fill="none" points="828.1,532.93,849.24,531.49,833.61,545.8,828.1,532.93" style="stroke: #A80036; stroke-width: 1.0;"/><path d="M924.82,549.14 C942.44,571.39 964.54,599.29 978.95,617.49 " fill="none" style="stroke: #A80036; stroke-width: 1.0;"/><polygon fill="none" points="919.08,553.17,912.16,533.14,930.06,544.47,919.08,553.17" style="stroke: #A80036; stroke-width: 1.0;"/><path d="M882.37,552.13 C874.04,573.84 863.97,600.1 857.29,617.49 " fill="none" style="stroke: #A80036; stroke-width: 1.0;"/><polygon fill="none" points="875.96,549.31,889.66,533.14,889.03,554.32,875.96,549.31" style="stroke: #A80036; stroke-width: 1.0;"/><path d="M340.79,800.27 C338.95,814.16 337.03,828.62 335.56,839.71 " fill="none" style="stroke: #A80036; stroke-width: 1.0;"/><polygon fill="none" points="333.9,799.03,343.47,780.12,347.78,800.87,333.9,799.03" style="stroke: #A80036; stroke-width: 1.0;"/><path d="M402.91,791.56 C426.91,807.89 453.91,826.27 473.66,839.71 " fill="none" style="stroke: #A80036; stroke-width: 1.0;"/><polygon fill="none" points="398.71,797.16,386.11,780.12,406.59,785.59,398.71,797.16" style="stroke: #A80036; stroke-width: 1.0;"/><path d="M358,453.27 C358,467.16 358,481.62 358,492.71 " fill="none" style="stroke: #A80036; stroke-width: 1.0;"/><polygon fill="none" points="351,453.12,358,433.12,365,453.12,351,453.12" style="stroke: #A80036; stroke-width: 1.0;"/><path d="M358,553.48 C358,574.92 358,600.46 358,617.49 " fill="none" style="stroke: #A80036; stroke-width: 1.0;"/><polygon fill="none" points="351,553.14,358,533.14,365,553.14,351,553.14" style="stroke: #A80036; stroke-width: 1.0;"/><path d="M354.18,677.72 C352.68,693.2 350.98,710.59 349.62,724.6 " fill="none" style="stroke: #A80036; stroke-width: 1.0;"/><polygon fill="none" points="347.23,676.9,356.13,657.67,361.16,678.25,347.23,676.9" style="stroke: #A80036; stroke-width: 1.0;"/><path d="M594.21,225.39 C662.43,265.35 792.42,341.49 858.78,380.36 " fill="none" style="stroke: #A80036; stroke-width: 1.0;"/><polygon fill="#A80036" points="582.61,218.6,585.7644,225.0846,592.9634,224.6669,589.809,218.1823,582.61,218.6" style="stroke: #A80036; stroke-width: 1.0;"/><path d="M94.23,786.03 C94.72,798.96 95.29,813.8 95.78,826.71 " fill="none" style="stroke: #A80036; stroke-width: 1.0;"/><polygon fill="#A80036" points="96.27,839.77,99.9312,830.6269,96.0833,834.7735,91.9368,830.9256,96.27,839.77" style="stroke: #A80036; stroke-width: 1.0;"/><line style="stroke: #A80036; stroke-width: 1.0;" x1="96.0833" x2="95.78" y1="834.7735" y2="826.78"/><polygon fill="#A80036" points="93.73,772.85,89.9571,778.9953,94.1785,784.8416,97.9515,778.6963,93.73,772.85" style="stroke: #A80036; stroke-width: 1.0;"/><path d="M945.11,446.69 C979.93,478.16 1028.94,523.42 1070,565 C1084.26,579.44 1099.56,596.21 1111.74,609.87 " fill="none" style="stroke: #A80036; stroke-width: 1.0;"/><polygon fill="none" points="940.37,451.85,930.19,433.26,949.74,441.44,940.37,451.85" style="stroke: #A80036; stroke-width: 1.0;"/><path d="M1112.04,683.23 C1103.28,700.31 1093.74,718.88 1086.84,732.34 " fill="none" style="stroke: #A80036; stroke-width: 1.0;"/><polygon fill="none" points="1105.89,679.88,1121.25,665.28,1118.35,686.27,1105.89,679.88" style="stroke: #A80036; stroke-width: 1.0;"/><path d="M409.04,732.64 C428.58,732.94 444,739.56 444,752.5 C444,764.23 431.34,770.76 414.42,772.11 " fill="none" style="stroke: #A80036; stroke-width: 1.0;"/><polygon fill="#A80036" points="409.04,772.36,418.2235,775.9187,414.0341,772.1174,417.8353,767.9281,409.04,772.36" style="stroke: #A80036; stroke-width: 1.0;"/><path d="M266.3,787.56 C225.21,804.9 176.79,825.33 142.28,839.89 " fill="none" style="stroke: #A80036; stroke-width: 1.0;"/><polygon fill="none" points="263.73,781.04,284.88,779.71,269.18,793.94,263.73,781.04" style="stroke: #A80036; stroke-width: 1.0;"/><path d="M124.98,839.73 C139.02,828.65 155.1,813.56 165,796.5 C201.15,734.21 201,710.52 201,638.5 C201,512 201,512 201,512 C201,392.95 172.96,332.77 259,250.5 C294.03,217.01 435.9,205.17 507.79,201.27 " fill="none" style="stroke: #A80036; stroke-width: 1.0;"/><polygon fill="#A80036" points="512.85,201,503.6459,197.4952,507.8574,201.2718,504.0808,205.4833,512.85,201" style="stroke: #A80036; stroke-width: 1.0;"/><path d="M550,106.94 C550,128.21 550,158.6 550,178.19 " fill="none" style="stroke: #A80036; stroke-width: 1.0; stroke-dasharray: 7.0,7.0;"/><polygon fill="#A80036" points="550,101.75,546,110.75,550,106.75,554,110.75,550,101.75" style="stroke: #A80036; stroke-width: 1.0;"/><text fill="#888888" font-family="Monaco" font-size="10" lengthAdjust="spacingAndGlyphs" textLength="222" x="576" y="956.835">CC BY-SA 3.0 - http://jmb.c.la - 2015</text></g></svg>