<?xml version="1.0" encoding="UTF-8" standalone="yes"?><svg xmlns="http://www.w3.org/2000/svg" xmlns:xlink="http://www.w3.org/1999/xlink" height="957px" style="width:1347px;height:957px;" version="1.1" viewBox="0 0 1347 957" width="1347px"><defs><filter height="300%" id="f1" width="300%" x="-1" y="-1"><feGaussianBlur result="blurOut" stdDeviation="2.0"/><feColorMatrix in="blurOut" result="blurOut2" type="matrix" values="0 0 0 0 0 0 0 0 0 0 0 0 0 0 0 0 0 0 .4 0"/><feOffset dx="4.0" dy="4.0" in="blurOut2" result="blurOut3"/><feBlend in="SourceGraphic" in2="blurOut3" mode="normal"/></filter></defs><g><polygon fill="#DDDDDD" filter="url(#f1)" points="235,258.5,297,258.5,304,283.1689,1340,283.1689,1340,920,235,920,235,258.5" style="stroke: #000000; stroke-width: 2.0;"/><line style="stroke: #000000; stroke-width: 2.0;" x1="235" x2="304" y1="283.1689" y2="283.1689"/><text fill="#000000" font-family="Monaco" font-size="14" font-weight="bold" lengthAdjust="spacingAndGlyphs" textLength="56" x="238" y="276.6689">android</text><polygon fill="#D3D3D3" filter="url(#f1)" points="833,341,935,341,942,365.6689,961,365.6689,961,549,833,549,833,341" style="stroke: #000000; stroke-width: 2.0;"/><line style="stroke: #000000; stroke-width: 2.0;" x1="833" x2="942" y1="365.6689" y2="365.6689"/><text fill="#000000" font-family="Monaco" font-size="14" font-weight="bold" lengthAdjust="spacingAndGlyphs" textLength="96" x="836" y="359.1689">android.view</text><polygon fill="#D3D3D3" filter="url(#f1)" points="618,573,736,573,743,597.6689,1316,597.6689,1316,788.5,618,788.5,618,573" style="stroke: #000000; stroke-width: 2.0;"/><line style="stroke: #000000; stroke-width: 2.0;" x1="618" x2="743" y1="597.6689" y2="597.6689"/><text fill="#000000" font-family="Monaco" font-size="14" font-weight="bold" lengthAdjust="spacingAndGlyphs" textLength="112" x="621" y="591.1689">android.widget</text><polygon fill="#DDDDDD" filter="url(#f1)" points="259,303.5,353,303.5,360,328.1689,594,328.1689,594,896,259,896,259,303.5" style="stroke: #000000; stroke-width: 2.0;"/><line style="stroke: #000000; stroke-width: 2.0;" x1="259" x2="360" y1="328.1689" y2="328.1689"/><text fill="#000000" font-family="Monaco" font-size="14" font-weight="bold" lengthAdjust="spacingAndGlyphs" textLength="88" x="262" y="321.6689">android.app</text><polygon fill="#D3D3D3" filter="url(#f1)" points="443,348.5,513,348.5,520,373.1689,563,373.1689,563,441.5,443,441.5,443,348.5" style="stroke: #000000; stroke-width: 2.0;"/><line style="stroke: #000000; stroke-width: 2.0;" x1="443" x2="520" y1="373.1689" y2="373.1689"/><text fill="#000000" font-family="Monaco" font-size="14" font-weight="bold" lengthAdjust="spacingAndGlyphs" textLength="64" x="446" y="366.6689">fragment</text><polygon fill="#DDDDDD" filter="url(#f1)" points="497,141.5,551,141.5,558,166.1689,603,166.1689,603,234.5,497,234.5,497,141.5" style="stroke: #000000; stroke-width: 2.0;"/><line style="stroke: #000000; stroke-width: 2.0;" x1="497" x2="558" y1="166.1689" y2="166.1689"/><text fill="#000000" font-family="Monaco" font-size="14" font-weight="bold" lengthAdjust="spacingAndGlyphs" textLength="48" x="500" y="159.6689">layout</text><polygon fill="#DDDDDD" filter="url(#f1)" points="483,24.5,561,24.5,568,49.1689,617,49.1689,617,117.5,483,117.5,483,24.5" style="stroke: #000000; stroke-width: 2.0;"/><line style="stroke: #000000; stroke-width: 2.0;" x1="483" x2="568" y1="49.1689" y2="49.1689"/><text fill="#000000" font-family="Monaco" font-size="14" font-weight="bold" lengthAdjust="spacingAndGlyphs" textLength="72" x="486" y="42.6689">Resources</text><polygon fill="#FFFFFF" filter="url(#f1)" points="22,695.5,132,695.5,139,720.1689,164,720.1689,164,896,22,896,22,695.5" style="stroke: #000000; stroke-width: 2.0;"/><line style="stroke: #000000; stroke-width: 2.0;" x1="22" x2="139" y1="720.1689" y2="720.1689"/><text fill="#000000" font-family="Monaco" font-size="14" font-weight="bold" lengthAdjust="spacingAndGlyphs" textLength="104" x="25" y="713.6689">com.MyCompany</text><rect fill="#FEFECE" filter="url(#f1)" height="54.6685" style="stroke: #A80036; stroke-width: 1.5;" width="82" x="859" y="378"/><ellipse cx="883.9" cy="394" fill="#008000" rx="11" ry="11" style="stroke: #A80036; stroke-width: 1.0;"/><path d="M884.0133,389.3481 L882.8595,394.4199 L885.1754,394.4199 Z M882.5191,387.1069 L885.5157,387.1069 L888.8609,399.5 L886.4122,399.5 L885.6485,396.437 L882.3697,396.437 L881.6227,399.5 L879.1739,399.5 Z "/><text fill="#000000" font-family="Monaco" font-size="12" lengthAdjust="spacingAndGlyphs" textLength="28" x="900.1" y="399.001">View</text><line style="stroke: #A80036; stroke-width: 1.5;" x1="860" x2="940" y1="410" y2="410"/><text fill="#000000" font-family="Monaco" font-size="11" lengthAdjust="spacingAndGlyphs" textLength="70" x="865" y="425.9185">setId(int)</text><rect fill="#FEFECE" filter="url(#f1)" height="40" style="stroke: #A80036; stroke-width: 1.5;" width="95" x="849.5" y="493"/><ellipse cx="864.5" cy="509" fill="#008000" rx="11" ry="11" style="stroke: #A80036; stroke-width: 1.0;"/><path d="M864.6133,504.3481 L863.4595,509.4199 L865.7754,509.4199 Z M863.1191,502.1069 L866.1157,502.1069 L869.4609,514.5 L867.0122,514.5 L866.2485,511.437 L862.9697,511.437 L862.2227,514.5 L859.7739,514.5 Z "/><text fill="#000000" font-family="Monaco" font-size="12" lengthAdjust="spacingAndGlyphs" textLength="63" x="878.5" y="514.001">ViewGroup</text><line style="stroke: #A80036; stroke-width: 1.5;" x1="850.5" x2="943.5" y1="525" y2="525"/><rect fill="#FEFECE" filter="url(#f1)" height="54.6685" style="stroke: #A80036; stroke-width: 1.5;" width="96" x="1087" y="610"/><ellipse cx="1105.6" cy="626" fill="#008000" rx="11" ry="11" style="stroke: #A80036; stroke-width: 1.0;"/><path d="M1105.7133,621.3481 L1104.5595,626.4199 L1106.8754,626.4199 Z M1104.2191,619.1069 L1107.2157,619.1069 L1110.5609,631.5 L1108.1122,631.5 L1107.3485,628.437 L1104.0697,628.437 L1103.3227,631.5 L1100.8739,631.5 Z "/><text fill="#000000" font-family="Monaco" font-size="12" lengthAdjust="spacingAndGlyphs" textLength="56" x="1120.4" y="631.001">TextView</text><line style="stroke: #A80036; stroke-width: 1.5;" x1="1088" x2="1182" y1="642" y2="642"/><text fill="#000000" font-family="Monaco" font-size="11" lengthAdjust="spacingAndGlyphs" textLength="84" x="1093" y="657.9185">setText(...)</text><rect fill="#FEFECE" filter="url(#f1)" height="40" style="stroke: #A80036; stroke-width: 1.5;" width="74" x="1040" y="732.5"/><ellipse cx="1055" cy="748.5" fill="#008000" rx="11" ry="11" style="stroke: #A80036; stroke-width: 1.0;"/><path d="M1055.1133,743.8481 L1053.9595,748.9199 L1056.2754,748.9199 Z M1053.6191,741.6069 L1056.6157,741.6069 L1059.9609,754 L1057.5122,754 L1056.7485,750.937 L1053.4697,750.937 L1052.7227,754 L1050.2739,754 Z "/><text fill="#000000" font-family="Monaco" font-size="12" lengthAdjust="spacingAndGlyphs" textLength="42" x="1069" y="753.501">Button</text><line style="stroke: #A80036; stroke-width: 1.5;" x1="1041" x2="1113" y1="764.5" y2="764.5"/><rect fill="#FEFECE" filter="url(#f1)" height="40" style="stroke: #A80036; stroke-width: 1.5;" width="81" x="1218.5" y="617.5"/><ellipse cx="1233.5" cy="633.5" fill="#008000" rx="11" ry="11" style="stroke: #A80036; stroke-width: 1.0;"/><path d="M1233.6133,628.8481 L1232.4595,633.9199 L1234.7754,633.9199 Z M1232.1191,626.6069 L1235.1157,626.6069 L1238.4609,639 L1236.0122,639 L1235.2485,635.937 L1231.9697,635.937 L1231.2227,639 L1228.7739,639 Z "/><text fill="#000000" font-family="Monaco" font-size="12" lengthAdjust="spacingAndGlyphs" textLength="49" x="1247.5" y="638.501">Spinner</text><line style="stroke: #A80036; stroke-width: 1.5;" x1="1219.5" x2="1298.5" y1="649.5" y2="649.5"/><rect fill="#FEFECE" filter="url(#f1)" height="40" style="stroke: #A80036; stroke-width: 1.5;" width="88" x="1149" y="732.5"/><ellipse cx="1164" cy="748.5" fill="#008000" rx="11" ry="11" style="stroke: #A80036; stroke-width: 1.0;"/><path d="M1164.1133,743.8481 L1162.9595,748.9199 L1165.2754,748.9199 Z M1162.6191,741.6069 L1165.6157,741.6069 L1168.9609,754 L1166.5122,754 L1165.7485,750.937 L1162.4697,750.937 L1161.7227,754 L1159.2739,754 Z "/><text fill="#000000" font-family="Monaco" font-size="12" lengthAdjust="spacingAndGlyphs" textLength="56" x="1178" y="753.501">EditText</text><line style="stroke: #A80036; stroke-width: 1.5;" x1="1150" x2="1236" y1="764.5" y2="764.5"/><rect fill="#FEFECE" filter="url(#f1)" height="40" style="stroke: #A80036; stroke-width: 1.5;" width="130" x="634" y="617.5"/><ellipse cx="649" cy="633.5" fill="#008000" rx="11" ry="11" style="stroke: #A80036; stroke-width: 1.0;"/><path d="M649.1133,628.8481 L647.9595,633.9199 L650.2754,633.9199 Z M647.6191,626.6069 L650.6157,626.6069 L653.9609,639 L651.5122,639 L650.7485,635.937 L647.4697,635.937 L646.7227,639 L644.2739,639 Z "/><text fill="#000000" font-family="Monaco" font-size="12" lengthAdjust="spacingAndGlyphs" textLength="98" x="663" y="638.501">RelativeLayout</text><line style="stroke: #A80036; stroke-width: 1.5;" x1="635" x2="763" y1="649.5" y2="649.5"/><rect fill="#FEFECE" filter="url(#f1)" height="40" style="stroke: #A80036; stroke-width: 1.5;" width="116" x="936" y="617.5"/><ellipse cx="951" cy="633.5" fill="#008000" rx="11" ry="11" style="stroke: #A80036; stroke-width: 1.0;"/><path d="M951.1133,628.8481 L949.9595,633.9199 L952.2754,633.9199 Z M949.6191,626.6069 L952.6157,626.6069 L955.9609,639 L953.5122,639 L952.7485,635.937 L949.4697,635.937 L948.7227,639 L946.2739,639 Z "/><text fill="#000000" font-family="Monaco" font-size="12" lengthAdjust="spacingAndGlyphs" textLength="84" x="965" y="638.501">LinearLayout</text><line style="stroke: #A80036; stroke-width: 1.5;" x1="937" x2="1051" y1="649.5" y2="649.5"/><rect fill="#FEFECE" filter="url(#f1)" height="40" style="stroke: #A80036; stroke-width: 1.5;" width="102" x="799" y="617.5"/><ellipse cx="814" cy="633.5" fill="#008000" rx="11" ry="11" style="stroke: #A80036; stroke-width: 1.0;"/><path d="M814.1133,628.8481 L812.9595,633.9199 L815.2754,633.9199 Z M812.6191,626.6069 L815.6157,626.6069 L818.9609,639 L816.5122,639 L815.7485,635.937 L812.4697,635.937 L811.7227,639 L809.2739,639 Z "/><text fill="#000000" font-family="Monaco" font-size="12" lengthAdjust="spacingAndGlyphs" textLength="70" x="828" y="638.501">GridLayout</text><line style="stroke: #A80036; stroke-width: 1.5;" x1="800" x2="900" y1="649.5" y2="649.5"/><rect fill="#FEFECE" filter="url(#f1)" height="54.6685" style="stroke: #A80036; stroke-width: 1.5;" width="124" x="285" y="725"/><ellipse cx="316.2" cy="741" fill="#008000" rx="11" ry="11" style="stroke: #A80036; stroke-width: 1.0;"/><path d="M316.3133,736.3481 L315.1595,741.4199 L317.4754,741.4199 Z M314.8191,734.1069 L317.8157,734.1069 L321.1609,746.5 L318.7122,746.5 L317.9485,743.437 L314.6697,743.437 L313.9227,746.5 L311.4739,746.5 Z "/><text fill="#000000" font-family="Monaco" font-size="12" font-style="italic" lengthAdjust="spacingAndGlyphs" textLength="56" x="333.8" y="746.001">Activity</text><line style="stroke: #A80036; stroke-width: 1.5;" x1="286" x2="408" y1="757" y2="757"/><text fill="#000000" font-family="Monaco" font-size="11" lengthAdjust="spacingAndGlyphs" textLength="112" x="291" y="772.9185">onCreate(Bundle)</text><rect fill="#FEFECE" filter="url(#f1)" height="40" style="stroke: #A80036; stroke-width: 1.5;" width="116" x="275" y="840"/><ellipse cx="290" cy="856" fill="#008000" rx="11" ry="11" style="stroke: #A80036; stroke-width: 1.0;"/><path d="M290.1133,851.3481 L288.9595,856.4199 L291.2754,856.4199 Z M288.6191,849.1069 L291.6157,849.1069 L294.9609,861.5 L292.5122,861.5 L291.7485,858.437 L288.4697,858.437 L287.7227,861.5 L285.2739,861.5 Z "/><text fill="#000000" font-family="Monaco" font-size="12" font-style="italic" lengthAdjust="spacingAndGlyphs" textLength="84" x="304" y="861.001">CRUDActivity</text><line style="stroke: #A80036; stroke-width: 1.5;" x1="276" x2="390" y1="872" y2="872"/><rect fill="#FEFECE" filter="url(#f1)" height="40" style="stroke: #A80036; stroke-width: 1.5;" width="151" x="426.5" y="840"/><ellipse cx="441.5" cy="856" fill="#008000" rx="11" ry="11" style="stroke: #A80036; stroke-width: 1.0;"/><path d="M441.6133,851.3481 L440.4595,856.4199 L442.7754,856.4199 Z M440.1191,849.1069 L443.1157,849.1069 L446.4609,861.5 L444.0122,861.5 L443.2485,858.437 L439.9697,858.437 L439.2227,861.5 L436.7739,861.5 Z "/><text fill="#000000" font-family="Monaco" font-size="12" lengthAdjust="spacingAndGlyphs" textLength="119" x="455.5" y="861.001">DashboardActivity</text><line style="stroke: #A80036; stroke-width: 1.5;" x1="427.5" x2="576.5" y1="872" y2="872"/><rect fill="#FEFECE" filter="url(#f1)" height="54.6685" style="stroke: #A80036; stroke-width: 1.5;" width="117" x="299.5" y="378"/><ellipse cx="330.7" cy="394" fill="#008000" rx="11" ry="11" style="stroke: #A80036; stroke-width: 1.0;"/><path d="M330.8133,389.3481 L329.6595,394.4199 L331.9754,394.4199 Z M329.3191,387.1069 L332.3157,387.1069 L335.6609,399.5 L333.2122,399.5 L332.4485,396.437 L329.1697,396.437 L328.4227,399.5 L325.9739,399.5 Z "/><text fill="#000000" font-family="Monaco" font-size="12" lengthAdjust="spacingAndGlyphs" textLength="49" x="348.3" y="399.001">Context</text><line style="stroke: #A80036; stroke-width: 1.5;" x1="300.5" x2="415.5" y1="410" y2="410"/><text fill="#000000" font-family="Monaco" font-size="11" lengthAdjust="spacingAndGlyphs" textLength="105" x="305.5" y="425.9185">startActivity()</text><rect fill="#FEFECE" filter="url(#f1)" height="40" style="stroke: #A80036; stroke-width: 1.5;" width="130" x="293" y="493"/><ellipse cx="308" cy="509" fill="#008000" rx="11" ry="11" style="stroke: #A80036; stroke-width: 1.0;"/><path d="M308.1133,504.3481 L306.9595,509.4199 L309.2754,509.4199 Z M306.6191,502.1069 L309.6157,502.1069 L312.9609,514.5 L310.5122,514.5 L309.7485,511.437 L306.4697,511.437 L305.7227,514.5 L303.2739,514.5 Z "/><text fill="#000000" font-family="Monaco" font-size="12" lengthAdjust="spacingAndGlyphs" textLength="98" x="322" y="514.001">ContextWrapper</text><line style="stroke: #A80036; stroke-width: 1.5;" x1="294" x2="422" y1="525" y2="525"/><rect fill="#FEFECE" filter="url(#f1)" height="40" style="stroke: #A80036; stroke-width: 1.5;" width="165" x="275.5" y="617.5"/><ellipse cx="290.5" cy="633.5" fill="#008000" rx="11" ry="11" style="stroke: #A80036; stroke-width: 1.0;"/><path d="M290.6133,628.8481 L289.4595,633.9199 L291.7754,633.9199 Z M289.1191,626.6069 L292.1157,626.6069 L295.4609,639 L293.0122,639 L292.2485,635.937 L288.9697,635.937 L288.2227,639 L285.7739,639 Z "/><text fill="#000000" font-family="Monaco" font-size="12" lengthAdjust="spacingAndGlyphs" textLength="133" x="304.5" y="638.501">ContextThemeWrapper</text><line style="stroke: #A80036; stroke-width: 1.5;" x1="276.5" x2="439.5" y1="649.5" y2="649.5"/><rect fill="#FEFECE" filter="url(#f1)" height="40" style="stroke: #A80036; stroke-width: 1.5;" width="88" x="459" y="385.5"/><ellipse cx="474" cy="401.5" fill="#008000" rx="11" ry="11" style="stroke: #A80036; stroke-width: 1.0;"/><path d="M474.1133,396.8481 L472.9595,401.9199 L475.2754,401.9199 Z M472.6191,394.6069 L475.6157,394.6069 L478.9609,407 L476.5122,407 L475.7485,403.937 L472.4697,403.937 L471.7227,407 L469.2739,407 Z "/><text fill="#000000" font-family="Monaco" font-size="12" font-style="italic" lengthAdjust="spacingAndGlyphs" textLength="56" x="488" y="406.501">Fragment</text><line style="stroke: #A80036; stroke-width: 1.5;" x1="460" x2="546" y1="417.5" y2="417.5"/><rect fill="#FEFECE" filter="url(#f1)" height="40" style="stroke: #A80036; stroke-width: 1.5;" width="74" x="513" y="178.5"/><ellipse cx="528" cy="194.5" fill="#FFFFFF" rx="11" ry="11" style="stroke: #A80036; stroke-width: 1.0;"/><path d="M533.0107,200.5 L530.479,200.5 L528.1133,196.3994 L525.7559,200.5 L523.2241,200.5 L526.8599,194.208 L523.3237,188.1069 L525.8555,188.1069 L528.1133,192.0498 L530.3794,188.1069 L532.9111,188.1069 L529.3916,194.208 Z "/><text fill="#000000" font-family="Monaco" font-size="12" lengthAdjust="spacingAndGlyphs" textLength="42" x="542" y="199.501">Layout</text><line style="stroke: #A80036; stroke-width: 1.5;" x1="514" x2="586" y1="210.5" y2="210.5"/><rect fill="#FEFECE" filter="url(#f1)" height="40" style="stroke: #A80036; stroke-width: 1.5;" width="102" x="499" y="61.5"/><ellipse cx="514" cy="77.5" fill="#008000" rx="11" ry="11" style="stroke: #A80036; stroke-width: 1.0;"/><path d="M519.0107,83.5 L516.479,83.5 L514.1133,79.3994 L511.7559,83.5 L509.2241,83.5 L512.8599,77.208 L509.3237,71.1069 L511.8555,71.1069 L514.1133,75.0498 L516.3794,71.1069 L518.9111,71.1069 L515.3916,77.208 Z "/><text fill="#000000" font-family="Monaco" font-size="12" lengthAdjust="spacingAndGlyphs" textLength="70" x="528" y="82.501">String.xml</text><line style="stroke: #A80036; stroke-width: 1.5;" x1="500" x2="600" y1="93.5" y2="93.5"/><rect fill="#FEFECE" filter="url(#f1)" height="40" style="stroke: #A80036; stroke-width: 1.5;" width="109" x="38.5" y="732.5"/><ellipse cx="53.5" cy="748.5" fill="#ADD1B2" rx="11" ry="11" style="stroke: #A80036; stroke-width: 1.0;"/><path d="M56.4731,754.1431 Q55.8921,754.4419 55.2529,754.5913 Q54.6138,754.7407 53.9082,754.7407 Q51.4014,754.7407 50.0815,753.0889 Q48.7617,751.437 48.7617,748.3159 Q48.7617,745.1865 50.0815,743.5347 Q51.4014,741.8828 53.9082,741.8828 Q54.6138,741.8828 55.2612,742.0322 Q55.9087,742.1816 56.4731,742.4805 L56.4731,745.2031 Q55.8423,744.6221 55.2488,744.3523 Q54.6553,744.0825 54.0244,744.0825 Q52.6797,744.0825 51.9949,745.1492 Q51.3101,746.2158 51.3101,748.3159 Q51.3101,750.4077 51.9949,751.4744 Q52.6797,752.541 54.0244,752.541 Q54.6553,752.541 55.2488,752.2712 Q55.8423,752.0015 56.4731,751.4204 Z "/><text fill="#000000" font-family="Monaco" font-size="12" lengthAdjust="spacingAndGlyphs" textLength="77" x="67.5" y="753.501">Application</text><line style="stroke: #A80036; stroke-width: 1.5;" x1="39.5" x2="146.5" y1="764.5" y2="764.5"/><rect fill="#FEFECE" filter="url(#f1)" height="40" style="stroke: #A80036; stroke-width: 1.5;" width="102" x="46" y="840"/><ellipse cx="61" cy="856" fill="#ADD1B2" rx="11" ry="11" style="stroke: #A80036; stroke-width: 1.0;"/><path d="M63.9731,861.6431 Q63.3921,861.9419 62.7529,862.0913 Q62.1138,862.2407 61.4082,862.2407 Q58.9014,862.2407 57.5815,860.5889 Q56.2617,858.937 56.2617,855.8159 Q56.2617,852.6865 57.5815,851.0347 Q58.9014,849.3828 61.4082,849.3828 Q62.1138,849.3828 62.7612,849.5322 Q63.4087,849.6816 63.9731,849.9805 L63.9731,852.7031 Q63.3423,852.1221 62.7488,851.8523 Q62.1553,851.5825 61.5244,851.5825 Q60.1797,851.5825 59.4949,852.6492 Q58.8101,853.7158 58.8101,855.8159 Q58.8101,857.9077 59.4949,858.9744 Q60.1797,860.041 61.5244,860.041 Q62.1553,860.041 62.7488,859.7712 Q63.3423,859.5015 63.9731,858.9204 Z "/><text fill="#000000" font-family="Monaco" font-size="12" lengthAdjust="spacingAndGlyphs" textLength="70" x="75" y="861.001">MyActivity</text><line style="stroke: #A80036; stroke-width: 1.5;" x1="47" x2="147" y1="872" y2="872"/><path d="M898.67,453.27 C898.275,467.164 897.864,481.619 897.549,492.711 " fill="none" style="stroke: #A80036; stroke-width: 1.0;"/><polygon fill="none" points="891.677,452.915,899.243,433.122,905.672,453.313,891.677,452.915" style="stroke: #A80036; stroke-width: 1.0;"/><path d="M959.63,429.383 C1023.61,455.783 1126.1,503.561 1201,565 C1219.41,580.104 1236.04,601.847 1246.72,617.385 " fill="none" style="stroke: #A80036; stroke-width: 1.0;"/><polygon fill="none" points="957.004,435.871,941.086,421.885,962.252,422.892,957.004,435.871" style="stroke: #A80036; stroke-width: 1.0;"/><path d="M1157.96,683.233 C1166.72,700.306 1176.26,718.878 1183.16,732.335 " fill="none" style="stroke: #A80036; stroke-width: 1.0;"/><polygon fill="none" points="1151.65,686.269,1148.75,665.279,1164.11,679.876,1151.65,686.269" style="stroke: #A80036; stroke-width: 1.0;"/><path d="M830.91,538.934 C814.11,546.371 796.451,555.191 781,565 C757.241,580.084 733.36,601.831 717.549,617.374 " fill="none" style="stroke: #A80036; stroke-width: 1.0;"/><polygon fill="none" points="828.202,532.479,849.349,531.145,833.649,545.376,828.202,532.479" style="stroke: #A80036; stroke-width: 1.0;"/><path d="M924.823,549.138 C942.441,571.387 964.538,599.292 978.95,617.494 " fill="none" style="stroke: #A80036; stroke-width: 1.0;"/><polygon fill="none" points="919.084,553.166,912.156,533.141,930.06,544.475,919.084,553.166" style="stroke: #A80036; stroke-width: 1.0;"/><path d="M882.371,552.129 C874.04,573.842 863.966,600.099 857.292,617.494 " fill="none" style="stroke: #A80036; stroke-width: 1.0;"/><polygon fill="none" points="875.956,549.306,889.656,533.141,889.027,554.321,875.956,549.306" style="stroke: #A80036; stroke-width: 1.0;"/><path d="M340.794,800.27 C338.95,814.164 337.032,828.619 335.56,839.711 " fill="none" style="stroke: #A80036; stroke-width: 1.0;"/><polygon fill="none" points="333.897,799.027,343.467,780.122,347.775,800.869,333.897,799.027" style="stroke: #A80036; stroke-width: 1.0;"/><path d="M402.911,791.556 C426.911,807.891 453.913,826.27 473.661,839.711 " fill="none" style="stroke: #A80036; stroke-width: 1.0;"/><polygon fill="none" points="398.708,797.162,386.113,780.122,406.585,785.589,398.708,797.162" style="stroke: #A80036; stroke-width: 1.0;"/><path d="M358,453.27 C358,467.164 358,481.619 358,492.711 " fill="none" style="stroke: #A80036; stroke-width: 1.0;"/><polygon fill="none" points="351,453.122,358,433.122,365,453.122,351,453.122" style="stroke: #A80036; stroke-width: 1.0;"/><path d="M358,553.478 C358,574.921 358,600.458 358,617.494 " fill="none" style="stroke: #A80036; stroke-width: 1.0;"/><polygon fill="none" points="351,553.141,358,533.141,365,553.141,351,553.141" style="stroke: #A80036; stroke-width: 1.0;"/><path d="M354.182,677.721 C352.675,693.199 350.982,710.591 349.619,724.6 " fill="none" style="stroke: #A80036; stroke-width: 1.0;"/><polygon fill="none" points="347.229,676.897,356.134,657.669,361.163,678.253,347.229,676.897" style="stroke: #A80036; stroke-width: 1.0;"/><path d="M594.206,225.392 C662.429,265.351 792.417,341.487 858.783,380.359 " fill="none" style="stroke: #A80036; stroke-width: 1.0;"/><polygon fill="#A80036" points="582.613,218.602,585.7687,225.0859,592.9676,224.6668,589.8119,218.1829,582.613,218.602" style="stroke: #A80036; stroke-width: 1.0;"/><path d="M94.2332,786.027 C94.7235,798.958 95.2862,813.799 95.7756,826.707 " fill="none" style="stroke: #A80036; stroke-width: 1.0;"/><polygon fill="#A80036" points="96.271,839.7723,99.9269,830.6271,96.0814,834.7759,91.9327,830.9304,96.271,839.7723" style="stroke: #A80036; stroke-width: 1.0;"/><line style="stroke: #A80036; stroke-width: 1.0;" x1="96.0814" x2="95.7784" y1="834.7759" y2="826.7815"/><polygon fill="#A80036" points="93.7337,772.85,89.9634,778.9969,94.1873,784.8414,97.9577,778.6945,93.7337,772.85" style="stroke: #A80036; stroke-width: 1.0;"/><path d="M945.108,446.691 C979.931,478.16 1028.94,523.419 1070,565 C1084.26,579.444 1099.56,596.207 1111.74,609.87 " fill="none" style="stroke: #A80036; stroke-width: 1.0;"/><polygon fill="none" points="940.372,451.846,930.186,433.265,949.736,441.438,940.372,451.846" style="stroke: #A80036; stroke-width: 1.0;"/><path d="M1112.04,683.233 C1103.28,700.306 1093.74,718.878 1086.84,732.335 " fill="none" style="stroke: #A80036; stroke-width: 1.0;"/><polygon fill="none" points="1105.89,679.876,1121.25,665.279,1118.35,686.269,1105.89,679.876" style="stroke: #A80036; stroke-width: 1.0;"/><path d="M409.039,732.636 C428.582,732.939 444,739.561 444,752.5 C444,764.226 431.338,770.764 414.418,772.112 " fill="none" style="stroke: #A80036; stroke-width: 1.0;"/><polygon fill="#A80036" points="409.039,772.364,418.2166,775.9379,414.0335,772.1297,417.8417,767.9467,409.039,772.364" style="stroke: #A80036; stroke-width: 1.0;"/><path d="M266.296,787.557 C225.209,804.896 176.788,825.329 142.279,839.8924 " fill="none" style="stroke: #A80036; stroke-width: 1.0;"/><polygon fill="none" points="263.733,781.041,284.881,779.714,269.176,793.939,263.733,781.041" style="stroke: #A80036; stroke-width: 1.0;"/><path d="M124.976,839.733 C139.017,828.653 155.102,813.559 165,796.5 C201.146,734.206 201,710.522 201,638.5 C201,512 201,512 201,512 C201,392.953 172.958,332.773 259,250.5 C294.025,217.009 435.896,205.172 507.794,201.27 " fill="none" style="stroke: #A80036; stroke-width: 1.0;"/><polygon fill="#A80036" points="512.848,201.003,503.6491,197.4843,507.855,201.2673,504.072,205.4731,512.848,201.003" style="stroke: #A80036; stroke-width: 1.0;"/><path d="M550,106.945 C550,128.205 550,158.596 550,178.189 " fill="none" style="stroke: #A80036; stroke-width: 1.0; stroke-dasharray: 7.0,7.0;"/><polygon fill="#A80036" points="550,101.748,546,110.748,550,106.748,554,110.748,550,101.748" style="stroke: #A80036; stroke-width: 1.0;"/><text fill="#888888" font-family="Monaco" font-size="10" lengthAdjust="spacingAndGlyphs" textLength="222" x="576" y="956.835">CC BY-SA 3.0 - http://jmb.c.la - 2015</text></g></svg>