<?xml version="1.0" encoding="UTF-8" standalone="no"?><svg xmlns="http://www.w3.org/2000/svg" xmlns:xlink="http://www.w3.org/1999/xlink" contentScriptType="application/ecmascript" contentStyleType="text/css" height="970px" preserveAspectRatio="none" style="width:1362px;height:970px;" version="1.1" viewBox="0 0 1362 970" width="1362px" zoomAndPan="magnify"><defs><filter height="300%" id="f17te5z24on4bm" width="300%" x="-1" y="-1"><feGaussianBlur result="blurOut" stdDeviation="2.0"/><feColorMatrix in="blurOut" result="blurOut2" type="matrix" values="0 0 0 0 0 0 0 0 0 0 0 0 0 0 0 0 0 0 .4 0"/><feOffset dx="4.0" dy="4.0" in="blurOut2" result="blurOut3"/><feBlend in="SourceGraphic" in2="blurOut3" mode="normal"/></filter></defs><g><!--MD5=[779bdc9ef3a6b365282b55e74be4effd]
cluster android--><polygon fill="#DDDDDD" filter="url(#f17te5z24on4bm)" points="235,258.5,297,258.5,304,283.1689,1340,283.1689,1340,920,235,920,235,258.5" style="stroke: #000000; stroke-width: 1.5;"/><line style="stroke: #000000; stroke-width: 1.5;" x1="235" x2="304" y1="283.1689" y2="283.1689"/><text fill="#000000" font-family="Monaco" font-size="14" font-weight="bold" lengthAdjust="spacingAndGlyphs" textLength="56" x="239" y="275.6689">android</text><!--MD5=[8f8d0b94f4a1ed49846736f913951330]
cluster android.view--><polygon fill="#D3D3D3" filter="url(#f17te5z24on4bm)" points="474,341,576,341,583,365.6689,602,365.6689,602,549,474,549,474,341" style="stroke: #000000; stroke-width: 1.5;"/><line style="stroke: #000000; stroke-width: 1.5;" x1="474" x2="583" y1="365.6689" y2="365.6689"/><text fill="#000000" font-family="Monaco" font-size="14" font-weight="bold" lengthAdjust="spacingAndGlyphs" textLength="96" x="478" y="358.1689">android.view</text><!--MD5=[8f1f47ddcaf886f5883ce68989fc141e]
cluster android.widget--><polygon fill="#D3D3D3" filter="url(#f17te5z24on4bm)" points="259,573,377,573,384,597.6689,957,597.6689,957,788.5,259,788.5,259,573" style="stroke: #000000; stroke-width: 1.5;"/><line style="stroke: #000000; stroke-width: 1.5;" x1="259" x2="384" y1="597.6689" y2="597.6689"/><text fill="#000000" font-family="Monaco" font-size="14" font-weight="bold" lengthAdjust="spacingAndGlyphs" textLength="112" x="263" y="590.1689">android.widget</text><!--MD5=[6b5de916a6164d178ea2b5081d300c77]
cluster android.app--><polygon fill="#DDDDDD" filter="url(#f17te5z24on4bm)" points="981,303.5,1075,303.5,1082,328.1689,1316,328.1689,1316,896,981,896,981,303.5" style="stroke: #000000; stroke-width: 1.5;"/><line style="stroke: #000000; stroke-width: 1.5;" x1="981" x2="1082" y1="328.1689" y2="328.1689"/><text fill="#000000" font-family="Monaco" font-size="14" font-weight="bold" lengthAdjust="spacingAndGlyphs" textLength="88" x="985" y="320.6689">android.app</text><!--MD5=[e397b60992c90e515f72091df53c2e25]
cluster fragment--><polygon fill="#D3D3D3" filter="url(#f17te5z24on4bm)" points="1165,348.5,1235,348.5,1242,373.1689,1285,373.1689,1285,441.5,1165,441.5,1165,348.5" style="stroke: #000000; stroke-width: 1.5;"/><line style="stroke: #000000; stroke-width: 1.5;" x1="1165" x2="1242" y1="373.1689" y2="373.1689"/><text fill="#000000" font-family="Monaco" font-size="14" font-weight="bold" lengthAdjust="spacingAndGlyphs" textLength="64" x="1169" y="365.6689">fragment</text><!--MD5=[5312434181f8881ead0294f1195038c7]
cluster layout--><polygon fill="#DDDDDD" filter="url(#f17te5z24on4bm)" points="318,141.5,372,141.5,379,166.1689,424,166.1689,424,234.5,318,234.5,318,141.5" style="stroke: #000000; stroke-width: 1.5;"/><line style="stroke: #000000; stroke-width: 1.5;" x1="318" x2="379" y1="166.1689" y2="166.1689"/><text fill="#000000" font-family="Monaco" font-size="14" font-weight="bold" lengthAdjust="spacingAndGlyphs" textLength="48" x="322" y="158.6689">layout</text><!--MD5=[8a76c85c9bda36b8961814e40de163a2]
cluster Resources--><polygon fill="#DDDDDD" filter="url(#f17te5z24on4bm)" points="304,24.5,382,24.5,389,49.1689,438,49.1689,438,117.5,304,117.5,304,24.5" style="stroke: #000000; stroke-width: 1.5;"/><line style="stroke: #000000; stroke-width: 1.5;" x1="304" x2="389" y1="49.1689" y2="49.1689"/><text fill="#000000" font-family="Monaco" font-size="14" font-weight="bold" lengthAdjust="spacingAndGlyphs" textLength="72" x="308" y="41.6689">Resources</text><!--MD5=[22103f29371c9d3e710365d99a3aa53d]
cluster com.MyCompany--><polygon fill="#FFFFFF" filter="url(#f17te5z24on4bm)" points="22,695.5,132,695.5,139,720.1689,164,720.1689,164,896,22,896,22,695.5" style="stroke: #000000; stroke-width: 1.5;"/><line style="stroke: #000000; stroke-width: 1.5;" x1="22" x2="139" y1="720.1689" y2="720.1689"/><text fill="#000000" font-family="Monaco" font-size="14" font-weight="bold" lengthAdjust="spacingAndGlyphs" textLength="104" x="26" y="712.6689">com.MyCompany</text><!--MD5=[0f2ca8c403c82214a93ba7e447c0ae0d]
class v--><rect fill="#FEFECE" filter="url(#f17te5z24on4bm)" height="54.6685" id="v" style="stroke: #A80036; stroke-width: 1.5;" width="82" x="500" y="378"/><ellipse cx="524.9" cy="394" fill="#008000" rx="11" ry="11" style="stroke: #A80036; stroke-width: 1.0;"/><path d="M524.7633,389.3481 L523.6095,394.4199 L525.9254,394.4199 Z M523.2691,387.1069 L526.2657,387.1069 L529.6109,399.5 L527.1622,399.5 L526.3985,396.437 L523.1197,396.437 L522.3727,399.5 L519.9239,399.5 Z "/><text fill="#000000" font-family="Monaco" font-size="12" lengthAdjust="spacingAndGlyphs" textLength="28" x="541.1" y="399.001">View</text><line style="stroke: #A80036; stroke-width: 1.5;" x1="501" x2="581" y1="410" y2="410"/><text fill="#000000" font-family="Monaco" font-size="11" lengthAdjust="spacingAndGlyphs" textLength="70" x="506" y="425.9185">setId(int)</text><!--MD5=[245bcea5cb314df52f61c5506ad57b35]
class vg--><rect fill="#FEFECE" filter="url(#f17te5z24on4bm)" height="40" id="vg" style="stroke: #A80036; stroke-width: 1.5;" width="95" x="490.5" y="493"/><ellipse cx="505.5" cy="509" fill="#008000" rx="11" ry="11" style="stroke: #A80036; stroke-width: 1.0;"/><path d="M505.3633,504.3481 L504.2095,509.4199 L506.5254,509.4199 Z M503.8691,502.1069 L506.8657,502.1069 L510.2109,514.5 L507.7622,514.5 L506.9985,511.437 L503.7197,511.437 L502.9727,514.5 L500.5239,514.5 Z "/><text fill="#000000" font-family="Monaco" font-size="12" lengthAdjust="spacingAndGlyphs" textLength="63" x="519.5" y="514.001">ViewGroup</text><line style="stroke: #A80036; stroke-width: 1.5;" x1="491.5" x2="584.5" y1="525" y2="525"/><!--MD5=[733462b47cf04df2ca7bac97249b98e3]
class tv--><rect fill="#FEFECE" filter="url(#f17te5z24on4bm)" height="54.6685" id="tv" style="stroke: #A80036; stroke-width: 1.5;" width="96" x="728" y="610"/><ellipse cx="746.6" cy="626" fill="#008000" rx="11" ry="11" style="stroke: #A80036; stroke-width: 1.0;"/><path d="M746.4633,621.3481 L745.3095,626.4199 L747.6254,626.4199 Z M744.9691,619.1069 L747.9657,619.1069 L751.3109,631.5 L748.8622,631.5 L748.0985,628.437 L744.8197,628.437 L744.0727,631.5 L741.6239,631.5 Z "/><text fill="#000000" font-family="Monaco" font-size="12" lengthAdjust="spacingAndGlyphs" textLength="56" x="761.4" y="631.001">TextView</text><line style="stroke: #A80036; stroke-width: 1.5;" x1="729" x2="823" y1="642" y2="642"/><text fill="#000000" font-family="Monaco" font-size="11" lengthAdjust="spacingAndGlyphs" textLength="84" x="734" y="657.9185">setText(...)</text><!--MD5=[e373b81aa261186aa76acdb762bff33c]
class b--><rect fill="#FEFECE" filter="url(#f17te5z24on4bm)" height="40" id="b" style="stroke: #A80036; stroke-width: 1.5;" width="74" x="681" y="732.5"/><ellipse cx="696" cy="748.5" fill="#008000" rx="11" ry="11" style="stroke: #A80036; stroke-width: 1.0;"/><path d="M695.8633,743.8481 L694.7095,748.9199 L697.0254,748.9199 Z M694.3691,741.6069 L697.3657,741.6069 L700.7109,754 L698.2622,754 L697.4985,750.937 L694.2197,750.937 L693.4727,754 L691.0239,754 Z "/><text fill="#000000" font-family="Monaco" font-size="12" lengthAdjust="spacingAndGlyphs" textLength="42" x="710" y="753.501">Button</text><line style="stroke: #A80036; stroke-width: 1.5;" x1="682" x2="754" y1="764.5" y2="764.5"/><!--MD5=[476872b25e3a174b22188e3e3040bc9a]
class spinner--><rect fill="#FEFECE" filter="url(#f17te5z24on4bm)" height="40" id="spinner" style="stroke: #A80036; stroke-width: 1.5;" width="81" x="859.5" y="617.5"/><ellipse cx="874.5" cy="633.5" fill="#008000" rx="11" ry="11" style="stroke: #A80036; stroke-width: 1.0;"/><path d="M874.3633,628.8481 L873.2095,633.9199 L875.5254,633.9199 Z M872.8691,626.6069 L875.8657,626.6069 L879.2109,639 L876.7622,639 L875.9985,635.937 L872.7197,635.937 L871.9727,639 L869.5239,639 Z "/><text fill="#000000" font-family="Monaco" font-size="12" lengthAdjust="spacingAndGlyphs" textLength="49" x="888.5" y="638.501">Spinner</text><line style="stroke: #A80036; stroke-width: 1.5;" x1="860.5" x2="939.5" y1="649.5" y2="649.5"/><!--MD5=[0df987a45e14a9af0f8f84523aa4f25e]
class EditText--><rect fill="#FEFECE" filter="url(#f17te5z24on4bm)" height="40" id="EditText" style="stroke: #A80036; stroke-width: 1.5;" width="88" x="790" y="732.5"/><ellipse cx="805" cy="748.5" fill="#008000" rx="11" ry="11" style="stroke: #A80036; stroke-width: 1.0;"/><path d="M804.8633,743.8481 L803.7095,748.9199 L806.0254,748.9199 Z M803.3691,741.6069 L806.3657,741.6069 L809.7109,754 L807.2622,754 L806.4985,750.937 L803.2197,750.937 L802.4727,754 L800.0239,754 Z "/><text fill="#000000" font-family="Monaco" font-size="12" lengthAdjust="spacingAndGlyphs" textLength="56" x="819" y="753.501">EditText</text><line style="stroke: #A80036; stroke-width: 1.5;" x1="791" x2="877" y1="764.5" y2="764.5"/><!--MD5=[c43ebb819dd22639557dbfda4826bf85]
class RelativeLayout--><rect fill="#FEFECE" filter="url(#f17te5z24on4bm)" height="40" id="RelativeLayout" style="stroke: #A80036; stroke-width: 1.5;" width="130" x="275" y="617.5"/><ellipse cx="290" cy="633.5" fill="#008000" rx="11" ry="11" style="stroke: #A80036; stroke-width: 1.0;"/><path d="M289.8633,628.8481 L288.7095,633.9199 L291.0254,633.9199 Z M288.3691,626.6069 L291.3657,626.6069 L294.7109,639 L292.2622,639 L291.4985,635.937 L288.2197,635.937 L287.4727,639 L285.0239,639 Z "/><text fill="#000000" font-family="Monaco" font-size="12" lengthAdjust="spacingAndGlyphs" textLength="98" x="304" y="638.501">RelativeLayout</text><line style="stroke: #A80036; stroke-width: 1.5;" x1="276" x2="404" y1="649.5" y2="649.5"/><!--MD5=[60350502e8710f1994bba800f3080214]
class LinearLayout--><rect fill="#FEFECE" filter="url(#f17te5z24on4bm)" height="40" id="LinearLayout" style="stroke: #A80036; stroke-width: 1.5;" width="116" x="577" y="617.5"/><ellipse cx="592" cy="633.5" fill="#008000" rx="11" ry="11" style="stroke: #A80036; stroke-width: 1.0;"/><path d="M591.8633,628.8481 L590.7095,633.9199 L593.0254,633.9199 Z M590.3691,626.6069 L593.3657,626.6069 L596.7109,639 L594.2622,639 L593.4985,635.937 L590.2197,635.937 L589.4727,639 L587.0239,639 Z "/><text fill="#000000" font-family="Monaco" font-size="12" lengthAdjust="spacingAndGlyphs" textLength="84" x="606" y="638.501">LinearLayout</text><line style="stroke: #A80036; stroke-width: 1.5;" x1="578" x2="692" y1="649.5" y2="649.5"/><!--MD5=[9a8ee55e0ef7c4966e0800d27aa97727]
class GridLayout--><rect fill="#FEFECE" filter="url(#f17te5z24on4bm)" height="40" id="GridLayout" style="stroke: #A80036; stroke-width: 1.5;" width="102" x="440" y="617.5"/><ellipse cx="455" cy="633.5" fill="#008000" rx="11" ry="11" style="stroke: #A80036; stroke-width: 1.0;"/><path d="M454.8633,628.8481 L453.7095,633.9199 L456.0254,633.9199 Z M453.3691,626.6069 L456.3657,626.6069 L459.7109,639 L457.2622,639 L456.4985,635.937 L453.2197,635.937 L452.4727,639 L450.0239,639 Z "/><text fill="#000000" font-family="Monaco" font-size="12" lengthAdjust="spacingAndGlyphs" textLength="70" x="469" y="638.501">GridLayout</text><line style="stroke: #A80036; stroke-width: 1.5;" x1="441" x2="541" y1="649.5" y2="649.5"/><!--MD5=[c881b25adf3665c6568c9693d41a70f3]
class Activity--><rect fill="#FEFECE" filter="url(#f17te5z24on4bm)" height="54.6685" id="Activity" style="stroke: #A80036; stroke-width: 1.5;" width="124" x="1007" y="725"/><ellipse cx="1038.2" cy="741" fill="#008000" rx="11" ry="11" style="stroke: #A80036; stroke-width: 1.0;"/><path d="M1038.0633,736.3481 L1036.9095,741.4199 L1039.2254,741.4199 Z M1036.5691,734.1069 L1039.5657,734.1069 L1042.9109,746.5 L1040.4622,746.5 L1039.6985,743.437 L1036.4197,743.437 L1035.6727,746.5 L1033.2239,746.5 Z "/><text fill="#000000" font-family="Monaco" font-size="12" font-style="italic" lengthAdjust="spacingAndGlyphs" textLength="56" x="1055.8" y="746.001">Activity</text><line style="stroke: #A80036; stroke-width: 1.5;" x1="1008" x2="1130" y1="757" y2="757"/><text fill="#000000" font-family="Monaco" font-size="11" lengthAdjust="spacingAndGlyphs" textLength="112" x="1013" y="772.9185">onCreate(Bundle)</text><!--MD5=[1159139bb4c5a8cfe1e1662cf571b861]
class CRUDActivity--><rect fill="#FEFECE" filter="url(#f17te5z24on4bm)" height="40" id="CRUDActivity" style="stroke: #A80036; stroke-width: 1.5;" width="116" x="997" y="840"/><ellipse cx="1012" cy="856" fill="#008000" rx="11" ry="11" style="stroke: #A80036; stroke-width: 1.0;"/><path d="M1011.8633,851.3481 L1010.7095,856.4199 L1013.0254,856.4199 Z M1010.3691,849.1069 L1013.3657,849.1069 L1016.7109,861.5 L1014.2622,861.5 L1013.4985,858.437 L1010.2197,858.437 L1009.4727,861.5 L1007.0239,861.5 Z "/><text fill="#000000" font-family="Monaco" font-size="12" font-style="italic" lengthAdjust="spacingAndGlyphs" textLength="84" x="1026" y="861.001">CRUDActivity</text><line style="stroke: #A80036; stroke-width: 1.5;" x1="998" x2="1112" y1="872" y2="872"/><!--MD5=[6b597b2c100b1dbcb3a62ec60c96a36e]
class DashboardActivity--><rect fill="#FEFECE" filter="url(#f17te5z24on4bm)" height="40" id="DashboardActivity" style="stroke: #A80036; stroke-width: 1.5;" width="151" x="1148.5" y="840"/><ellipse cx="1163.5" cy="856" fill="#008000" rx="11" ry="11" style="stroke: #A80036; stroke-width: 1.0;"/><path d="M1163.3633,851.3481 L1162.2095,856.4199 L1164.5254,856.4199 Z M1161.8691,849.1069 L1164.8657,849.1069 L1168.2109,861.5 L1165.7622,861.5 L1164.9985,858.437 L1161.7197,858.437 L1160.9727,861.5 L1158.5239,861.5 Z "/><text fill="#000000" font-family="Monaco" font-size="12" lengthAdjust="spacingAndGlyphs" textLength="119" x="1177.5" y="861.001">DashboardActivity</text><line style="stroke: #A80036; stroke-width: 1.5;" x1="1149.5" x2="1298.5" y1="872" y2="872"/><!--MD5=[6754354365917abf8f1a56af1b7e344c]
class Context--><rect fill="#FEFECE" filter="url(#f17te5z24on4bm)" height="54.6685" id="Context" style="stroke: #A80036; stroke-width: 1.5;" width="117" x="1021.5" y="378"/><ellipse cx="1052.7" cy="394" fill="#008000" rx="11" ry="11" style="stroke: #A80036; stroke-width: 1.0;"/><path d="M1052.5633,389.3481 L1051.4095,394.4199 L1053.7254,394.4199 Z M1051.0691,387.1069 L1054.0657,387.1069 L1057.4109,399.5 L1054.9622,399.5 L1054.1985,396.437 L1050.9197,396.437 L1050.1727,399.5 L1047.7239,399.5 Z "/><text fill="#000000" font-family="Monaco" font-size="12" lengthAdjust="spacingAndGlyphs" textLength="49" x="1070.3" y="399.001">Context</text><line style="stroke: #A80036; stroke-width: 1.5;" x1="1022.5" x2="1137.5" y1="410" y2="410"/><text fill="#000000" font-family="Monaco" font-size="11" lengthAdjust="spacingAndGlyphs" textLength="105" x="1027.5" y="425.9185">startActivity()</text><!--MD5=[0efa4458a9a5b46bf31d5c143b419546]
class ContextWrapper--><rect fill="#FEFECE" filter="url(#f17te5z24on4bm)" height="40" id="ContextWrapper" style="stroke: #A80036; stroke-width: 1.5;" width="130" x="1015" y="493"/><ellipse cx="1030" cy="509" fill="#008000" rx="11" ry="11" style="stroke: #A80036; stroke-width: 1.0;"/><path d="M1029.8633,504.3481 L1028.7095,509.4199 L1031.0254,509.4199 Z M1028.3691,502.1069 L1031.3657,502.1069 L1034.7109,514.5 L1032.2622,514.5 L1031.4985,511.437 L1028.2197,511.437 L1027.4727,514.5 L1025.0239,514.5 Z "/><text fill="#000000" font-family="Monaco" font-size="12" lengthAdjust="spacingAndGlyphs" textLength="98" x="1044" y="514.001">ContextWrapper</text><line style="stroke: #A80036; stroke-width: 1.5;" x1="1016" x2="1144" y1="525" y2="525"/><!--MD5=[80f645ef9a4df492b7ba485462422a2a]
class ContextThemeWrapper--><rect fill="#FEFECE" filter="url(#f17te5z24on4bm)" height="40" id="ContextThemeWrapper" style="stroke: #A80036; stroke-width: 1.5;" width="165" x="997.5" y="617.5"/><ellipse cx="1012.5" cy="633.5" fill="#008000" rx="11" ry="11" style="stroke: #A80036; stroke-width: 1.0;"/><path d="M1012.3633,628.8481 L1011.2095,633.9199 L1013.5254,633.9199 Z M1010.8691,626.6069 L1013.8657,626.6069 L1017.2109,639 L1014.7622,639 L1013.9985,635.937 L1010.7197,635.937 L1009.9727,639 L1007.5239,639 Z "/><text fill="#000000" font-family="Monaco" font-size="12" lengthAdjust="spacingAndGlyphs" textLength="133" x="1026.5" y="638.501">ContextThemeWrapper</text><line style="stroke: #A80036; stroke-width: 1.5;" x1="998.5" x2="1161.5" y1="649.5" y2="649.5"/><!--MD5=[499a93d1a2128e7b640a788d1f7209bf]
class Fragment--><rect fill="#FEFECE" filter="url(#f17te5z24on4bm)" height="40" id="Fragment" style="stroke: #A80036; stroke-width: 1.5;" width="88" x="1181" y="385.5"/><ellipse cx="1196" cy="401.5" fill="#008000" rx="11" ry="11" style="stroke: #A80036; stroke-width: 1.0;"/><path d="M1195.8633,396.8481 L1194.7095,401.9199 L1197.0254,401.9199 Z M1194.3691,394.6069 L1197.3657,394.6069 L1200.7109,407 L1198.2622,407 L1197.4985,403.937 L1194.2197,403.937 L1193.4727,407 L1191.0239,407 Z "/><text fill="#000000" font-family="Monaco" font-size="12" font-style="italic" lengthAdjust="spacingAndGlyphs" textLength="56" x="1210" y="406.501">Fragment</text><line style="stroke: #A80036; stroke-width: 1.5;" x1="1182" x2="1268" y1="417.5" y2="417.5"/><!--MD5=[caebf2ddd0fe15aa1cd7c0f919e7d6a1]
class Layout--><rect fill="#FEFECE" filter="url(#f17te5z24on4bm)" height="40" id="Layout" style="stroke: #A80036; stroke-width: 1.5;" width="74" x="334" y="178.5"/><ellipse cx="349" cy="194.5" fill="#FFFFFF" rx="11" ry="11" style="stroke: #A80036; stroke-width: 1.0;"/><path d="M353.5107,201 L350.979,201 L348.6133,196.8994 L346.2559,201 L343.7241,201 L347.3599,194.708 L343.8237,188.6069 L346.3555,188.6069 L348.6133,192.5498 L350.8794,188.6069 L353.4111,188.6069 L349.8916,194.708 Z "/><text fill="#000000" font-family="Monaco" font-size="12" lengthAdjust="spacingAndGlyphs" textLength="42" x="363" y="199.501">Layout</text><line style="stroke: #A80036; stroke-width: 1.5;" x1="335" x2="407" y1="210.5" y2="210.5"/><!--MD5=[9df70cf33be424c1b8543b3f439cae89]
class String--><rect fill="#FEFECE" filter="url(#f17te5z24on4bm)" height="40" id="String" style="stroke: #A80036; stroke-width: 1.5;" width="102" x="320" y="61.5"/><ellipse cx="335" cy="77.5" fill="#008000" rx="11" ry="11" style="stroke: #A80036; stroke-width: 1.0;"/><path d="M339.5107,84 L336.979,84 L334.6133,79.8994 L332.2559,84 L329.7241,84 L333.3599,77.708 L329.8237,71.6069 L332.3555,71.6069 L334.6133,75.5498 L336.8794,71.6069 L339.4111,71.6069 L335.8916,77.708 Z "/><text fill="#000000" font-family="Monaco" font-size="12" lengthAdjust="spacingAndGlyphs" textLength="70" x="349" y="82.501">String.xml</text><line style="stroke: #A80036; stroke-width: 1.5;" x1="321" x2="421" y1="93.5" y2="93.5"/><!--MD5=[0b4e4b4980470ea387cc45de9bd14b5b]
class Application--><rect fill="#FEFECE" filter="url(#f17te5z24on4bm)" height="40" id="Application" style="stroke: #A80036; stroke-width: 1.5;" width="109" x="38.5" y="732.5"/><ellipse cx="53.5" cy="748.5" fill="#ADD1B2" rx="11" ry="11" style="stroke: #A80036; stroke-width: 1.0;"/><path d="M55.9731,754.6431 Q55.3921,754.9419 54.7529,755.0913 Q54.1138,755.2407 53.4082,755.2407 Q50.9014,755.2407 49.5815,753.5889 Q48.2617,751.937 48.2617,748.8159 Q48.2617,745.6865 49.5815,744.0347 Q50.9014,742.3828 53.4082,742.3828 Q54.1138,742.3828 54.7612,742.5322 Q55.4087,742.6816 55.9731,742.9805 L55.9731,745.7031 Q55.3423,745.1221 54.7488,744.8523 Q54.1553,744.5825 53.5244,744.5825 Q52.1797,744.5825 51.4949,745.6492 Q50.8101,746.7158 50.8101,748.8159 Q50.8101,750.9077 51.4949,751.9744 Q52.1797,753.041 53.5244,753.041 Q54.1553,753.041 54.7488,752.7712 Q55.3423,752.5015 55.9731,751.9204 Z "/><text fill="#000000" font-family="Monaco" font-size="12" lengthAdjust="spacingAndGlyphs" textLength="77" x="67.5" y="753.501">Application</text><line style="stroke: #A80036; stroke-width: 1.5;" x1="39.5" x2="146.5" y1="764.5" y2="764.5"/><!--MD5=[a5642bd7027dd356abcd9362ed50beee]
class MyActivity--><rect fill="#FEFECE" filter="url(#f17te5z24on4bm)" height="40" id="MyActivity" style="stroke: #A80036; stroke-width: 1.5;" width="102" x="46" y="840"/><ellipse cx="61" cy="856" fill="#ADD1B2" rx="11" ry="11" style="stroke: #A80036; stroke-width: 1.0;"/><path d="M63.4731,862.1431 Q62.8921,862.4419 62.2529,862.5913 Q61.6138,862.7407 60.9082,862.7407 Q58.4014,862.7407 57.0815,861.0889 Q55.7617,859.437 55.7617,856.3159 Q55.7617,853.1865 57.0815,851.5347 Q58.4014,849.8828 60.9082,849.8828 Q61.6138,849.8828 62.2612,850.0322 Q62.9087,850.1816 63.4731,850.4805 L63.4731,853.2031 Q62.8423,852.6221 62.2488,852.3523 Q61.6553,852.0825 61.0244,852.0825 Q59.6797,852.0825 58.9949,853.1492 Q58.3101,854.2158 58.3101,856.3159 Q58.3101,858.4077 58.9949,859.4744 Q59.6797,860.541 61.0244,860.541 Q61.6553,860.541 62.2488,860.2712 Q62.8423,860.0015 63.4731,859.4204 Z "/><text fill="#000000" font-family="Monaco" font-size="12" lengthAdjust="spacingAndGlyphs" textLength="70" x="75" y="861.001">MyActivity</text><line style="stroke: #A80036; stroke-width: 1.5;" x1="47" x2="147" y1="872" y2="872"/><!--MD5=[8ab634e7e5326fb6ffff9e76b4393ad0]
reverse link v to vg--><path d="M539.67,453.27 C539.27,467.16 538.86,481.62 538.55,492.71 " fill="none" id="v&lt;-vg" style="stroke: #A80036; stroke-width: 1.0;"/><polygon fill="none" points="532.68,452.92,540.24,433.12,546.67,453.31,532.68,452.92" style="stroke: #A80036; stroke-width: 1.0;"/><!--MD5=[6782840a879ac8985cfb2087fb873003]
reverse link v to spinner--><path d="M600.63,429.38 C664.61,455.78 767.1,503.56 842,565 C860.41,580.1 877.04,601.85 887.72,617.38 " fill="none" id="v&lt;-spinner" style="stroke: #A80036; stroke-width: 1.0;"/><polygon fill="none" points="598,435.87,582.09,421.88,603.25,422.89,598,435.87" style="stroke: #A80036; stroke-width: 1.0;"/><!--MD5=[d150cff7ebad6b341f8ffe2de373ca83]
reverse link tv to EditText--><path d="M798.96,683.23 C807.72,700.31 817.26,718.88 824.16,732.34 " fill="none" id="tv&lt;-EditText" style="stroke: #A80036; stroke-width: 1.0;"/><polygon fill="none" points="792.65,686.27,789.75,665.28,805.11,679.88,792.65,686.27" style="stroke: #A80036; stroke-width: 1.0;"/><!--MD5=[36e5ab3f8df2773a3ce8c3d3c8e4d9e5]
reverse link vg to RelativeLayout--><path d="M471.82,539.37 C455.38,546.74 438.14,555.42 423,565 C399.05,580.16 374.87,601.89 358.83,617.41 " fill="none" id="vg&lt;-RelativeLayout" style="stroke: #A80036; stroke-width: 1.0;"/><polygon fill="none" points="469.1,532.93,490.24,531.49,474.61,545.8,469.1,532.93" style="stroke: #A80036; stroke-width: 1.0;"/><!--MD5=[a7c6d8fe7ae61097edf2c04705fbd486]
reverse link vg to LinearLayout--><path d="M565.82,549.14 C583.44,571.39 605.54,599.29 619.95,617.49 " fill="none" id="vg&lt;-LinearLayout" style="stroke: #A80036; stroke-width: 1.0;"/><polygon fill="none" points="560.08,553.17,553.16,533.14,571.06,544.47,560.08,553.17" style="stroke: #A80036; stroke-width: 1.0;"/><!--MD5=[712d38259981d90f41a3f59766e6d493]
reverse link vg to GridLayout--><path d="M523.37,552.13 C515.04,573.84 504.97,600.1 498.29,617.49 " fill="none" id="vg&lt;-GridLayout" style="stroke: #A80036; stroke-width: 1.0;"/><polygon fill="none" points="516.96,549.31,530.66,533.14,530.03,554.32,516.96,549.31" style="stroke: #A80036; stroke-width: 1.0;"/><!--MD5=[e4d3cc426456f5d45d45ed060c0df66b]
reverse link Activity to CRUDActivity--><path d="M1062.79,800.27 C1060.95,814.16 1059.03,828.62 1057.56,839.71 " fill="none" id="Activity&lt;-CRUDActivity" style="stroke: #A80036; stroke-width: 1.0;"/><polygon fill="none" points="1055.9,799.03,1065.47,780.12,1069.78,800.87,1055.9,799.03" style="stroke: #A80036; stroke-width: 1.0;"/><!--MD5=[a186c72b5daffbf539827d41f5dfd2f5]
reverse link Activity to DashboardActivity--><path d="M1124.91,791.56 C1148.91,807.89 1175.91,826.27 1195.66,839.71 " fill="none" id="Activity&lt;-DashboardActivity" style="stroke: #A80036; stroke-width: 1.0;"/><polygon fill="none" points="1120.71,797.16,1108.11,780.12,1128.59,785.59,1120.71,797.16" style="stroke: #A80036; stroke-width: 1.0;"/><!--MD5=[73edb92cbf6f5fd1a94ac623a986a9b8]
reverse link Context to ContextWrapper--><path d="M1080,453.27 C1080,467.16 1080,481.62 1080,492.71 " fill="none" id="Context&lt;-ContextWrapper" style="stroke: #A80036; stroke-width: 1.0;"/><polygon fill="none" points="1073,453.12,1080,433.12,1087,453.12,1073,453.12" style="stroke: #A80036; stroke-width: 1.0;"/><!--MD5=[0dc354cc712a802d45b039ae7422e2be]
reverse link ContextWrapper to ContextThemeWrapper--><path d="M1080,553.48 C1080,574.92 1080,600.46 1080,617.49 " fill="none" id="ContextWrapper&lt;-ContextThemeWrapper" style="stroke: #A80036; stroke-width: 1.0;"/><polygon fill="none" points="1073,553.14,1080,533.14,1087,553.14,1073,553.14" style="stroke: #A80036; stroke-width: 1.0;"/><!--MD5=[9ea08f31f7c66e0c412836f0b23f6e3b]
reverse link ContextThemeWrapper to Activity--><path d="M1076.18,677.72 C1074.68,693.2 1072.98,710.59 1071.62,724.6 " fill="none" id="ContextThemeWrapper&lt;-Activity" style="stroke: #A80036; stroke-width: 1.0;"/><polygon fill="none" points="1069.23,676.9,1078.13,657.67,1083.16,678.25,1069.23,676.9" style="stroke: #A80036; stroke-width: 1.0;"/><!--MD5=[deebf1b63cb23cf82a2dbbb38a45afa9]
reverse link Layout to v--><path d="M395.4,228.92 C428.44,268.77 486.94,339.32 518.81,377.74 " fill="none" id="Layout&lt;-v" style="stroke: #A80036; stroke-width: 1.0;"/><polygon fill="#A80036" points="386.99,218.79,387.7441,225.9616,394.654,228.0238,393.8999,220.8522,386.99,218.79" style="stroke: #A80036; stroke-width: 1.0;"/><!--MD5=[efbee15d2fb1fc3b03b41487b5e7fb30]
link Application to MyActivity--><path d="M94.1785,784.8416 C94.1785,784.8416 95.29,813.8 95.78,826.71 " fill="none" id="Application-MyActivity" style="stroke: #A80036; stroke-width: 1.0;"/><polygon fill="#A80036" points="96.27,839.77,99.9312,830.6269,96.0833,834.7735,91.9368,830.9256,96.27,839.77" style="stroke: #A80036; stroke-width: 1.0;"/><line style="stroke: #A80036; stroke-width: 1.0;" x1="96.0833" x2="95.78" y1="834.7735" y2="826.78"/><polygon fill="#A80036" points="93.73,772.85,89.9571,778.9953,94.1785,784.8416,97.9515,778.6963,93.73,772.85" style="stroke: #A80036; stroke-width: 1.0;"/><!--MD5=[073ad1baae62c9cc694eb4d389a9356b]
reverse link v to tv--><path d="M586.11,446.69 C620.93,478.16 669.94,523.42 711,565 C725.26,579.44 740.56,596.21 752.74,609.87 " fill="none" id="v&lt;-tv" style="stroke: #A80036; stroke-width: 1.0;"/><polygon fill="none" points="581.37,451.85,571.19,433.26,590.74,441.44,581.37,451.85" style="stroke: #A80036; stroke-width: 1.0;"/><!--MD5=[36d205706d7e06e6d1ae2ef9c888f0d7]
reverse link tv to b--><path d="M753.04,683.23 C744.28,700.31 734.74,718.88 727.84,732.34 " fill="none" id="tv&lt;-b" style="stroke: #A80036; stroke-width: 1.0;"/><polygon fill="none" points="746.89,679.88,762.25,665.28,759.35,686.27,746.89,679.88" style="stroke: #A80036; stroke-width: 1.0;"/><!--MD5=[505379623470882f53bcb4cb969fe5a4]
link Activity to Activity--><path d="M1131.04,732.64 C1150.58,732.94 1166,739.56 1166,752.5 C1166,764.23 1153.34,770.76 1136.42,772.11 " fill="none" id="Activity-&gt;Activity" style="stroke: #A80036; stroke-width: 1.0;"/><polygon fill="#A80036" points="1131.04,772.36,1140.2235,775.9187,1136.0341,772.1174,1139.8353,767.9281,1131.04,772.36" style="stroke: #A80036; stroke-width: 1.0;"/><!--MD5=[a5ebdad99d80854cd129f541190222da]
reverse link Activity to MyActivity--><path d="M990.61,786.9 C979.48,790.67 968.06,794.03 957,796.5 C801.31,831.24 308.79,851.46 148.19,857.25 " fill="none" id="Activity&lt;-MyActivity" style="stroke: #A80036; stroke-width: 1.0;"/><polygon fill="none" points="988.37,780.27,1009.55,780.04,993.14,793.43,988.37,780.27" style="stroke: #A80036; stroke-width: 1.0;"/><!--MD5=[eebbb6665fba7a4c2765089f6fbe6f05]
link MyActivity to Layout--><path d="M124.98,839.73 C139.02,828.65 155.1,813.56 165,796.5 C201.15,734.21 201,710.52 201,638.5 C201,512 201,512 201,512 C201,390.41 301.54,271.02 347.98,222.35 " fill="none" id="MyActivity-&gt;Layout" style="stroke: #A80036; stroke-width: 1.0;"/><polygon fill="#A80036" points="351.5,218.69,342.3884,222.4289,348.0439,222.3032,348.1696,227.9587,351.5,218.69" style="stroke: #A80036; stroke-width: 1.0;"/><!--MD5=[34f885736a3eb8962e78e7554052fec4]
reverse link String to Layout--><path d="M371,106.94 C371,128.21 371,158.6 371,178.19 " fill="none" id="String&lt;-Layout" style="stroke: #A80036; stroke-width: 1.0; stroke-dasharray: 7.0,7.0;"/><polygon fill="#A80036" points="371,101.75,367,110.75,371,106.75,375,110.75,371,101.75" style="stroke: #A80036; stroke-width: 1.0;"/><text fill="#888888" font-family="Monaco" font-size="10" lengthAdjust="spacingAndGlyphs" textLength="222" x="576" y="956.835">CC BY-SA 3.0 - http://jmb.c.la - 2015</text><!--MD5=[0b7f7ab01571405d7a32e795e365978f]
@startuml
skinparam defaultFontName Monaco
skinparam package {
 	BackgroundColor LightGrey
}
center footer CC BY-SA 3.0 - http://jmb.c.la - 2015
hide members
show methods
package android #DDDDDD {
	package android.view {
		class "View" as v << (A,green)>> {
			setId(int)
		}
		class "ViewGroup" as vg << (A,green)>>
		v <|- - vg
	}
	package android.widget {
		class "TextView" as tv << (A,green)>> {
			setText(...)
		}
		class "Button" as b << (A,green)>>
		class "Spinner" as spinner << (A,green)>>
		v <|- - spinner
		class EditText << (A,green)>>
		tv <|- - EditText
		class RelativeLayout << (A,green)>>
		class LinearLayout << (A,green)>>
		class GridLayout << (A,green)>>
		vg <|- - RelativeLayout
		vg <|- - LinearLayout
		vg <|- - GridLayout

	}
	package android.app #DDDDDD {
		abstract class Activity << (A,green)>> {
			onCreate(Bundle)
		}
		abstract class CRUDActivity << (A,green)>>
		class DashboardActivity << (A,green)>>
		Activity <|- - CRUDActivity
		Activity <|- - DashboardActivity
		package fragment {
			abstract class Fragment << (A,green)>>
	  	}
		Class Context << (A,green)>> {
			startActivity()
		}
		Class ContextWrapper  << (A,green)>>
		Class ContextThemeWrapper  << (A,green)>>
		Context <|- - ContextWrapper
		ContextWrapper <|- - ContextThemeWrapper
		ContextThemeWrapper <|- - Activity
	}
}
package layout #DDDDDD {
	class Layout << (A,green)>>
	Layout *- - v
}
package Resources #DDDDDD {
  class "String.xml" as String << (X,green)>>
}
package com.MyCompany #FFFFF {
	Application *- -> MyActivity
}
v <|- - tv
tv <|- - b
class Layout << (X,white) >>
Activity - -> Activity
Activity <|- - MyActivity
MyActivity -> Layout
String  <.. Layout
@enduml

PlantUML version 1.2019.12(Sun Nov 03 11:24:54 CET 2019)
(APACHE source distribution)
Java Runtime: Java(TM) SE Runtime Environment
JVM: Java HotSpot(TM) 64-Bit Server VM
Java Version: 15+36-1562
Operating System: Mac OS X
Default Encoding: UTF-8
Language: fr
Country: FR
--></g></svg>