<?xml version="1.0" encoding="UTF-8" standalone="no"?><svg xmlns="http://www.w3.org/2000/svg" xmlns:xlink="http://www.w3.org/1999/xlink" contentScriptType="application/ecmascript" contentStyleType="text/css" height="447px" preserveAspectRatio="none" style="width:856px;height:447px;" version="1.1" viewBox="0 0 856 447" width="856px" zoomAndPan="magnify"><defs><filter height="300%" id="fkzn5wxwi2nwb" width="300%" x="-1" y="-1"><feGaussianBlur result="blurOut" stdDeviation="2.0"/><feColorMatrix in="blurOut" result="blurOut2" type="matrix" values="0 0 0 0 0 0 0 0 0 0 0 0 0 0 0 0 0 0 .4 0"/><feOffset dx="4.0" dy="4.0" in="blurOut2" result="blurOut3"/><feBlend in="SourceGraphic" in2="blurOut3" mode="normal"/></filter></defs><g><!--cluster android.app--><polygon fill="#D3D3D3" filter="url(#fkzn5wxwi2nwb)" points="384.5,16,478.5,16,485.5,40.6689,553.5,40.6689,553.5,79,384.5,79,384.5,16" style="stroke: #000000; stroke-width: 1.5;"/><line style="stroke: #000000; stroke-width: 1.5;" x1="384.5" x2="485.5" y1="40.6689" y2="40.6689"/><text fill="#000000" font-family="Monaco" font-size="14" font-weight="bold" lengthAdjust="spacingAndGlyphs" textLength="88" x="388.5" y="33.1689">android.app</text><!--cluster android.content--><polygon fill="#D3D3D3" filter="url(#fkzn5wxwi2nwb)" points="263.5,216,389.5,216,396.5,240.6689,634.5,240.6689,634.5,279,263.5,279,263.5,216" style="stroke: #000000; stroke-width: 1.5;"/><line style="stroke: #000000; stroke-width: 1.5;" x1="263.5" x2="396.5" y1="240.6689" y2="240.6689"/><text fill="#000000" font-family="Monaco" font-size="14" font-weight="bold" lengthAdjust="spacingAndGlyphs" textLength="120" x="267.5" y="233.1689">android.content</text><!--class android.app.Activity--><rect fill="#FEFECE" filter="url(#fkzn5wxwi2nwb)" height="26.002" id="android.app.Activity" style="stroke: #A80036; stroke-width: 1.5;" width="62" x="392.5" y="45"/><text fill="#000000" font-family="Monaco" font-size="12" lengthAdjust="spacingAndGlyphs" textLength="56" x="395.5" y="63.002">Activity</text><!--class android.app.Service--><rect fill="#FEFECE" filter="url(#fkzn5wxwi2nwb)" height="26.002" id="android.app.Service" style="stroke: #A80036; stroke-width: 1.5;" width="55" x="490" y="45"/><text fill="#000000" font-family="Monaco" font-size="12" lengthAdjust="spacingAndGlyphs" textLength="49" x="493" y="63.002">Service</text><!--class android.content.ContentProvider--><rect fill="#FEFECE" filter="url(#fkzn5wxwi2nwb)" height="26.002" id="android.content.ContentProvider" style="stroke: #A80036; stroke-width: 1.5;" width="111" x="515" y="245"/><text fill="#000000" font-family="Monaco" font-size="12" lengthAdjust="spacingAndGlyphs" textLength="105" x="518" y="263.002">ContentProvider</text><!--class android.content.BroadcastReceiver--><rect fill="#FEFECE" filter="url(#fkzn5wxwi2nwb)" height="26.002" id="android.content.BroadcastReceiver" style="stroke: #A80036; stroke-width: 1.5;" width="125" x="355" y="245"/><text fill="#000000" font-family="Monaco" font-size="12" lengthAdjust="spacingAndGlyphs" textLength="119" x="358" y="263.002">BroadcastReceiver</text><!--class android.content.Intent--><rect fill="#FEFECE" filter="url(#fkzn5wxwi2nwb)" height="26.002" id="android.content.Intent" style="stroke: #A80036; stroke-width: 1.5;" width="48" x="271.5" y="245"/><text fill="#000000" font-family="Monaco" font-size="12" lengthAdjust="spacingAndGlyphs" textLength="42" x="274.5" y="263.002">Intent</text><!--class Activities--><rect fill="#90EE90" filter="url(#fkzn5wxwi2nwb)" height="26.002" id="Activities" style="stroke: #A80036; stroke-width: 1.5;" width="76" x="257.5" y="132"/><text fill="#000000" font-family="Monaco" font-size="12" lengthAdjust="spacingAndGlyphs" textLength="70" x="260.5" y="150.002">Activities</text><!--class Application--><rect fill="#FEFECE" filter="url(#fkzn5wxwi2nwb)" height="26.002" id="Application" style="stroke: #A80036; stroke-width: 1.5;" width="83" x="254" y="45"/><text fill="#000000" font-family="Monaco" font-size="12" lengthAdjust="spacingAndGlyphs" textLength="77" x="257" y="63.002">Application</text><!--class screen--><rect fill="#FEFECE" filter="url(#fkzn5wxwi2nwb)" height="42.0039" id="screen" style="stroke: #A80036; stroke-width: 1.5;" width="55" x="6" y="237"/><text fill="#000000" font-family="Monaco" font-size="12" lengthAdjust="spacingAndGlyphs" textLength="42" x="9" y="255.002">Single</text><text fill="#000000" font-family="Monaco" font-size="12" lengthAdjust="spacingAndGlyphs" textLength="42" x="12.5" y="271.0039">Screen</text><!--class Services--><rect fill="#90EE90" filter="url(#fkzn5wxwi2nwb)" height="26.002" id="Services" style="stroke: #A80036; stroke-width: 1.5;" width="62" x="506.5" y="132"/><text fill="#000000" font-family="Monaco" font-size="12" lengthAdjust="spacingAndGlyphs" textLength="56" x="509.5" y="150.002">Services</text><!--class cp--><rect fill="#90EE90" filter="url(#fkzn5wxwi2nwb)" height="42.0039" id="cp" style="stroke: #A80036; stroke-width: 1.5;" width="69" x="675" y="358"/><text fill="#000000" font-family="Monaco" font-size="12" lengthAdjust="spacingAndGlyphs" textLength="49" x="681.5" y="376.002">Content</text><text fill="#000000" font-family="Monaco" font-size="12" lengthAdjust="spacingAndGlyphs" textLength="63" x="678" y="392.0039">Providers</text><!--class api--><rect fill="#FEFECE" filter="url(#fkzn5wxwi2nwb)" height="42.0039" id="api" style="stroke: #A80036; stroke-width: 1.5;" width="97" x="661" y="237"/><text fill="#000000" font-family="Monaco" font-size="12" font-style="italic" lengthAdjust="spacingAndGlyphs" textLength="84" x="664" y="255.002">Standard Set</text><text fill="#000000" font-family="Monaco" font-size="12" font-style="italic" lengthAdjust="spacingAndGlyphs" textLength="49" x="685" y="271.0039">of APIs</text><!--class broad--><rect fill="#90EE90" filter="url(#fkzn5wxwi2nwb)" height="42.0039" id="broad" style="stroke: #A80036; stroke-width: 1.5;" width="76" x="257.5" y="358"/><text fill="#000000" font-family="Monaco" font-size="12" lengthAdjust="spacingAndGlyphs" textLength="63" x="260.5" y="376.002">Broadcast</text><text fill="#000000" font-family="Monaco" font-size="12" lengthAdjust="spacingAndGlyphs" textLength="56" x="267.5" y="392.0039">Receiver</text><!--link android.app.Activity to Activities--><path d="M387.455,82.4993 C363.8686,98.5307 333.9776,118.8473 314.7939,131.8862 " fill="none" id="android.app.Activity-Activities" style="stroke: #A80036; stroke-width: 1.0;"/><polygon fill="none" points="383.8612,76.4782,404.3371,71.0248,391.7311,88.0568,383.8612,76.4782" style="stroke: #A80036; stroke-width: 1.0;"/><!--link Application to Activities--><path d="M295.5,84.3714 C295.5,95.3157 295.5,107.9815 295.5,118.8974 " fill="none" id="Application-Activities" style="stroke: #A80036; stroke-width: 1.0;"/><polygon fill="#A80036" points="295.5,131.9473,299.5,122.9473,295.5,126.9473,291.5,122.9473,295.5,131.9473" style="stroke: #A80036; stroke-width: 1.0;"/><line style="stroke: #A80036; stroke-width: 1.0;" x1="295.5" x2="295.5001" y1="126.9473" y2="118.9473"/><polygon fill="#A80036" points="295.5,71.2134,291.5,77.2134,295.5,83.2134,299.5,77.2134,295.5,71.2134" style="stroke: #A80036; stroke-width: 1.0;"/><text fill="#000000" font-family="Monaco" font-size="13" lengthAdjust="spacingAndGlyphs" textLength="32" x="257.4" y="120.8794">1..*</text><!--link Activities to screen--><path d="M257.3574,148.4712 C187.5507,155.2112 45.0351,170.9162 30.5,188 C20.4611,199.7991 21.1534,217.1835 24.384,231.6754 " fill="none" id="Activities-screen" style="stroke: #A80036; stroke-width: 1.0;"/><polygon fill="#A80036" points="25.6739,236.868,27.3859,227.1691,24.4683,232.0155,19.6219,229.098,25.6739,236.868" style="stroke: #A80036; stroke-width: 1.0;"/><text fill="#000000" font-family="Monaco" font-size="13" lengthAdjust="spacingAndGlyphs" textLength="80" x="31.5" y="203.0854">represents</text><!--link android.app.Service to Services--><path d="M525.04,90.7992 C528.3306,105.1131 532.0001,121.0752 534.4994,131.9473 " fill="none" id="android.app.Service-Services" style="stroke: #A80036; stroke-width: 1.0;"/><polygon fill="none" points="518.1964,92.2733,520.5376,71.2134,531.8405,89.1367,518.1964,92.2733" style="stroke: #A80036; stroke-width: 1.0;"/><!--link Activities to Services--><path d="M333.5787,145 C381.2309,145 461.943,145 506.1853,145 " fill="none" id="Activities-Services" style="stroke: #A80036; stroke-width: 1.0;"/><text fill="#000000" font-family="Monaco" font-size="13" lengthAdjust="spacingAndGlyphs" textLength="136" x="352" y="138.0854">can interact with</text><!--link android.content.ContentProvider to cp--><path d="M600.9239,284.4841 C626.2664,306.5448 661.8779,337.5448 685.3098,357.9423 " fill="none" id="android.content.ContentProvider-cp" style="stroke: #A80036; stroke-width: 1.0;"/><polygon fill="none" points="596.1291,289.5909,585.64,271.1795,605.3212,279.0313,596.1291,289.5909" style="stroke: #A80036; stroke-width: 1.0;"/><!--link api to cp--><path d="M709.5,299.1432 C709.5,318.8373 709.5,341.5903 709.5,357.7589 " fill="none" id="api-cp" style="stroke: #A80036; stroke-width: 1.0; stroke-dasharray: 7.0,7.0;"/><polygon fill="none" points="702.5001,299.0766,709.5,279.0766,716.5001,299.0766,702.5001,299.0766" style="stroke: #A80036; stroke-width: 1.0;"/><!--link android.content.BroadcastReceiver to broad--><path d="M412.7559,290.977 C409.582,303.6687 404.2958,317.5963 395.5,328 C379.5204,346.9008 354.7846,359.6 333.9132,367.5991 " fill="none" id="android.content.BroadcastReceiver-broad" style="stroke: #A80036; stroke-width: 1.0;"/><polygon fill="none" points="405.9165,289.4654,416.4203,271.0624,419.6853,291.999,405.9165,289.4654" style="stroke: #A80036; stroke-width: 1.0;"/><!--link Activities to android.content.Intent--><path d="M295.5,158.4063 C295.5,178.6483 295.5,217.059 295.5,239.808 " fill="none" id="Activities-android.content.Intent" style="stroke: #A80036; stroke-width: 1.0;"/><polygon fill="#A80036" points="295.5,244.9599,299.5,235.9599,295.5,239.9599,291.5,235.9599,295.5,244.9599" style="stroke: #A80036; stroke-width: 1.0;"/><text fill="#000000" font-family="Monaco" font-size="13" lengthAdjust="spacingAndGlyphs" textLength="96" x="296.5" y="203.0854">activated by</text><!--link Services to android.content.Intent--><path d="M514.2249,158.1299 C487.7604,172.4525 442.8531,194.9419 401.5,207 C373.9241,215.0408 363.2058,203.1822 337.5,216 C326.0799,221.6944 315.8864,231.6978 308.4022,240.5136 " fill="none" id="Services-android.content.Intent" style="stroke: #A80036; stroke-width: 1.0;"/><polygon fill="#A80036" points="304.9523,244.7219,313.7515,240.2977,308.1222,240.8551,307.5647,235.2258,304.9523,244.7219" style="stroke: #A80036; stroke-width: 1.0;"/><text fill="#000000" font-family="Monaco" font-size="13" lengthAdjust="spacingAndGlyphs" textLength="96" x="452.5" y="203.0854">activated by</text><!--link android.content.Intent to broad--><path d="M294.5986,276.527 C294.1722,286.2014 293.711,298.236 293.5,309 C293.1784,325.4098 293.7521,343.9788 294.3664,357.8663 " fill="none" id="android.content.Intent-broad" style="stroke: #A80036; stroke-width: 1.0;"/><polygon fill="#A80036" points="294.8301,271.4181,290.4266,280.2277,294.6037,276.413,298.4184,280.59,294.8301,271.4181" style="stroke: #A80036; stroke-width: 1.0;"/><text fill="#000000" font-family="Monaco" font-size="13" lengthAdjust="spacingAndGlyphs" textLength="96" x="294.5" y="324.0854">activated by</text><!--link Activities to cp--><path d="M333.6258,147.8102 C442.1181,156.1905 746.6059,182.5176 775.5,216 C810.8635,256.9791 765.5896,319.3771 734.408,353.872 " fill="none" id="Activities-cp" style="stroke: #A80036; stroke-width: 1.0;"/><polygon fill="#A80036" points="730.6816,357.9371,739.7117,354.0056,734.0602,354.2513,733.8145,348.5998,730.6816,357.9371" style="stroke: #A80036; stroke-width: 1.0;"/><text fill="#000000" font-family="Monaco" font-size="13" lengthAdjust="spacingAndGlyphs" textLength="56" x="788.5" y="263.5854">can use</text><!--link Activities to broad--><path d="M257.2058,153.052 C224.3642,162.201 179.04,180.6941 157.5,216 C142.917,239.9027 144.7727,254.0598 157.5,279 C177.3044,317.8085 219.9869,345.0582 252.6744,361.2057 " fill="none" id="Activities-broad" style="stroke: #A80036; stroke-width: 1.0;"/><polygon fill="#A80036" points="257.4207,363.5077,251.0683,355.9813,252.9219,361.3259,247.5773,363.1794,257.4207,363.5077" style="stroke: #A80036; stroke-width: 1.0;"/><text fill="#000000" font-family="Monaco" font-size="13" lengthAdjust="spacingAndGlyphs" textLength="96" x="158.5" y="263.5854">can initiate</text><text fill="#888888" font-family="Monaco" font-size="10" lengthAdjust="spacingAndGlyphs" textLength="438" x="210" y="420.835">For more: http://developer.android.com/guide/components/fundamentals.html</text><text fill="#888888" font-family="Monaco" font-size="10" lengthAdjust="spacingAndGlyphs" textLength="222" x="321" y="434.1699">CC BY-SA 3.0 - http://jmb.c.la - 2015</text><!--
@startuml
skinparam defaultFontName Monaco
skinparam package {
 	BackgroundColor LightGrey
}
skinparam ClassBackgroundColor<<MAIN>> LightGreen
center footer For more: http://developer.android.com/guide/components/fundamentals.html \nCC BY-SA 3.0 - http://jmb.c.la - 2015

hide members
hide stereotypes
hide circle
class Activities  <<MAIN>>
android.app.Activity <|- - Activities
Application *- -> "1..*" Activities

class "Single \nScreen" as screen
Activities - -> screen : represents

class Services <<MAIN>>
android.app.Service <|- - Services
Activities - Services : can interact with

class "Content \nProviders" as cp <<MAIN>>
android.content.ContentProvider <|- - cp
Interface "Standard Set \nof APIs" as api
api <|.. cp

class "Broadcast \nReceiver" as broad <<MAIN>>
android.content.BroadcastReceiver <|- - broad

Activities -> android.content.Intent : activated by
Services - -> android.content.Intent : activated by
android.content.Intent <- - broad : activated by

Activities - -> cp : can use
Activities - -> broad : can initiate

@enduml

PlantUML version 1.2018.10(Sat Aug 25 19:02:59 CEST 2018)
(APACHE source distribution)
Java Runtime: Java(TM) SE Runtime Environment
JVM: Java HotSpot(TM) 64-Bit Server VM
Java Version: 1.8.0_152-b16
Operating System: Mac OS X
OS Version: 10.14.1
Default Encoding: UTF-8
Language: fr
Country: FR
--></g></svg>