<?xml version="1.0" encoding="UTF-8" standalone="yes"?><svg xmlns="http://www.w3.org/2000/svg" xmlns:xlink="http://www.w3.org/1999/xlink" height="384px" style="width:255px;height:384px;" version="1.1" viewBox="0 0 255 384" width="255px"><defs><filter height="300%" id="f1" width="300%" x="-1" y="-1"><feGaussianBlur result="blurOut" stdDeviation="2.0"/><feColorMatrix in="blurOut" result="blurOut2" type="matrix" values="0 0 0 0 0 0 0 0 0 0 0 0 0 0 0 0 0 0 .4 0"/><feOffset dx="4.0" dy="4.0" in="blurOut2" result="blurOut3"/><feBlend in="SourceGraphic" in2="blurOut3" mode="normal"/></filter></defs><g><polygon fill="#DDDDDD" filter="url(#f1)" points="22,24,84,24,91,48.6689,248,48.6689,248,347,22,347,22,24" style="stroke: #000000; stroke-width: 2.0;"/><line style="stroke: #000000; stroke-width: 2.0;" x1="22" x2="91" y1="48.6689" y2="48.6689"/><text fill="#000000" font-family="Monaco" font-size="14" font-weight="bold" lengthAdjust="spacingAndGlyphs" textLength="56" x="25" y="42.1689">android</text><rect fill="#FEFECE" filter="url(#f1)" height="54.6685" style="stroke: #A80036; stroke-width: 1.5;" width="151" x="59.5" y="61"/><ellipse cx="74.5" cy="77" fill="#008000" rx="11" ry="11" style="stroke: #A80036; stroke-width: 1.0;"/><path d="M74.3633,72.3481 L73.2095,77.4199 L75.5254,77.4199 Z M72.8691,70.1069 L75.8657,70.1069 L79.2109,82.5 L76.7622,82.5 L75.9985,79.437 L72.7197,79.437 L71.9727,82.5 L69.5239,82.5 Z "/><text fill="#000000" font-family="Monaco" font-size="12" lengthAdjust="spacingAndGlyphs" textLength="119" x="88.5" y="82.001">android.view.View</text><line style="stroke: #A80036; stroke-width: 1.5;" x1="60.5" x2="209.5" y1="93" y2="93"/><text fill="#000000" font-family="Monaco" font-size="11" lengthAdjust="spacingAndGlyphs" textLength="70" x="65.5" y="108.9185">setId(int)</text><rect fill="#FEFECE" filter="url(#f1)" height="54.6685" style="stroke: #A80036; stroke-width: 1.5;" width="193" x="38.5" y="176"/><ellipse cx="53.5" cy="192" fill="#008000" rx="11" ry="11" style="stroke: #A80036; stroke-width: 1.0;"/><path d="M53.3633,187.3481 L52.2095,192.4199 L54.5254,192.4199 Z M51.8691,185.1069 L54.8657,185.1069 L58.2109,197.5 L55.7622,197.5 L54.9985,194.437 L51.7197,194.437 L50.9727,197.5 L48.5239,197.5 Z "/><text fill="#000000" font-family="Monaco" font-size="12" lengthAdjust="spacingAndGlyphs" textLength="161" x="67.5" y="197.001">android.widget.TextView</text><line style="stroke: #A80036; stroke-width: 1.5;" x1="39.5" x2="230.5" y1="208" y2="208"/><text fill="#000000" font-family="Monaco" font-size="11" lengthAdjust="spacingAndGlyphs" textLength="84" x="44.5" y="223.9185">setText(...)</text><rect fill="#FEFECE" filter="url(#f1)" height="40" style="stroke: #A80036; stroke-width: 1.5;" width="179" x="45.5" y="291"/><ellipse cx="60.5" cy="307" fill="#008000" rx="11" ry="11" style="stroke: #A80036; stroke-width: 1.0;"/><path d="M60.3633,302.3481 L59.2095,307.4199 L61.5254,307.4199 Z M58.8691,300.1069 L61.8657,300.1069 L65.2109,312.5 L62.7622,312.5 L61.9985,309.437 L58.7197,309.437 L57.9727,312.5 L55.5239,312.5 Z "/><text fill="#000000" font-family="Monaco" font-size="12" lengthAdjust="spacingAndGlyphs" textLength="147" x="74.5" y="312.001">android.widget.Button</text><line style="stroke: #A80036; stroke-width: 1.5;" x1="46.5" x2="223.5" y1="323" y2="323"/><path d="M135,136.39 C135,149.88 135,164.12 135,175.91 " fill="none" style="stroke: #A80036; stroke-width: 1.0;"/><polygon fill="none" points="128,136.28,135,116.28,142,136.28,128,136.28" style="stroke: #A80036; stroke-width: 1.0;"/><path d="M135,251.27 C135,265.16 135,279.62 135,290.71 " fill="none" style="stroke: #A80036; stroke-width: 1.0;"/><polygon fill="none" points="128,251.12,135,231.12,142,251.12,128,251.12" style="stroke: #A80036; stroke-width: 1.0;"/><text fill="#888888" font-family="Monaco" font-size="10" lengthAdjust="spacingAndGlyphs" textLength="222" x="30" y="383.835">CC BY-SA 3.0 - http://jmb.c.la - 2015</text></g></svg>