<?xml version="1.0" encoding="UTF-8" standalone="no"?><svg xmlns="http://www.w3.org/2000/svg" xmlns:xlink="http://www.w3.org/1999/xlink" contentScriptType="application/ecmascript" contentStyleType="text/css" height="365px" preserveAspectRatio="none" style="width:248px;height:365px;" version="1.1" viewBox="0 0 248 365" width="248px" zoomAndPan="magnify"><defs><filter height="300%" id="f5p151wujla81" width="300%" x="-1" y="-1"><feGaussianBlur result="blurOut" stdDeviation="2.0"/><feColorMatrix in="blurOut" result="blurOut2" type="matrix" values="0 0 0 0 0 0 0 0 0 0 0 0 0 0 0 0 0 0 .4 0"/><feOffset dx="4.0" dy="4.0" in="blurOut2" result="blurOut3"/><feBlend in="SourceGraphic" in2="blurOut3" mode="normal"/></filter></defs><g><!--cluster android--><polygon fill="#DDDDDD" filter="url(#f5p151wujla81)" points="14,16,76,16,83,40.6689,224,40.6689,224,323,14,323,14,16" style="stroke: #000000; stroke-width: 1.5;"/><line style="stroke: #000000; stroke-width: 1.5;" x1="14" x2="83" y1="40.6689" y2="40.6689"/><text fill="#000000" font-family="Monaco" font-size="14" font-weight="bold" lengthAdjust="spacingAndGlyphs" textLength="56" x="18" y="33.1689">android</text><!--class v--><rect fill="#FEFECE" filter="url(#f5p151wujla81)" height="54.6685" id="v" style="stroke: #A80036; stroke-width: 1.5;" width="151" x="43.5" y="45"/><ellipse cx="58.5" cy="61" fill="#008000" rx="11" ry="11" style="stroke: #A80036; stroke-width: 1.0;"/><path d="M58.6133,56.5981 L57.4595,61.6699 L59.7754,61.6699 Z M57.1191,54.3569 L60.1157,54.3569 L63.4609,66.75 L61.0122,66.75 L60.2485,63.687 L56.9697,63.687 L56.2227,66.75 L53.7739,66.75 Z "/><text fill="#000000" font-family="Monaco" font-size="12" lengthAdjust="spacingAndGlyphs" textLength="119" x="72.5" y="66.001">android.view.View</text><line style="stroke: #A80036; stroke-width: 1.5;" x1="44.5" x2="193.5" y1="77" y2="77"/><text fill="#000000" font-family="Monaco" font-size="11" lengthAdjust="spacingAndGlyphs" textLength="70" x="49.5" y="92.9185">setId(int)</text><!--class tv--><rect fill="#FEFECE" filter="url(#f5p151wujla81)" height="54.6685" id="tv" style="stroke: #A80036; stroke-width: 1.5;" width="193" x="22.5" y="160"/><ellipse cx="37.5" cy="176" fill="#008000" rx="11" ry="11" style="stroke: #A80036; stroke-width: 1.0;"/><path d="M37.6133,171.5981 L36.4595,176.6699 L38.7754,176.6699 Z M36.1191,169.3569 L39.1157,169.3569 L42.4609,181.75 L40.0122,181.75 L39.2485,178.687 L35.9697,178.687 L35.2227,181.75 L32.7739,181.75 Z "/><text fill="#000000" font-family="Monaco" font-size="12" lengthAdjust="spacingAndGlyphs" textLength="161" x="51.5" y="181.001">android.widget.TextView</text><line style="stroke: #A80036; stroke-width: 1.5;" x1="23.5" x2="214.5" y1="192" y2="192"/><text fill="#000000" font-family="Monaco" font-size="11" lengthAdjust="spacingAndGlyphs" textLength="84" x="28.5" y="207.9185">setText(...)</text><!--class b--><rect fill="#FEFECE" filter="url(#f5p151wujla81)" height="40" id="b" style="stroke: #A80036; stroke-width: 1.5;" width="179" x="29.5" y="275"/><ellipse cx="44.5" cy="291" fill="#008000" rx="11" ry="11" style="stroke: #A80036; stroke-width: 1.0;"/><path d="M44.6133,286.5981 L43.4595,291.6699 L45.7754,291.6699 Z M43.1191,284.3569 L46.1157,284.3569 L49.4609,296.75 L47.0122,296.75 L46.2485,293.687 L42.9697,293.687 L42.2227,296.75 L39.7739,296.75 Z "/><text fill="#000000" font-family="Monaco" font-size="12" lengthAdjust="spacingAndGlyphs" textLength="147" x="58.5" y="296.001">android.widget.Button</text><line style="stroke: #A80036; stroke-width: 1.5;" x1="30.5" x2="207.5" y1="307" y2="307"/><!--link v to tv--><path d="M119,120.1826 C119,133.6685 119,147.8968 119,159.7808 " fill="none" id="v-tv" style="stroke: #A80036; stroke-width: 1.0;"/><polygon fill="none" points="112.0001,120.0454,119,100.0454,126.0001,120.0453,112.0001,120.0454" style="stroke: #A80036; stroke-width: 1.0;"/><!--link tv to b--><path d="M119,235.3769 C119,249.2725 119,263.698 119,274.8786 " fill="none" id="tv-b" style="stroke: #A80036; stroke-width: 1.0;"/><polygon fill="none" points="112.0001,235.184,119,215.1839,126.0001,235.1839,112.0001,235.184" style="stroke: #A80036; stroke-width: 1.0;"/><text fill="#888888" font-family="Monaco" font-size="10" lengthAdjust="spacingAndGlyphs" textLength="222" x="14" y="351.835">CC BY-SA 3.0 - http://jmb.c.la - 2015</text><!--
@startuml
skinparam defaultFontName Monaco
center footer CC BY-SA 3.0 - http://jmb.c.la - 2015
hide members
show methods
package android #DDDDDD {
  class "android.view.View" as v << (A,green)>> {
  	setId(int)
  }
  class "android.widget.TextView" as tv << (A,green)>> {
  	setText(...)
  }
  class "android.widget.Button" as b << (A,green)>> {
  }
}
v <|- - tv
tv <|- - b
@enduml

PlantUML version 1.2018.10(Sat Aug 25 19:02:59 CEST 2018)
(APACHE source distribution)
Java Runtime: Java(TM) SE Runtime Environment
JVM: Java HotSpot(TM) 64-Bit Server VM
Java Version: 1.8.0_152-b16
Operating System: Mac OS X
OS Version: 10.14.1
Default Encoding: UTF-8
Language: fr
Country: FR
--></g></svg>