<?xml version="1.0" encoding="UTF-8"?><svg xmlns="http://www.w3.org/2000/svg" xmlns:xlink="http://www.w3.org/1999/xlink" fill-opacity="1" color-rendering="auto" color-interpolation="auto" text-rendering="auto" stroke="black" stroke-linecap="square" width="415" stroke-miterlimit="10" shape-rendering="auto" stroke-opacity="1" fill="black" stroke-dasharray="none" font-weight="normal" stroke-width="1" height="315" font-family="'Dialog'" font-style="normal" stroke-linejoin="miter" font-size="12px" stroke-dashoffset="0" image-rendering="auto">
  <!--Generated by ySVG 2.5-->
  <defs id="genericDefs"/>
  <g>
    <defs id="defs1">
      <linearGradient x1="394.6055" gradientUnits="userSpaceOnUse" x2="478.3379" y1="48" y2="88" id="linearGradient1" spreadMethod="reflect">
        <stop stop-opacity="1" stop-color="rgb(232,238,247)" offset="0%"/>
        <stop stop-opacity="1" stop-color="rgb(183,201,227)" offset="100%"/>
      </linearGradient>
      <linearGradient x1="291.8027" gradientUnits="userSpaceOnUse" x2="375.5352" y1="159" y2="199" id="linearGradient2" spreadMethod="reflect">
        <stop stop-opacity="1" stop-color="rgb(232,238,247)" offset="0%"/>
        <stop stop-opacity="1" stop-color="rgb(183,201,227)" offset="100%"/>
      </linearGradient>
      <linearGradient x1="394.6055" gradientUnits="userSpaceOnUse" x2="478.3379" y1="159" y2="199" id="linearGradient3" spreadMethod="reflect">
        <stop stop-opacity="1" stop-color="rgb(232,238,247)" offset="0%"/>
        <stop stop-opacity="1" stop-color="rgb(183,201,227)" offset="100%"/>
      </linearGradient>
      <linearGradient x1="497.4082" gradientUnits="userSpaceOnUse" x2="581.1406" y1="159" y2="199" id="linearGradient4" spreadMethod="reflect">
        <stop stop-opacity="1" stop-color="rgb(232,238,247)" offset="0%"/>
        <stop stop-opacity="1" stop-color="rgb(183,201,227)" offset="100%"/>
      </linearGradient>
      <linearGradient x1="291.8027" gradientUnits="userSpaceOnUse" x2="375.5352" y1="270" y2="310" id="linearGradient5" spreadMethod="reflect">
        <stop stop-opacity="1" stop-color="rgb(232,238,247)" offset="0%"/>
        <stop stop-opacity="1" stop-color="rgb(183,201,227)" offset="100%"/>
      </linearGradient>
      <linearGradient x1="197.6055" gradientUnits="userSpaceOnUse" x2="281.3379" y1="270" y2="310" id="linearGradient6" spreadMethod="reflect">
        <stop stop-opacity="1" stop-color="rgb(232,238,247)" offset="0%"/>
        <stop stop-opacity="1" stop-color="rgb(183,201,227)" offset="100%"/>
      </linearGradient>
      <linearGradient x1="386" gradientUnits="userSpaceOnUse" x2="469.7324" y1="270" y2="310" id="linearGradient7" spreadMethod="reflect">
        <stop stop-opacity="1" stop-color="rgb(232,238,247)" offset="0%"/>
        <stop stop-opacity="1" stop-color="rgb(183,201,227)" offset="100%"/>
      </linearGradient>
      <clipPath clipPathUnits="userSpaceOnUse" id="clipPath1">
        <path d="M0 0 L415 0 L415 315 L0 315 L0 0 Z"/>
      </clipPath>
      <clipPath clipPathUnits="userSpaceOnUse" id="clipPath2">
        <path d="M182 33 L597 33 L597 348 L182 348 L182 33 Z"/>
      </clipPath>
    </defs>
    <g fill="white" text-rendering="geometricPrecision" shape-rendering="geometricPrecision" transform="translate(-182,-33)" stroke="white">
      <rect x="182" width="415" height="315" y="33" clip-path="url(#clipPath2)" stroke="none"/>
    </g>
    <g fill="url(#linearGradient1)" text-rendering="geometricPrecision" shape-rendering="geometricPrecision" transform="matrix(1,0,0,1,-182,-33)" stroke="url(#linearGradient1)">
      <rect x="394.6055" width="83.7324" height="40" y="48" clip-path="url(#clipPath2)" stroke="none"/>
    </g>
    <g text-rendering="geometricPrecision" stroke-miterlimit="1.45" shape-rendering="geometricPrecision" transform="matrix(1,0,0,1,-182,-33)" stroke-linecap="butt">
      <rect fill="none" x="394.6055" width="83.7324" height="40" y="48" clip-path="url(#clipPath2)"/>
      <path fill="none" d="M404.6055 48 L404.6055 88 M468.3379 48 L468.3379 88 M404.6055 48 Z" clip-path="url(#clipPath2)"/>
      <text x="425.6699" xml:space="preserve" y="106" clip-path="url(#clipPath2)" font-family="'Monaco'" stroke="none">Top</text>
    </g>
    <g fill="url(#linearGradient2)" text-rendering="geometricPrecision" shape-rendering="geometricPrecision" transform="matrix(1,0,0,1,-182,-33)" stroke="url(#linearGradient2)">
      <rect x="291.8027" width="83.7324" height="40" y="159" clip-path="url(#clipPath2)" stroke="none"/>
    </g>
    <g text-rendering="geometricPrecision" stroke-miterlimit="1.45" shape-rendering="geometricPrecision" transform="matrix(1,0,0,1,-182,-33)" stroke-linecap="butt">
      <rect fill="none" x="291.8027" width="83.7324" height="40" y="159" clip-path="url(#clipPath2)"/>
      <path fill="none" d="M301.8027 159 L301.8027 199 M365.5352 159 L365.5352 199 M301.8027 159 Z" clip-path="url(#clipPath2)"/>
      <text x="304.8643" xml:space="preserve" y="217" clip-path="url(#clipPath2)" font-family="'Monaco'" stroke="none">Category</text>
    </g>
    <g fill="url(#linearGradient3)" text-rendering="geometricPrecision" shape-rendering="geometricPrecision" transform="matrix(1,0,0,1,-182,-33)" stroke="url(#linearGradient3)">
      <rect x="394.6055" width="83.7324" height="40" y="159" clip-path="url(#clipPath2)" stroke="none"/>
    </g>
    <g text-rendering="geometricPrecision" stroke-miterlimit="1.45" shape-rendering="geometricPrecision" transform="matrix(1,0,0,1,-182,-33)" stroke-linecap="butt">
      <rect fill="none" x="394.6055" width="83.7324" height="40" y="159" clip-path="url(#clipPath2)"/>
      <path fill="none" d="M404.6055 159 L404.6055 199 M468.3379 159 L468.3379 199 M404.6055 159 Z" clip-path="url(#clipPath2)"/>
      <text x="407.667" xml:space="preserve" y="217" clip-path="url(#clipPath2)" font-family="'Monaco'" stroke="none">Category</text>
    </g>
    <g fill="url(#linearGradient4)" text-rendering="geometricPrecision" shape-rendering="geometricPrecision" transform="matrix(1,0,0,1,-182,-33)" stroke="url(#linearGradient4)">
      <rect x="497.4082" width="83.7324" height="40" y="159" clip-path="url(#clipPath2)" stroke="none"/>
    </g>
    <g text-rendering="geometricPrecision" stroke-miterlimit="1.45" shape-rendering="geometricPrecision" transform="matrix(1,0,0,1,-182,-33)" stroke-linecap="butt">
      <rect fill="none" x="497.4082" width="83.7324" height="40" y="159" clip-path="url(#clipPath2)"/>
      <path fill="none" d="M507.4082 159 L507.4082 199 M571.1406 159 L571.1406 199 M507.4082 159 Z" clip-path="url(#clipPath2)"/>
      <text x="528.4727" xml:space="preserve" y="217" clip-path="url(#clipPath2)" font-family="'Monaco'" stroke="none">...</text>
    </g>
    <g fill="url(#linearGradient5)" text-rendering="geometricPrecision" shape-rendering="geometricPrecision" transform="matrix(1,0,0,1,-182,-33)" stroke="url(#linearGradient5)">
      <rect x="291.8027" width="83.7324" height="40" y="270" clip-path="url(#clipPath2)" stroke="none"/>
    </g>
    <g text-rendering="geometricPrecision" stroke-miterlimit="1.45" shape-rendering="geometricPrecision" transform="matrix(1,0,0,1,-182,-33)" stroke-linecap="butt">
      <rect fill="none" x="291.8027" width="83.7324" height="40" y="270" clip-path="url(#clipPath2)"/>
      <path fill="none" d="M301.8027 270 L301.8027 310 M365.5352 270 L365.5352 310 M301.8027 270 Z" clip-path="url(#clipPath2)"/>
      <text x="308.4648" xml:space="preserve" y="328" clip-path="url(#clipPath2)" font-family="'Monaco'" stroke="none">Details</text>
    </g>
    <g fill="url(#linearGradient6)" text-rendering="geometricPrecision" shape-rendering="geometricPrecision" transform="matrix(1,0,0,1,-182,-33)" stroke="url(#linearGradient6)">
      <rect x="197.6055" width="83.7324" height="40" y="270" clip-path="url(#clipPath2)" stroke="none"/>
    </g>
    <g text-rendering="geometricPrecision" stroke-miterlimit="1.45" shape-rendering="geometricPrecision" transform="matrix(1,0,0,1,-182,-33)" stroke-linecap="butt">
      <rect fill="none" x="197.6055" width="83.7324" height="40" y="270" clip-path="url(#clipPath2)"/>
      <path fill="none" d="M207.6055 270 L207.6055 310 M271.3379 270 L271.3379 310 M207.6055 270 Z" clip-path="url(#clipPath2)"/>
      <text x="214.2676" xml:space="preserve" y="328" clip-path="url(#clipPath2)" font-family="'Monaco'" stroke="none">Details</text>
    </g>
    <g fill="url(#linearGradient7)" text-rendering="geometricPrecision" shape-rendering="geometricPrecision" transform="matrix(1,0,0,1,-182,-33)" stroke="url(#linearGradient7)">
      <rect x="386" width="83.7324" height="40" y="270" clip-path="url(#clipPath2)" stroke="none"/>
    </g>
    <g text-rendering="geometricPrecision" stroke-miterlimit="1.45" shape-rendering="geometricPrecision" transform="matrix(1,0,0,1,-182,-33)" stroke-linecap="butt">
      <rect fill="none" x="386" width="83.7324" height="40" y="270" clip-path="url(#clipPath2)"/>
      <path fill="none" d="M396 270 L396 310 M459.7324 270 L459.7324 310 M396 270 Z" clip-path="url(#clipPath2)"/>
      <text x="417.0645" xml:space="preserve" y="328" clip-path="url(#clipPath2)" font-family="'Monaco'" stroke="none">...</text>
    </g>
    <g text-rendering="geometricPrecision" stroke-miterlimit="1.45" shape-rendering="geometricPrecision" transform="matrix(1,0,0,1,-182,-33)" stroke-linecap="butt">
      <path fill="none" d="M417.924 88.0266 L357.6386 153.1191" clip-path="url(#clipPath2)"/>
    </g>
    <g text-rendering="geometricPrecision" stroke-miterlimit="1.45" shape-rendering="geometricPrecision" transform="matrix(1,0,0,1,-182,-33)" stroke-linecap="butt">
      <path d="M352.2026 158.9885 L364.025 153.5819 L358.3181 152.3854 L356.6882 146.7869 Z" stroke="none" clip-path="url(#clipPath2)"/>
      <path fill="none" d="M436.4717 88.0266 L436.4717 150.9663" clip-path="url(#clipPath2)"/>
      <path d="M436.4717 158.9663 L441.4717 146.9663 L436.4717 149.9663 L431.4717 146.9663 Z" clip-path="url(#clipPath2)" stroke="none"/>
      <path fill="none" d="M455.0193 88.0266 L515.3048 153.1191" clip-path="url(#clipPath2)"/>
      <path d="M520.7408 158.9885 L516.2552 146.7869 L514.6253 152.3854 L508.9184 153.5819 Z" clip-path="url(#clipPath2)" stroke="none"/>
      <path fill="none" d="M333.6689 199.0266 L333.6689 261.9663" clip-path="url(#clipPath2)"/>
      <path d="M333.6689 269.9663 L338.6689 257.9663 L333.6689 260.9663 L328.6689 257.9663 Z" clip-path="url(#clipPath2)" stroke="none"/>
      <path fill="none" d="M316.6739 199.0266 L261.6302 263.8889" clip-path="url(#clipPath2)"/>
      <path d="M256.4539 269.9885 L268.0306 264.0742 L262.2773 263.1264 L260.4061 257.6038 Z" clip-path="url(#clipPath2)" stroke="none"/>
      <path fill="none" d="M350.664 199.0266 L405.7077 263.8889" clip-path="url(#clipPath2)"/>
      <path d="M410.884 269.9885 L406.9318 257.6038 L405.0606 263.1264 L399.3073 264.0742 Z" clip-path="url(#clipPath2)" stroke="none"/>
    </g>
  </g>
</svg>
