<?xml version="1.0" encoding="UTF-8"?><svg xmlns="http://www.w3.org/2000/svg" xmlns:xlink="http://www.w3.org/1999/xlink" fill-opacity="1" color-rendering="auto" color-interpolation="auto" text-rendering="auto" stroke="black" stroke-linecap="square" width="430" stroke-miterlimit="10" shape-rendering="auto" stroke-opacity="1" fill="black" stroke-dasharray="none" font-weight="normal" stroke-width="1" height="286" font-family="'Dialog'" font-style="normal" stroke-linejoin="miter" font-size="12px" stroke-dashoffset="0" image-rendering="auto">
  <!--Generated by ySVG 2.5-->
  <defs id="genericDefs"/>
  <g>
    <g fill="white" text-rendering="geometricPrecision" shape-rendering="geometricPrecision" transform="translate(-119,-18)" stroke="white">
      <rect x="119" width="430" height="286" y="18" clip-path="url(#clipPath2)" stroke="none"/>
    </g>
    <g text-rendering="geometricPrecision" shape-rendering="geometricPrecision" transform="matrix(1.3913,0,0,1.3684,21,151)">
      <g clip-path="url(#clipPath3)">
        <svg xml:space="preserve" opacity="1" writing-mode="lr-tb" stop-color="rgb(0, 0, 0)" shape-rendering="auto" glyph-orientation-horizontal="0deg" color-profile="auto" lighting-color="rgb(255, 255, 255)" color="rgb(0, 0, 0)" font-weight="400" alignment-baseline="auto" font-style="normal" version="1.1" color-interpolation-filters="linearrgb" text-anchor="start" stroke-linecap="butt" color-interpolation="srgb" font-variant="normal" word-spacing="normal" fill-opacity="1" text-rendering="auto" clip-path="none" text-decoration="none" letter-spacing="normal" viewBox="0 0 23 38" glyph-orientation-vertical="auto" display="inline" font-size-adjust="none" overflow="visible" fill="rgb(0, 0, 0)" font-stretch="normal" stroke-dasharray="none" stroke-miterlimit="4" stop-opacity="1" color-rendering="auto" font-size="12" pointer-events="visiblepainted" mask="none" direction="ltr" baseline-shift="baseline" enable-background="new 0 0 23 38" fill-rule="nonzero" image-rendering="auto" stroke-dashoffset="0" width="23px" marker-end="none" clip="auto" cursor="auto" stroke="none" filter="none" visibility="visible" kerning="auto" stroke-width="1" font-family="&quot;Arial&quot;,&quot;Helvetica&quot;,sans-serif" flood-opacity="1" clip-rule="nonzero" src="none" height="38px" unicode-bidi="normal" stroke-linejoin="miter" stroke-opacity="1" flood-color="rgb(0, 0, 0)" dominant-baseline="auto" marker-start="none" x="0px" marker-mid="none" y="0px">
<defs>
<linearGradient x1="290.1338" gradientUnits="userSpaceOnUse" x2="373.8662" y1="175" y2="215" id="linearGradient1" spreadMethod="reflect">
              <stop stop-opacity="1" stop-color="rgb(232,238,247)" offset="0%"/>
              <stop stop-opacity="1" stop-color="rgb(183,201,227)" offset="100%"/>
            </linearGradient>
            <linearGradient x1="315.6667" gradientUnits="userSpaceOnUse" x2="381" y1="33" y2="33" id="linearGradient2" spreadMethod="reflect">
              <stop stop-opacity="1" stop-color="rgb(232,238,247)" offset="0%"/>
              <stop stop-opacity="1" stop-color="rgb(183,201,227)" offset="100%"/>
            </linearGradient>
            <clipPath clipPathUnits="userSpaceOnUse" id="clipPath1">
              <path d="M0 0 L430 0 L430 286 L0 286 L0 0 Z"/>
            </clipPath>
            <clipPath clipPathUnits="userSpaceOnUse" id="clipPath2">
              <path d="M119 18 L549 18 L549 304 L119 304 L119 18 Z"/>
            </clipPath>
            <clipPath clipPathUnits="userSpaceOnUse" id="clipPath3">
              <path d="M-15.0938 -110.3462 L293.9688 -110.3462 L293.9688 98.6538 L-15.0938 98.6538 L-15.0938 -110.3462 Z"/>
            </clipPath>
          </defs>
<g>
	<path fill="#C5C5C5" d="M23,35.916C23,37.063,22.063,38,20.916,38H2.084C0.938,38,0,37.063,0,35.916V2.084C0,0.938,0.938,0,2.084,0   h18.832C22.063,0,23,0.938,23,2.084V35.916z"/>
</g>
<g>
	<linearGradient y2="2.0005" id="svg1.SVGID_1_" x1="11.5005" gradientUnits="userSpaceOnUse" x2="11.5005" y1="34">
		<stop offset="0" style="stop-color:#515151"/>
		<stop offset="1" style="stop-color:#848484"/>
	</linearGradient>
	<path fill="url(#svg1.SVGID_1_)" d="M22,32.184C22,33.187,21.187,34,20.184,34H2.816C1.813,34,1,33.187,1,32.184V3.816   C1,2.813,1.813,2,2.816,2h17.367C21.187,2,22,2.813,22,3.816V32.184z"/>
</g>
<radialGradient gradientTransform="matrix(1 0 0 0.9565 0 1.1737)" id="svg1.SVGID_2_" r="23.5037" cx="11.5" gradientUnits="userSpaceOnUse" cy="4.1665">
	<stop offset="0" style="stop-color:#9CD7FF"/>
	<stop offset="1" style="stop-color:#3C89C9"/>
</radialGradient>
<rect x="2" fill="url(#svg1.SVGID_2_)" width="19" y="5" height="22"/>
<linearGradient y2="29.334" id="svg1.SVGID_3_" x1="11.5835" gradientUnits="userSpaceOnUse" x2="11.5835" y1="31.5">
	<stop offset="0" style="stop-color:#B8B8B8"/>
	<stop offset="1" style="stop-color:#F2F2F2"/>
</linearGradient>
<ellipse rx="1.5" fill="url(#svg1.SVGID_3_)" ry="1.083" cx="11.583" cy="30.417"/>
<linearGradient y2="29.6631" id="svg1.SVGID_4_" x1="15.334" gradientUnits="userSpaceOnUse" x2="15.334" y1="31.1709">
	<stop offset="0" style="stop-color:#B8B8B8"/>
	<stop offset="1" style="stop-color:#F2F2F2"/>
</linearGradient>
<ellipse rx="1.043" fill="url(#svg1.SVGID_4_)" ry="0.754" cx="15.333" cy="30.417"/>
<linearGradient y2="29.6631" id="svg1.SVGID_5_" x1="19.084" gradientUnits="userSpaceOnUse" x2="19.084" y1="31.1709">
	<stop offset="0" style="stop-color:#B8B8B8"/>
	<stop offset="1" style="stop-color:#F2F2F2"/>
</linearGradient>
<ellipse rx="1.043" fill="url(#svg1.SVGID_5_)" ry="0.754" cx="19.083" cy="30.417"/>
<linearGradient y2="29.6631" id="svg1.SVGID_6_" x1="4.0835" gradientUnits="userSpaceOnUse" x2="4.0835" y1="31.1709">
	<stop offset="0" style="stop-color:#B8B8B8"/>
	<stop offset="1" style="stop-color:#F2F2F2"/>
</linearGradient>
<ellipse rx="1.043" fill="url(#svg1.SVGID_6_)" ry="0.754" cx="4.083" cy="30.417"/>
<linearGradient y2="29.6631" id="svg1.SVGID_7_" x1="7.8335" gradientUnits="userSpaceOnUse" x2="7.8335" y1="31.1709">
	<stop offset="0" style="stop-color:#B8B8B8"/>
	<stop offset="1" style="stop-color:#F2F2F2"/>
</linearGradient>
<ellipse rx="1.043" fill="url(#svg1.SVGID_7_)" ry="0.754" cx="7.833" cy="30.417"/>
<linearGradient y2="2.4658" id="svg1.SVGID_8_" x1="11.0835" gradientUnits="userSpaceOnUse" x2="11.0835" y1="4.3682">
	<stop offset="0" style="stop-color:#B8B8B8"/>
	<stop offset="1" style="stop-color:#A2A2A2"/>
</linearGradient>
<ellipse rx="1.063" fill="url(#svg1.SVGID_8_)" ry="0.951" cx="11.083" cy="3.417"/>
<linearGradient y2="2.918" id="svg1.SVGID_9_" x1="11.0835" gradientUnits="userSpaceOnUse" x2="11.0835" y1="3.916">
	<stop offset="0" style="stop-color:#9CD7FF"/>
	<stop offset="1" style="stop-color:#F2F2F2"/>
</linearGradient>
<ellipse rx="0.558" fill="url(#svg1.SVGID_9_)" ry="0.499" cx="11.083" cy="3.417"/>
<path fill="#F2F2F2" opacity="0.24" d="M20.938,15.065c0,0-6.654,2.879-10.771,4.019C6.05,20.223,2,21.125,2,21.125V5h19  L20.938,15.065z"/>
</svg>
      </g>
    </g>
    <g text-rendering="geometricPrecision" stroke-miterlimit="1.45" shape-rendering="geometricPrecision" font-family="sans-serif" transform="matrix(1,0,0,1,-119,-18)" stroke-linecap="butt">
      <text x="136.9072" xml:space="preserve" y="238.6016" clip-path="url(#clipPath2)" stroke="none">Device</text>
    </g>
    <g fill="url(#linearGradient1)" text-rendering="geometricPrecision" shape-rendering="geometricPrecision" transform="matrix(1,0,0,1,-119,-18)" stroke="url(#linearGradient1)">
      <rect x="290.1338" width="83.7324" height="40" y="175" clip-path="url(#clipPath2)" stroke="none"/>
    </g>
    <g text-rendering="geometricPrecision" stroke-miterlimit="1.45" shape-rendering="geometricPrecision" transform="matrix(1,0,0,1,-119,-18)" stroke-linecap="butt">
      <rect fill="none" x="290.1338" width="83.7324" height="40" y="175" clip-path="url(#clipPath2)"/>
      <path fill="none" d="M300.1338 175 L300.1338 215 M363.8662 175 L363.8662 215 M300.1338 175 Z" clip-path="url(#clipPath2)"/>
      <text x="285.1924" xml:space="preserve" y="247.5" clip-path="url(#clipPath2)" font-family="'Monaco'" stroke="none">Activity.java</text>
    </g>
    <g fill="white" text-rendering="geometricPrecision" shape-rendering="geometricPrecision" transform="matrix(1,0,0,1,-119,-18)" stroke="white">
      <path d="M475 160 L518.0088 160 L518.0088 175 L533.0088 175 L533.0088 230 L475 230 Z" stroke="none" clip-path="url(#clipPath2)"/>
    </g>
    <g fill="white" text-rendering="geometricPrecision" shape-rendering="geometricPrecision" transform="matrix(1,0,0,1,-119,-18)" stroke="white">
      <path d="M518.0088 160 L518.0088 175 L533.0088 175 Z" fill-rule="evenodd" clip-path="url(#clipPath2)" stroke="none"/>
    </g>
    <g text-rendering="geometricPrecision" stroke-miterlimit="1.45" shape-rendering="geometricPrecision" transform="matrix(1,0,0,1,-119,-18)" stroke-linecap="butt">
      <path fill="none" d="M475 160 L518.0088 160 L518.0088 175 L533.0088 175 L533.0088 230 L475 230 Z" clip-path="url(#clipPath2)"/>
      <path fill="none" d="M518.0088 160 L518.0088 175 L533.0088 175 Z" clip-path="url(#clipPath2)" fill-rule="evenodd"/>
      <text x="480.0005" font-size="10px" y="186.333" clip-path="url(#clipPath2)" font-family="'Courier New'" stroke="none" xml:space="preserve">&lt;Layout&gt;</text>
      <text x="495.0029" font-size="10px" y="197.6611" clip-path="url(#clipPath2)" font-family="'Courier New'" stroke="none" xml:space="preserve">...</text>
      <text x="477" font-size="10px" y="208.9893" clip-path="url(#clipPath2)" font-family="'Courier New'" stroke="none" xml:space="preserve">&lt;/Layout&gt;</text>
    </g>
    <g fill="white" text-rendering="geometricPrecision" shape-rendering="geometricPrecision" transform="matrix(1,0,0,1,-119,-18)" stroke="white">
      <path d="M202 242 L224.0088 242 L224.0088 257 L239.0088 257 L239.0088 289 L202 289 Z" stroke="none" clip-path="url(#clipPath2)"/>
      <path d="M224.0088 242 L224.0088 257 L239.0088 257 Z" clip-path="url(#clipPath2)" fill-rule="evenodd" stroke="none"/>
    </g>
    <g text-rendering="geometricPrecision" stroke-miterlimit="1.45" shape-rendering="geometricPrecision" transform="matrix(1,0,0,1,-119,-18)" stroke-linecap="butt">
      <path fill="none" d="M202 242 L224.0088 242 L224.0088 257 L239.0088 257 L239.0088 289 L202 289 Z" clip-path="url(#clipPath2)"/>
      <path fill="none" d="M224.0088 242 L224.0088 257 L239.0088 257 Z" clip-path="url(#clipPath2)" fill-rule="evenodd"/>
      <text x="206.1021" font-size="6px" y="260.2998" clip-path="url(#clipPath2)" font-family="'Courier New'" stroke="none" xml:space="preserve">&lt;Layout&gt;</text>
      <text x="215.1035" font-size="6px" y="267.0967" clip-path="url(#clipPath2)" font-family="'Courier New'" stroke="none" xml:space="preserve">...</text>
      <text x="204.3018" font-size="6px" y="273.8936" clip-path="url(#clipPath2)" font-family="'Courier New'" stroke="none" xml:space="preserve">&lt;/Layout&gt;</text>
    </g>
    <g fill="url(#linearGradient2)" text-rendering="geometricPrecision" shape-rendering="geometricPrecision" transform="matrix(1,0,0,1,-119,-18)" stroke="url(#linearGradient2)">
      <rect x="283" width="98" height="70" y="33" clip-path="url(#clipPath2)" stroke="none"/>
    </g>
    <g text-rendering="geometricPrecision" stroke-miterlimit="1.45" shape-rendering="geometricPrecision" font-family="sans-serif" transform="matrix(1,0,0,1,-119,-18)" stroke-linecap="butt">
      <text x="320.3076" xml:space="preserve" y="72.5352" clip-path="url(#clipPath2)" stroke="none">App</text>
      <rect fill="none" x="283" width="98" height="70" y="33" clip-path="url(#clipPath2)"/>
      <path fill="none" d="M308.9043 215.0033 L299 221.8125 L288 228 L277 232.8125 L266 236.25 L255 238.3125 L244 239 L233 238.3125 L222 236.25 L211 232.8125 L200 228 L189 221.8125 L178.2287 214.4073 L178.1511 214.3442" clip-path="url(#clipPath2)"/>
      <path d="M171.9281 209.3169 L178.1206 220.7473 L178.929 214.9726 L184.4047 212.9684 Z" clip-path="url(#clipPath2)" stroke="none"/>
      <text x="223.4717" xml:space="preserve" y="209.9941" clip-path="url(#clipPath2)" stroke="none">display</text>
      <path fill="none" d="M355.2433 174.9889 L364.2508 168.7962 L375.0011 162.7492 L385.7514 158.0459 L396.5016 154.6865 L407.2519 152.6708 L418.0022 151.9989 L428.7525 152.6708 L439.5027 154.6865 L450.253 158.0459 L461.0033 162.7492 L468.2161 166.8064 L468.2985 166.8631" clip-path="url(#clipPath2)"/>
      <path d="M475.0929 171.0864 L467.5409 160.5049 L467.4492 166.3351 L462.2617 168.9979 Z" clip-path="url(#clipPath2)" stroke="none"/>
      <text x="406.0915" xml:space="preserve" y="129.7012" clip-path="url(#clipPath2)" stroke="none">specifies</text>
      <path fill="none" d="M475.0081 218.9663 L471.7536 221.2038 L461.0033 227.2508 L450.253 231.9541 L439.5027 235.3135 L428.7525 237.3292 L418.0022 238.0011 L407.2519 237.3292 L396.5016 235.3135 L385.7514 231.9541 L375.0011 227.2508 L364.2508 221.2038 L361.8356 219.5433" clip-path="url(#clipPath2)"/>
      <path d="M355.2433 215.0111 L362.2991 225.9297 L362.6596 220.1099 L367.9644 217.6892 Z" clip-path="url(#clipPath2)" stroke="none"/>
      <path fill="none" d="M160.756 168.9826 L162.625 160.9531 L167.4375 145.8633 L173.25 132.0625 L180.0625 119.5508 L187.875 108.3281 L196.6875 98.3945 L206.5 89.75 L217.3125 82.3945 L229.125 76.3281 L241.9375 71.5508 L255.75 68.0625 L270.5625 65.8633 L275.0219 65.6066" clip-path="url(#clipPath2)"/>
      <path d="M283.0087 65.1469 L270.7412 60.8447 L274.0235 65.6641 L271.3158 70.8282 Z" clip-path="url(#clipPath2)" stroke="none"/>
      <text x="147.1271" xml:space="preserve" y="97.4983" clip-path="url(#clipPath2)" stroke="none">contains</text>
      <path fill="none" d="M332 103 L332 167.0098" clip-path="url(#clipPath2)"/>
      <path d="M332 175.0098 L337 163.0098 L332 166.0098 L327 163.0098 Z" clip-path="url(#clipPath2)" stroke="none"/>
      <text x="281.1699" xml:space="preserve" y="143.5352" clip-path="url(#clipPath2)" stroke="none">creates</text>
    </g>
  </g>
</svg>
