<?xml version="1.0" encoding="UTF-8"?><svg xmlns="http://www.w3.org/2000/svg" xmlns:xlink="http://www.w3.org/1999/xlink" fill-opacity="1" color-rendering="auto" color-interpolation="auto" text-rendering="auto" stroke="black" stroke-linecap="square" width="408" stroke-miterlimit="10" shape-rendering="auto" stroke-opacity="1" fill="black" stroke-dasharray="none" font-weight="normal" stroke-width="1" height="119" font-family="'Dialog'" font-style="normal" stroke-linejoin="miter" font-size="12px" stroke-dashoffset="0" image-rendering="auto">
  <!--Generated by ySVG 2.5-->
  <defs id="genericDefs"/>
  <g>
    <g fill="white" text-rendering="geometricPrecision" shape-rendering="geometricPrecision" transform="translate(-20,-9)" stroke="white">
      <rect x="20" width="408" height="119" y="9" clip-path="url(#clipPath2)" stroke="none"/>
    </g>
    <g text-rendering="geometricPrecision" shape-rendering="geometricPrecision" transform="matrix(1,0,0,1,15.916,37.8609)">
      <g clip-path="url(#clipPath3)">
        <svg xml:space="preserve" opacity="1" writing-mode="lr-tb" stop-color="rgb(0, 0, 0)" shape-rendering="auto" glyph-orientation-horizontal="0deg" color-profile="auto" lighting-color="rgb(255, 255, 255)" color="rgb(0, 0, 0)" font-weight="400" alignment-baseline="auto" font-style="normal" version="1.1" color-interpolation-filters="linearrgb" text-anchor="start" stroke-linecap="butt" color-interpolation="srgb" font-variant="normal" word-spacing="normal" fill-opacity="1" text-rendering="auto" clip-path="none" text-decoration="none" letter-spacing="normal" viewBox="0 0 59 34" glyph-orientation-vertical="auto" display="inline" font-size-adjust="none" overflow="visible" fill="rgb(0, 0, 0)" font-stretch="normal" stroke-dasharray="none" id="svg1.Ebene_1" stroke-miterlimit="4" stop-opacity="1" color-rendering="auto" font-size="12" pointer-events="visiblepainted" mask="none" direction="ltr" baseline-shift="baseline" enable-background="new 0 0 59 34" fill-rule="nonzero" image-rendering="auto" stroke-dashoffset="0" width="59px" marker-end="none" clip="auto" cursor="auto" stroke="none" filter="none" visibility="visible" kerning="auto" stroke-width="1" font-family="&quot;Arial&quot;,&quot;Helvetica&quot;,sans-serif" flood-opacity="1" clip-rule="nonzero" src="none" height="34px" unicode-bidi="normal" stroke-linejoin="miter" stroke-opacity="1" flood-color="rgb(0, 0, 0)" dominant-baseline="auto" marker-start="none" x="0px" marker-mid="none" y="0px">
<g>
	
		<linearGradient gradientTransform="matrix(1 0 0 -1 0.3604 -3057.6113)" x1="13.4722" x2="14.2016" gradientUnits="userSpaceOnUse" y1="-3073.124" y2="-3090.6384" id="svg1.neck_x5F_white_1_">
		<stop offset="0.2711" style="stop-color:#FFAB4F"/>
		<stop offset="1" style="stop-color:#FFD28F"/>
	</linearGradient>
	<path fill="url(#svg1.neck_x5F_white_1_)" id="svg1.neck_x5F_white_7_" stroke-width="0.5" d="   M9.639,18.898h9.094v10.115c-0.658,0.187-8.587,0.219-9.094,0.086V18.898z" stroke-miterlimit="10" stroke="#FFAB4F"/>
	
		<linearGradient gradientTransform="matrix(1 0 0 -1 0.3604 -3057.6113)" x1="12.9697" x2="13.5902" gradientUnits="userSpaceOnUse" y1="-3069.5903" y2="-3084.491" id="svg1.SVGID_1_">
		<stop offset="0.2711" style="stop-color:#FFAB4F"/>
		<stop offset="1" style="stop-color:#FFD28F"/>
	</linearGradient>
	<path fill="url(#svg1.SVGID_1_)" stroke-width="0.5" d="M24.765,25.611   c-2.197-2.196-5.476-2.94-6.031-3.055v-3.658H9.639c0,0,0.019,3.453,0,3.436c0,0-3.437,0.499-6.154,3.216   c-2.796,2.796-3.235,5.835-3.235,5.835c0,0.971,0.788,1.746,1.762,1.746h24.255c0.975,0,1.762-0.777,1.762-1.746   C28.028,31.384,27.106,27.953,24.765,25.611z" stroke-miterlimit="10" stroke="#ED9135"/>
	
		<radialGradient gradientTransform="matrix(1 0 0 -1 0.3604 -3057.6113)" gradientUnits="userSpaceOnUse" r="11.713" cx="13.5923" id="svg1.face_x5F_white_1_" cy="-3070.4746" fx="11.3074" fy="-3071.7195">
		<stop offset="0" style="stop-color:#FFD28F"/>
		<stop offset="1" style="stop-color:#FFAB4F"/>
	</radialGradient>
	<path fill="url(#svg1.face_x5F_white_1_)" id="svg1.face_x5F_white_7_" stroke-width="0.5" d="   M21.839,11.679c0.043,5.1-3.369,9.26-7.626,9.293c-4.25,0.033-7.731-4.074-7.774-9.173C6.398,6.7,9.81,2.54,14.062,2.506   C18.313,2.473,21.796,6.579,21.839,11.679z" stroke-miterlimit="10" stroke="#ED9135"/>
	
		<linearGradient gradientTransform="matrix(0.275 0 0 0.2733 -1945.4338 -3893.9907)" x1="7121.4932" x2="7133.3081" gradientUnits="userSpaceOnUse" y1="14261.8359" y2="14308.5615" id="svg1.face_highlight_1_">
		<stop offset="0" style="stop-color:#FFFFFF;stop-opacity:0.24"/>
		<stop offset="1" style="stop-color:#FFFFFF;stop-opacity:0.16"/>
	</linearGradient>
	<path fill="url(#svg1.face_highlight_1_)" id="svg1.face_highlight_7_" d="M14.208,2.813C11.19,2.835,8.834,5.059,7.814,8.006   c-0.332,0.959-0.147,2.021,0.49,2.814c1.365,1.699,2.865,3.141,4.73,4.044c1.568,0.759,3.767,1.192,5.947,0.623   c1.137-0.296,1.994-1.229,2.188-2.383c0.094-0.547,0.146-1.145,0.141-1.776C21.271,6.622,18.364,2.78,14.208,2.813z"/>
	
		<path stroke-linecap="round" fill="#CC9869" stroke-linejoin="round" d="   M10.139,6.625c0,0,2.661,3.625,7.5,1.875c1.363-0.281,4.527,0.518,4.527,0.518s-1.826-8.085-8.522-7.646   c-8.943,0.69-7.615,11.467-7.615,11.467s1.384-0.342,2.518-2.401C9.034,9.553,10.139,6.625,10.139,6.625z" id="svg1.hair_x5F_gray_6_" stroke="#99724F" stroke-width="0.5"/>
	
		<radialGradient gradientTransform="matrix(1 0 0 -1 0.3604 -3057.6113)" id="svg1.collar_x5F_body_1_" r="16.2006" cx="7.2808" gradientUnits="userSpaceOnUse" cy="-3086.1948">
		<stop offset="0" style="stop-color:#B0E8FF"/>
		<stop offset="1" style="stop-color:#74AEEE"/>
	</radialGradient>
	<path fill="url(#svg1.collar_x5F_body_1_)" id="svg1.collar_x5F_body_7_" d="M0.25,31.384   c0,0.97,0.788,1.747,1.762,1.747h24.255c0.975,0,1.762-0.779,1.762-1.747c0,0-0.922-3.431-3.264-5.771   c-2.408-2.406-5.622-3.072-5.622-3.072c-0.886,0.827-2.806,1.4-5.031,1.4c-2.227,0-4.146-0.573-5.032-1.4   c0,0-2.877,0.293-5.594,3.01C0.689,28.346,0.25,31.384,0.25,31.384z" stroke-width="0.5" stroke="#5491CF"/>
	
		<radialGradient gradientTransform="matrix(1 0 0 -1 0.3604 -3057.6113)" id="svg1.collar_x5F_r_1_" r="4.6415" cx="15.4497" gradientUnits="userSpaceOnUse" cy="-3081.2578">
		<stop offset="0" style="stop-color:#80CCFF"/>
		<stop offset="1" style="stop-color:#74AEEE"/>
	</radialGradient>
	<path fill="url(#svg1.collar_x5F_r_1_)" id="svg1.collar_x5F_r_7_" d="M19.079,20.689   c0,0-0.287,1.186-1.506,2.222c-1.055,0.897-2.892,1.036-2.892,1.036l1.987,3.107c0,0,1.479-0.818,2.504-1.924   c0.961-1.035,0.686-2.74,0.686-2.74L19.079,20.689z" stroke-width="0.5" stroke="#5491CF"/>
	
		<radialGradient gradientTransform="matrix(1 0 0 -1 0.3604 -3057.6113)" id="svg1.collar_x5F_l_1_" r="4.6425" cx="9.2686" gradientUnits="userSpaceOnUse" cy="-3081.2778">
		<stop offset="0" style="stop-color:#80CCFF"/>
		<stop offset="1" style="stop-color:#74AEEE"/>
	</radialGradient>
	<path fill="url(#svg1.collar_x5F_l_1_)" id="svg1.collar_x5F_l_7_" d="M9.315,20.711   c0,0,0.288,1.186,1.506,2.221c1.055,0.896,2.893,1.037,2.893,1.037l-1.987,3.107c0,0-1.479-0.818-2.503-1.926   c-0.961-1.035-0.685-2.739-0.685-2.739L9.315,20.711z" stroke-width="0.5" stroke="#5491CF"/>
	
		<radialGradient gradientTransform="matrix(1 0 0 -1 0.2803 -2284.9199)" id="svg1.Knob2_1_" r="0.4838" cx="13.6846" gradientUnits="userSpaceOnUse" cy="-2313.0259">
		<stop offset="0" style="stop-color:#80CCFF"/>
		<stop offset="1" style="stop-color:#74AEEE"/>
	</radialGradient>
	<circle fill="url(#svg1.Knob2_1_)" r="0.292" cx="14.129" id="svg1.Knob2_7_" cy="28.127" stroke="#5491CF" stroke-width="0.5"/>
	
		<radialGradient gradientTransform="matrix(1 0 0 -1 0.2803 -2284.9199)" id="svg1.Knob1_1_" r="0.4836" cx="13.7036" gradientUnits="userSpaceOnUse" cy="-2316.1479">
		<stop offset="0" style="stop-color:#80CCFF"/>
		<stop offset="1" style="stop-color:#74AEEE"/>
	</radialGradient>
	<circle fill="url(#svg1.Knob1_1_)" r="0.292" cx="14.148" id="svg1.Knob1_7_" cy="31.25" stroke="#5491CF" stroke-width="0.5"/>
	<path fill="#D54A30" id="svg1.path5135_10_" d="M13.722,27.615c0,0-0.926,1.027-1.041,3.271   c-0.115,2.243,0,2.243,0,2.243h3.273c0,0,0.115,0.031-0.078-2.185c-0.199-2.301-1.193-3.334-1.193-3.334L13.722,27.615   L13.722,27.615z" stroke-width="0.5" stroke="#B51A19"/>
	<path fill="#D54A30" id="svg1.path5131_10_" d="M14.163,24.344h0.063l1.276,2.002   c0.258,0.477-0.604,0.898-0.729,1.273l-1.14-0.01c-0.121-0.379-1.13-0.685-0.738-1.291L14.163,24.344z" stroke-width="0.5" stroke="#B51A19"/>
	<polygon fill="#353535" stroke-width="0.5" points="   52.225,22.842 36.594,25.037 36.139,13.559 51.746,13.873  " stroke="#353535" stroke-linecap="round" stroke-linejoin="round"/>
	
		<linearGradient gradientTransform="matrix(1 0 0 -1 0.3604 -3057.6113)" x1="43.3594" x2="44.0888" gradientUnits="userSpaceOnUse" y1="-3073.1235" y2="-3090.6387" id="svg1.neck_x5F_white_2_">
		<stop offset="0.2711" style="stop-color:#FFAB4F"/>
		<stop offset="1" style="stop-color:#FFD28F"/>
	</linearGradient>
	<path fill="url(#svg1.neck_x5F_white_2_)" id="svg1.neck_x5F_white_5_" stroke-width="0.5" d="   M39.525,18.898h9.096v10.115c-0.658,0.187-8.587,0.219-9.096,0.086V18.898z" stroke-miterlimit="10" stroke="#FFAB4F"/>
	
		<linearGradient gradientTransform="matrix(1 0 0 -1 0.3604 -3057.6113)" x1="42.8584" x2="43.4789" gradientUnits="userSpaceOnUse" y1="-3069.5903" y2="-3084.491" id="svg1.SVGID_2_">
		<stop offset="0.2711" style="stop-color:#FFAB4F"/>
		<stop offset="1" style="stop-color:#FFD28F"/>
	</linearGradient>
	<path fill="url(#svg1.SVGID_2_)" stroke-width="0.5" d="M54.652,25.611   c-2.197-2.196-5.477-2.94-6.031-3.055v-3.658h-9.096c0,0,0.021,3.453,0,3.436c0,0-3.437,0.499-6.152,3.216   c-2.796,2.796-3.234,5.835-3.234,5.835c0,0.971,0.786,1.746,1.762,1.746h24.254c0.976,0,1.763-0.777,1.763-1.746   C57.916,31.384,56.994,27.953,54.652,25.611z" stroke-miterlimit="10" stroke="#ED9135"/>
	
		<radialGradient gradientTransform="matrix(1 0 0 -1 0.3604 -3057.6113)" gradientUnits="userSpaceOnUse" r="11.7123" cx="43.4795" id="svg1.face_x5F_white_2_" cy="-3070.4746" fx="41.1947" fy="-3071.7195">
		<stop offset="0" style="stop-color:#FFD28F"/>
		<stop offset="1" style="stop-color:#FFAB4F"/>
	</radialGradient>
	<path fill="url(#svg1.face_x5F_white_2_)" id="svg1.face_x5F_white_5_" stroke-width="0.5" d="   M51.727,11.679c0.043,5.1-3.369,9.26-7.625,9.293c-4.25,0.033-7.731-4.074-7.774-9.173c-0.041-5.1,3.37-9.26,7.623-9.294   C48.201,2.473,51.684,6.579,51.727,11.679z" stroke-miterlimit="10" stroke="#ED9135"/>
	
		<linearGradient gradientTransform="matrix(0.275 0 0 0.2733 -1945.4338 -3893.9907)" x1="7230.1748" x2="7241.9893" gradientUnits="userSpaceOnUse" y1="14261.8359" y2="14308.5596" id="svg1.face_highlight_2_">
		<stop offset="0" style="stop-color:#FFFFFF;stop-opacity:0.24"/>
		<stop offset="1" style="stop-color:#FFFFFF;stop-opacity:0.16"/>
	</linearGradient>
	<path fill="url(#svg1.face_highlight_2_)" id="svg1.face_highlight_5_" d="M44.096,2.813c-3.018,0.023-5.373,2.247-6.394,5.193   c-0.332,0.959-0.147,2.021,0.489,2.814c1.365,1.699,2.865,3.141,4.73,4.044c1.568,0.759,3.768,1.192,5.946,0.623   c1.137-0.296,1.993-1.229,2.188-2.383c0.094-0.547,0.146-1.145,0.141-1.776C51.158,6.622,48.252,2.78,44.096,2.813z"/>
	<path fill="#5C5C5C" d="M38.688,21.917   c-0.207-1.509-0.308-2.506-0.396-3.933c-0.287-4.673,1.442-8.859,1.442-8.859l0.44-1.039l0.47,1.209l0.938-2.478l-0.023,2.276   l0.654-0.374l0.352-0.827L42.745,9l0.526-0.494l1.065-0.364L44.809,8.5l0.238-1.188l0.417,1.277l0.563-0.513l0.84-0.106L47.4,8.656   l-0.121-2.123l0.941,1.984L48.693,8.5c0,0,3.014,4.974,1.875,14.213c1.076,0.381,2.24,1.344,3.438,2.324   c0.001-0.001,0.007-0.006,0.007-0.006L51.943,9.69c-0.517-3.253-2.68-8.39-7.69-8.366c-11.789-0.04-7.853,19.704-9.894,23.343   c-0.004,0.007-0.006,0.013-0.01,0.021C36.034,23.363,37.714,22.173,38.688,21.917z" stroke-width="0.5" stroke="#353535" stroke-linecap="round" stroke-linejoin="round"/>
	
		<radialGradient gradientTransform="matrix(0.9852 0 0 0.9852 -38.3758 -3898.4966)" id="svg1.body_1_" r="16.4227" cx="77.0439" gradientUnits="userSpaceOnUse" cy="3984.6543">
		<stop offset="0" style="stop-color:#FFC373"/>
		<stop offset="1" style="stop-color:#FFB448"/>
	</radialGradient>
	<path fill="url(#svg1.body_1_)" id="svg1.body_21_" d="M30.139,31.384c0,0.97,0.786,1.747,1.762,1.747   h24.254c0.976,0,1.763-0.779,1.763-1.747c0,0-0.922-3.431-3.265-5.771c-2.407-2.406-4.121-2.572-4.121-2.572   c-0.723,3.49-4.276,4.393-6.504,4.393s-5.66-1.32-5.971-4.72c0,0-2.279,0.601-4.684,2.837   C30.577,28.346,30.139,31.384,30.139,31.384z" stroke-width="0.5" stroke="#ED8D00"/>
</g>
</svg>
      </g>
    </g>
    <g text-rendering="geometricPrecision" shape-rendering="geometricPrecision" transform="matrix(1.3913,0,0,1.3684,175.6089,29)">
      <g clip-path="url(#clipPath4)">
        <svg xml:space="preserve" opacity="1" writing-mode="lr-tb" stop-color="rgb(0, 0, 0)" shape-rendering="auto" glyph-orientation-horizontal="0deg" color-profile="auto" lighting-color="rgb(255, 255, 255)" color="rgb(0, 0, 0)" font-weight="400" alignment-baseline="auto" font-style="normal" version="1.1" color-interpolation-filters="linearrgb" text-anchor="start" stroke-linecap="butt" color-interpolation="srgb" font-variant="normal" word-spacing="normal" fill-opacity="1" text-rendering="auto" clip-path="none" text-decoration="none" letter-spacing="normal" viewBox="0 0 23 38" glyph-orientation-vertical="auto" display="inline" font-size-adjust="none" overflow="visible" fill="rgb(0, 0, 0)" font-stretch="normal" stroke-dasharray="none" stroke-miterlimit="4" stop-opacity="1" color-rendering="auto" font-size="12" pointer-events="visiblepainted" mask="none" direction="ltr" baseline-shift="baseline" enable-background="new 0 0 23 38" fill-rule="nonzero" image-rendering="auto" stroke-dashoffset="0" width="23px" marker-end="none" clip="auto" cursor="auto" stroke="none" filter="none" visibility="visible" kerning="auto" stroke-width="1" font-family="&quot;Arial&quot;,&quot;Helvetica&quot;,sans-serif" flood-opacity="1" clip-rule="nonzero" src="none" height="38px" unicode-bidi="normal" stroke-linejoin="miter" stroke-opacity="1" flood-color="rgb(0, 0, 0)" dominant-baseline="auto" marker-start="none" x="0px" marker-mid="none" y="0px">
<defs>
<linearGradient x1="329.1338" gradientUnits="userSpaceOnUse" x2="412.8662" y1="44" y2="84" id="linearGradient1" spreadMethod="reflect">
              <stop stop-opacity="1" stop-color="rgb(232,238,247)" offset="0%"/>
              <stop stop-opacity="1" stop-color="rgb(183,201,227)" offset="100%"/>
            </linearGradient>
            <clipPath clipPathUnits="userSpaceOnUse" id="clipPath1">
              <path d="M0 0 L408 0 L408 119 L0 119 L0 0 Z"/>
            </clipPath>
            <clipPath clipPathUnits="userSpaceOnUse" id="clipPath2">
              <path d="M20 9 L428 9 L428 128 L20 128 L20 9 Z"/>
            </clipPath>
            <clipPath clipPathUnits="userSpaceOnUse" id="clipPath3">
              <path d="M-15.916 -37.8609 L392.084 -37.8609 L392.084 81.1391 L-15.916 81.1391 L-15.916 -37.8609 Z"/>
            </clipPath>
            <clipPath clipPathUnits="userSpaceOnUse" id="clipPath4">
              <path d="M-126.2189 -21.1923 L167.0311 -21.1923 L167.0311 65.7692 L-126.2189 65.7692 L-126.2189 -21.1923 Z"/>
            </clipPath>
          </defs>
<g>
	<path fill="#C5C5C5" d="M23,35.916C23,37.063,22.063,38,20.916,38H2.084C0.938,38,0,37.063,0,35.916V2.084C0,0.938,0.938,0,2.084,0   h18.832C22.063,0,23,0.938,23,2.084V35.916z"/>
</g>
<g>
	<linearGradient y2="2.0005" id="svg2.SVGID_1_" x1="11.5005" gradientUnits="userSpaceOnUse" x2="11.5005" y1="34">
		<stop offset="0" style="stop-color:#515151"/>
		<stop offset="1" style="stop-color:#848484"/>
	</linearGradient>
	<path fill="url(#svg2.SVGID_1_)" d="M22,32.184C22,33.187,21.187,34,20.184,34H2.816C1.813,34,1,33.187,1,32.184V3.816   C1,2.813,1.813,2,2.816,2h17.367C21.187,2,22,2.813,22,3.816V32.184z"/>
</g>
<radialGradient gradientTransform="matrix(1 0 0 0.9565 0 1.1737)" id="svg2.SVGID_2_" r="23.5037" cx="11.5" gradientUnits="userSpaceOnUse" cy="4.1665">
	<stop offset="0" style="stop-color:#9CD7FF"/>
	<stop offset="1" style="stop-color:#3C89C9"/>
</radialGradient>
<rect x="2" fill="url(#svg2.SVGID_2_)" width="19" y="5" height="22"/>
<linearGradient y2="29.334" id="svg2.SVGID_3_" x1="11.5835" gradientUnits="userSpaceOnUse" x2="11.5835" y1="31.5">
	<stop offset="0" style="stop-color:#B8B8B8"/>
	<stop offset="1" style="stop-color:#F2F2F2"/>
</linearGradient>
<ellipse rx="1.5" fill="url(#svg2.SVGID_3_)" ry="1.083" cx="11.583" cy="30.417"/>
<linearGradient y2="29.6631" id="svg2.SVGID_4_" x1="15.334" gradientUnits="userSpaceOnUse" x2="15.334" y1="31.1709">
	<stop offset="0" style="stop-color:#B8B8B8"/>
	<stop offset="1" style="stop-color:#F2F2F2"/>
</linearGradient>
<ellipse rx="1.043" fill="url(#svg2.SVGID_4_)" ry="0.754" cx="15.333" cy="30.417"/>
<linearGradient y2="29.6631" id="svg2.SVGID_5_" x1="19.084" gradientUnits="userSpaceOnUse" x2="19.084" y1="31.1709">
	<stop offset="0" style="stop-color:#B8B8B8"/>
	<stop offset="1" style="stop-color:#F2F2F2"/>
</linearGradient>
<ellipse rx="1.043" fill="url(#svg2.SVGID_5_)" ry="0.754" cx="19.083" cy="30.417"/>
<linearGradient y2="29.6631" id="svg2.SVGID_6_" x1="4.0835" gradientUnits="userSpaceOnUse" x2="4.0835" y1="31.1709">
	<stop offset="0" style="stop-color:#B8B8B8"/>
	<stop offset="1" style="stop-color:#F2F2F2"/>
</linearGradient>
<ellipse rx="1.043" fill="url(#svg2.SVGID_6_)" ry="0.754" cx="4.083" cy="30.417"/>
<linearGradient y2="29.6631" id="svg2.SVGID_7_" x1="7.8335" gradientUnits="userSpaceOnUse" x2="7.8335" y1="31.1709">
	<stop offset="0" style="stop-color:#B8B8B8"/>
	<stop offset="1" style="stop-color:#F2F2F2"/>
</linearGradient>
<ellipse rx="1.043" fill="url(#svg2.SVGID_7_)" ry="0.754" cx="7.833" cy="30.417"/>
<linearGradient y2="2.4658" id="svg2.SVGID_8_" x1="11.0835" gradientUnits="userSpaceOnUse" x2="11.0835" y1="4.3682">
	<stop offset="0" style="stop-color:#B8B8B8"/>
	<stop offset="1" style="stop-color:#A2A2A2"/>
</linearGradient>
<ellipse rx="1.063" fill="url(#svg2.SVGID_8_)" ry="0.951" cx="11.083" cy="3.417"/>
<linearGradient y2="2.918" id="svg2.SVGID_9_" x1="11.0835" gradientUnits="userSpaceOnUse" x2="11.0835" y1="3.916">
	<stop offset="0" style="stop-color:#9CD7FF"/>
	<stop offset="1" style="stop-color:#F2F2F2"/>
</linearGradient>
<ellipse rx="0.558" fill="url(#svg2.SVGID_9_)" ry="0.499" cx="11.083" cy="3.417"/>
<path fill="#F2F2F2" opacity="0.24" d="M20.938,15.065c0,0-6.654,2.879-10.771,4.019C6.05,20.223,2,21.125,2,21.125V5h19  L20.938,15.065z"/>
</svg>
      </g>
    </g>
    <g text-rendering="geometricPrecision" stroke-miterlimit="1.45" shape-rendering="geometricPrecision" font-family="sans-serif" transform="matrix(1,0,0,1,-20,-9)" stroke-linecap="butt">
      <text x="192.5161" xml:space="preserve" y="107.6016" clip-path="url(#clipPath2)" stroke="none">Device</text>
    </g>
    <g fill="url(#linearGradient1)" text-rendering="geometricPrecision" shape-rendering="geometricPrecision" transform="matrix(1,0,0,1,-20,-9)" stroke="url(#linearGradient1)">
      <rect x="329.1338" width="83.7324" height="40" y="44" clip-path="url(#clipPath2)" stroke="none"/>
    </g>
    <g text-rendering="geometricPrecision" stroke-miterlimit="1.45" shape-rendering="geometricPrecision" transform="matrix(1,0,0,1,-20,-9)" stroke-linecap="butt">
      <rect fill="none" x="329.1338" width="83.7324" height="40" y="44" clip-path="url(#clipPath2)"/>
      <path fill="none" d="M339.1338 44 L339.1338 84 M402.8662 44 L402.8662 84 M339.1338 44 Z" clip-path="url(#clipPath2)"/>
      <text x="342.1953" xml:space="preserve" y="102" clip-path="url(#clipPath2)" font-family="'Monaco'" stroke="none">Activity</text>
    </g>
    <g text-rendering="geometricPrecision" stroke-miterlimit="1.45" shape-rendering="geometricPrecision" transform="matrix(1,0,0,1,-20,-9)" stroke-linecap="butt">
      <path fill="none" d="M83.6482 47.7633 L101.6522 36.5108 L110.8153 32.502 L119.9783 29.6385 L129.1414 27.9205 L138.3044 27.3478 L147.4675 27.9205 L156.6306 29.6385 L165.7936 32.502 L174.9567 36.5108 L189.0997 45.3502 L189.1749 45.4161" clip-path="url(#clipPath2)"/>
    </g>
    <g text-rendering="geometricPrecision" stroke-miterlimit="1.45" shape-rendering="geometricPrecision" transform="matrix(1,0,0,1,-20,-9)" stroke-linecap="butt">
      <path d="M195.6904 50.0581 L188.8185 39.0229 L188.3605 44.8358 L183.0159 47.1672 Z" stroke="none" clip-path="url(#clipPath2)"/>
      <path fill="none" d="M195.6093 77.9996 L193.2828 80.0353 L174.9567 91.4892 L165.7936 95.498 L156.6306 98.3615 L147.4675 100.0795 L138.3044 100.6522 L129.1414 100.0795 L119.9783 98.3615 L110.8153 95.498 L101.6522 91.4892 L90.4322 84.4767" clip-path="url(#clipPath2)"/>
      <path d="M83.6482 80.2367 L91.1742 90.8367 L91.2802 85.0067 L96.4742 82.3567 Z" clip-path="url(#clipPath2)" stroke="none"/>
      <path fill="none" d="M227.6219 49.9886 L231.5328 46.5666 L241.4947 39.7178 L251.4567 34.1142 L261.4186 29.7558 L271.3806 26.6427 L281.3425 24.7748 L291.3044 24.1522 L301.2664 24.7748 L311.2283 26.6427 L321.1903 29.7558 L331.1522 34.1142 L340.7668 39.5223 L340.8492 39.579" clip-path="url(#clipPath2)"/>
      <path d="M347.4619 44.0813 L340.3567 33.1948 L340.0226 39.0162 L334.7288 41.4608 Z" clip-path="url(#clipPath2)" stroke="none"/>
      <path fill="none" d="M347.3793 83.975 L341.1142 88.2822 L331.1522 93.8858 L321.1903 98.2442 L311.2283 101.3573 L301.2664 103.2252 L291.3044 103.8478 L281.3425 103.2252 L271.3806 101.3573 L261.4186 98.2442 L251.4567 93.8858 L241.4947 88.2822 L233.8531 83.0286 L233.7779 82.9628" clip-path="url(#clipPath2)"/>
      <path d="M227.5441 77.9488 L233.761 89.3659 L234.5571 83.5895 L240.0285 81.5737 Z" clip-path="url(#clipPath2)" stroke="none"/>
    </g>
  </g>
</svg>
