<?xml version="1.0" encoding="UTF-8"?><svg xmlns="http://www.w3.org/2000/svg" xmlns:xlink="http://www.w3.org/1999/xlink" fill-opacity="1" color-rendering="auto" color-interpolation="auto" text-rendering="auto" stroke="black" stroke-linecap="square" width="446" stroke-miterlimit="10" shape-rendering="auto" stroke-opacity="1" fill="black" stroke-dasharray="none" font-weight="normal" stroke-width="1" height="418" font-family="'Dialog'" font-style="normal" stroke-linejoin="miter" font-size="12px" stroke-dashoffset="0" image-rendering="auto">
  <!--Generated by ySVG 2.5-->
  <defs id="genericDefs"/>
  <g>
    <g fill="white" text-rendering="geometricPrecision" shape-rendering="geometricPrecision" transform="translate(-261,-170)" stroke="white">
      <rect x="261" width="446" height="418" y="170" clip-path="url(#clipPath2)" stroke="none"/>
    </g>
    <g text-rendering="geometricPrecision" shape-rendering="geometricPrecision" transform="matrix(1.3913,0,0,1.3684,311,328)">
      <g clip-path="url(#clipPath3)">
        <svg xml:space="preserve" opacity="1" writing-mode="lr-tb" stop-color="rgb(0, 0, 0)" shape-rendering="auto" glyph-orientation-horizontal="0deg" color-profile="auto" lighting-color="rgb(255, 255, 255)" color="rgb(0, 0, 0)" font-weight="400" alignment-baseline="auto" font-style="normal" version="1.1" color-interpolation-filters="linearrgb" text-anchor="start" stroke-linecap="butt" color-interpolation="srgb" font-variant="normal" word-spacing="normal" fill-opacity="1" text-rendering="auto" clip-path="none" text-decoration="none" letter-spacing="normal" viewBox="0 0 23 38" glyph-orientation-vertical="auto" display="inline" font-size-adjust="none" overflow="visible" fill="rgb(0, 0, 0)" font-stretch="normal" stroke-dasharray="none" stroke-miterlimit="4" stop-opacity="1" color-rendering="auto" font-size="12" pointer-events="visiblepainted" mask="none" direction="ltr" baseline-shift="baseline" enable-background="new 0 0 23 38" fill-rule="nonzero" image-rendering="auto" stroke-dashoffset="0" width="23px" marker-end="none" clip="auto" cursor="auto" stroke="none" filter="none" visibility="visible" kerning="auto" stroke-width="1" font-family="&quot;Arial&quot;,&quot;Helvetica&quot;,sans-serif" flood-opacity="1" clip-rule="nonzero" src="none" height="38px" unicode-bidi="normal" stroke-linejoin="miter" stroke-opacity="1" flood-color="rgb(0, 0, 0)" dominant-baseline="auto" marker-start="none" x="0px" marker-mid="none" y="0px">
<defs>
<linearGradient x1="548" gradientUnits="userSpaceOnUse" x2="628" y1="381" y2="421" id="linearGradient1" spreadMethod="reflect">
              <stop stop-opacity="1" stop-color="rgb(232,238,247)" offset="0%"/>
              <stop stop-opacity="1" stop-color="rgb(183,201,227)" offset="100%"/>
            </linearGradient>
            <clipPath clipPathUnits="userSpaceOnUse" id="clipPath1">
              <path d="M0 0 L446 0 L446 418 L0 418 L0 0 Z"/>
            </clipPath>
            <clipPath clipPathUnits="userSpaceOnUse" id="clipPath2">
              <path d="M261 170 L707 170 L707 588 L261 588 L261 170 Z"/>
            </clipPath>
            <clipPath clipPathUnits="userSpaceOnUse" id="clipPath3">
              <path d="M-223.5312 -239.6923 L97.0312 -239.6923 L97.0312 65.7692 L-223.5312 65.7692 L-223.5312 -239.6923 Z"/>
            </clipPath>
          </defs>
<g>
	<path fill="#C5C5C5" d="M23,35.916C23,37.063,22.063,38,20.916,38H2.084C0.938,38,0,37.063,0,35.916V2.084C0,0.938,0.938,0,2.084,0   h18.832C22.063,0,23,0.938,23,2.084V35.916z"/>
</g>
<g>
	<linearGradient y2="2.0005" id="svg1.SVGID_1_" x1="11.5005" gradientUnits="userSpaceOnUse" x2="11.5005" y1="34">
		<stop offset="0" style="stop-color:#515151"/>
		<stop offset="1" style="stop-color:#848484"/>
	</linearGradient>
	<path fill="url(#svg1.SVGID_1_)" d="M22,32.184C22,33.187,21.187,34,20.184,34H2.816C1.813,34,1,33.187,1,32.184V3.816   C1,2.813,1.813,2,2.816,2h17.367C21.187,2,22,2.813,22,3.816V32.184z"/>
</g>
<radialGradient gradientTransform="matrix(1 0 0 0.9565 0 1.1737)" id="svg1.SVGID_2_" r="23.5037" cx="11.5" gradientUnits="userSpaceOnUse" cy="4.1665">
	<stop offset="0" style="stop-color:#9CD7FF"/>
	<stop offset="1" style="stop-color:#3C89C9"/>
</radialGradient>
<rect x="2" fill="url(#svg1.SVGID_2_)" width="19" y="5" height="22"/>
<linearGradient y2="29.334" id="svg1.SVGID_3_" x1="11.5835" gradientUnits="userSpaceOnUse" x2="11.5835" y1="31.5">
	<stop offset="0" style="stop-color:#B8B8B8"/>
	<stop offset="1" style="stop-color:#F2F2F2"/>
</linearGradient>
<ellipse rx="1.5" fill="url(#svg1.SVGID_3_)" ry="1.083" cx="11.583" cy="30.417"/>
<linearGradient y2="29.6631" id="svg1.SVGID_4_" x1="15.334" gradientUnits="userSpaceOnUse" x2="15.334" y1="31.1709">
	<stop offset="0" style="stop-color:#B8B8B8"/>
	<stop offset="1" style="stop-color:#F2F2F2"/>
</linearGradient>
<ellipse rx="1.043" fill="url(#svg1.SVGID_4_)" ry="0.754" cx="15.333" cy="30.417"/>
<linearGradient y2="29.6631" id="svg1.SVGID_5_" x1="19.084" gradientUnits="userSpaceOnUse" x2="19.084" y1="31.1709">
	<stop offset="0" style="stop-color:#B8B8B8"/>
	<stop offset="1" style="stop-color:#F2F2F2"/>
</linearGradient>
<ellipse rx="1.043" fill="url(#svg1.SVGID_5_)" ry="0.754" cx="19.083" cy="30.417"/>
<linearGradient y2="29.6631" id="svg1.SVGID_6_" x1="4.0835" gradientUnits="userSpaceOnUse" x2="4.0835" y1="31.1709">
	<stop offset="0" style="stop-color:#B8B8B8"/>
	<stop offset="1" style="stop-color:#F2F2F2"/>
</linearGradient>
<ellipse rx="1.043" fill="url(#svg1.SVGID_6_)" ry="0.754" cx="4.083" cy="30.417"/>
<linearGradient y2="29.6631" id="svg1.SVGID_7_" x1="7.8335" gradientUnits="userSpaceOnUse" x2="7.8335" y1="31.1709">
	<stop offset="0" style="stop-color:#B8B8B8"/>
	<stop offset="1" style="stop-color:#F2F2F2"/>
</linearGradient>
<ellipse rx="1.043" fill="url(#svg1.SVGID_7_)" ry="0.754" cx="7.833" cy="30.417"/>
<linearGradient y2="2.4658" id="svg1.SVGID_8_" x1="11.0835" gradientUnits="userSpaceOnUse" x2="11.0835" y1="4.3682">
	<stop offset="0" style="stop-color:#B8B8B8"/>
	<stop offset="1" style="stop-color:#A2A2A2"/>
</linearGradient>
<ellipse rx="1.063" fill="url(#svg1.SVGID_8_)" ry="0.951" cx="11.083" cy="3.417"/>
<linearGradient y2="2.918" id="svg1.SVGID_9_" x1="11.0835" gradientUnits="userSpaceOnUse" x2="11.0835" y1="3.916">
	<stop offset="0" style="stop-color:#9CD7FF"/>
	<stop offset="1" style="stop-color:#F2F2F2"/>
</linearGradient>
<ellipse rx="0.558" fill="url(#svg1.SVGID_9_)" ry="0.499" cx="11.083" cy="3.417"/>
<path fill="#F2F2F2" opacity="0.24" d="M20.938,15.065c0,0-6.654,2.879-10.771,4.019C6.05,20.223,2,21.125,2,21.125V5h19  L20.938,15.065z"/>
</svg>
      </g>
    </g>
    <g text-rendering="geometricPrecision" stroke-miterlimit="1.45" shape-rendering="geometricPrecision" font-family="sans-serif" transform="matrix(1,0,0,1,-261,-170)" stroke-linecap="butt">
      <text x="561.9902" xml:space="preserve" y="567.6016" clip-path="url(#clipPath2)" stroke="none">Emulator</text>
    </g>
    <g fill="url(#linearGradient1)" text-rendering="geometricPrecision" shape-rendering="geometricPrecision" transform="matrix(1,0,0,1,-261,-170)" stroke="url(#linearGradient1)">
      <path d="M548 381 L628 381 L628 421 L548 421 Z" stroke="none" clip-path="url(#clipPath2)"/>
    </g>
    <g text-rendering="geometricPrecision" stroke-miterlimit="1.45" shape-rendering="geometricPrecision" transform="matrix(1,0,0,1,-261,-170)" stroke-linecap="butt">
      <path fill="none" d="M548 381 L628 381 L628 421 L548 421 Z" clip-path="url(#clipPath2)"/>
      <text x="576.627" xml:space="preserve" y="405.5352" clip-path="url(#clipPath2)" font-family="sans-serif" stroke="none">APK</text>
    </g>
    <g fill="white" text-rendering="geometricPrecision" shape-rendering="geometricPrecision" transform="matrix(1,0,0,1,-261,-170)" stroke="white">
      <path d="M402 280 L445.0088 280 L445.0088 295 L460.0088 295 L460.0088 350 L402 350 Z" stroke="none" clip-path="url(#clipPath2)"/>
    </g>
    <g fill="white" text-rendering="geometricPrecision" shape-rendering="geometricPrecision" transform="matrix(1,0,0,1,-261,-170)" stroke="white">
      <path d="M445.0088 280 L445.0088 295 L460.0088 295 Z" fill-rule="evenodd" clip-path="url(#clipPath2)" stroke="none"/>
    </g>
    <g text-rendering="geometricPrecision" stroke-miterlimit="1.45" shape-rendering="geometricPrecision" transform="matrix(1,0,0,1,-261,-170)" stroke-linecap="butt">
      <path fill="none" d="M402 280 L445.0088 280 L445.0088 295 L460.0088 295 L460.0088 350 L402 350 Z" clip-path="url(#clipPath2)"/>
      <path fill="none" d="M445.0088 280 L445.0088 295 L460.0088 295 Z" clip-path="url(#clipPath2)" fill-rule="evenodd"/>
      <text x="407.0005" font-size="10px" y="306.333" clip-path="url(#clipPath2)" font-family="'Courier New'" stroke="none" xml:space="preserve">01010101</text>
      <text x="407.0005" font-size="10px" y="317.6611" clip-path="url(#clipPath2)" font-family="'Courier New'" stroke="none" xml:space="preserve">10110010</text>
      <text x="407.0005" font-size="10px" y="328.9893" clip-path="url(#clipPath2)" font-family="'Courier New'" stroke="none" xml:space="preserve">01011010</text>
    </g>
    <g fill="white" text-rendering="geometricPrecision" shape-rendering="geometricPrecision" transform="matrix(1,0,0,1,-261,-170)" stroke="white">
      <path d="M276 280 L341 280 L341 295 L356 295 L356 350 L276 350 Z" stroke="none" clip-path="url(#clipPath2)"/>
      <path d="M341 280 L341 295 L356 295 Z" clip-path="url(#clipPath2)" fill-rule="evenodd" stroke="none"/>
    </g>
    <g text-rendering="geometricPrecision" stroke-miterlimit="1.45" shape-rendering="geometricPrecision" transform="matrix(1,0,0,1,-261,-170)" stroke-linecap="butt">
      <path fill="none" d="M276 280 L341 280 L341 295 L356 295 L356 350 L276 350 Z" clip-path="url(#clipPath2)"/>
      <path fill="none" d="M341 280 L341 295 L356 295 Z" clip-path="url(#clipPath2)" fill-rule="evenodd"/>
      <text x="282.9946" font-size="10px" y="306.333" clip-path="url(#clipPath2)" font-family="'Courier New'" stroke="none" xml:space="preserve">class Foo {</text>
      <text x="282.9946" font-size="10px" y="317.6611" clip-path="url(#clipPath2)" font-family="'Courier New'" stroke="none" xml:space="preserve">	...</text>
      <text x="282.9946" font-size="10px" y="328.9893" clip-path="url(#clipPath2)" font-family="'Courier New'" stroke="none" xml:space="preserve">}</text>
    </g>
    <g fill="white" text-rendering="geometricPrecision" shape-rendering="geometricPrecision" transform="matrix(1,0,0,1,-261,-170)" stroke="white">
      <path d="M515.9912 185 L559 185 L559 200 L574 200 L574 255 L515.9912 255 Z" stroke="none" clip-path="url(#clipPath2)"/>
      <path d="M559 185 L559 200 L574 200 Z" clip-path="url(#clipPath2)" fill-rule="evenodd" stroke="none"/>
    </g>
    <g text-rendering="geometricPrecision" stroke-miterlimit="1.45" shape-rendering="geometricPrecision" transform="matrix(1,0,0,1,-261,-170)" stroke-linecap="butt">
      <path fill="none" d="M515.9912 185 L559 185 L559 200 L574 200 L574 255 L515.9912 255 Z" clip-path="url(#clipPath2)"/>
      <path fill="none" d="M559 185 L559 200 L574 200 Z" clip-path="url(#clipPath2)" fill-rule="evenodd"/>
    </g>
    <g fill="white" text-rendering="geometricPrecision" shape-rendering="geometricPrecision" transform="matrix(1,0,0,1,-261,-170)" stroke="white">
      <path d="M523.9912 194 L567 194 L567 209 L582 209 L582 264 L523.9912 264 Z" stroke="none" clip-path="url(#clipPath2)"/>
      <path d="M567 194 L567 209 L582 209 Z" clip-path="url(#clipPath2)" fill-rule="evenodd" stroke="none"/>
    </g>
    <g text-rendering="geometricPrecision" stroke-miterlimit="1.45" shape-rendering="geometricPrecision" transform="matrix(1,0,0,1,-261,-170)" stroke-linecap="butt">
      <path fill="none" d="M523.9912 194 L567 194 L567 209 L582 209 L582 264 L523.9912 264 Z" clip-path="url(#clipPath2)"/>
      <path fill="none" d="M567 194 L567 209 L582 209 Z" clip-path="url(#clipPath2)" fill-rule="evenodd"/>
      <text x="522.9907" font-size="10px" y="286.75" clip-path="url(#clipPath2)" font-family="'Monaco'" stroke="none" xml:space="preserve">Librairies</text>
    </g>
    <g fill="white" text-rendering="geometricPrecision" shape-rendering="geometricPrecision" transform="matrix(1,0,0,1,-261,-170)" stroke="white">
      <path d="M625 185 L668.0088 185 L668.0088 200 L683.0088 200 L683.0088 255 L625 255 Z" stroke="none" clip-path="url(#clipPath2)"/>
      <path d="M668.0088 185 L668.0088 200 L683.0088 200 Z" clip-path="url(#clipPath2)" fill-rule="evenodd" stroke="none"/>
    </g>
    <g text-rendering="geometricPrecision" stroke-miterlimit="1.45" shape-rendering="geometricPrecision" transform="matrix(1,0,0,1,-261,-170)" stroke-linecap="butt">
      <path fill="none" d="M625 185 L668.0088 185 L668.0088 200 L683.0088 200 L683.0088 255 L625 255 Z" clip-path="url(#clipPath2)"/>
      <path fill="none" d="M668.0088 185 L668.0088 200 L683.0088 200 Z" clip-path="url(#clipPath2)" fill-rule="evenodd"/>
    </g>
    <g fill="white" text-rendering="geometricPrecision" shape-rendering="geometricPrecision" transform="matrix(1,0,0,1,-261,-170)" stroke="white">
      <path d="M633 194 L676.0088 194 L676.0088 209 L691.0088 209 L691.0088 264 L633 264 Z" stroke="none" clip-path="url(#clipPath2)"/>
      <path d="M676.0088 194 L676.0088 209 L691.0088 209 Z" clip-path="url(#clipPath2)" fill-rule="evenodd" stroke="none"/>
    </g>
    <g text-rendering="geometricPrecision" stroke-miterlimit="1.45" shape-rendering="geometricPrecision" transform="matrix(1,0,0,1,-261,-170)" stroke-linecap="butt">
      <path fill="none" d="M633 194 L676.0088 194 L676.0088 209 L691.0088 209 L691.0088 264 L633 264 Z" clip-path="url(#clipPath2)"/>
      <path fill="none" d="M676.0088 194 L676.0088 209 L691.0088 209 Z" clip-path="url(#clipPath2)" fill-rule="evenodd"/>
      <text x="635" font-size="10px" y="286.75" clip-path="url(#clipPath2)" font-family="'Monaco'" stroke="none" xml:space="preserve">Resources</text>
      <text x="283.5947" xml:space="preserve" y="269.5" clip-path="url(#clipPath2)" font-family="'Monaco'" stroke="none">Java file</text>
      <text x="402.1997" xml:space="preserve" y="269.5" clip-path="url(#clipPath2)" font-family="'Monaco'" stroke="none">Bytecode</text>
      <path fill="none" d="M588 421.0295 L588 489.9809" clip-path="url(#clipPath2)"/>
      <path d="M588 497.9809 L593 485.9809 L588 488.9809 L583 485.9809 Z" clip-path="url(#clipPath2)" stroke="none"/>
      <path fill="none" d="M460.0074 308.5837 L460.0351 308.5786 L473.5426 307.2077 L486.3783 307.0633 L498.5421 308.1455 L510.034 310.4542 L520.854 313.9893 L531.0022 318.7511 L540.4785 324.7393 L549.2829 331.9542 L557.4154 340.3955 L564.8761 350.0633 L571.6649 360.9577 L577.7818 373.0786 L577.9824 373.5702" clip-path="url(#clipPath2)"/>
      <path d="M581.0042 380.9776 L581.1011 367.9779 L577.6046 372.6443 L571.8419 371.7552 Z" clip-path="url(#clipPath2)" stroke="none"/>
      <path fill="none" d="M356.0101 315 L393.9661 315" clip-path="url(#clipPath2)"/>
      <path d="M401.9661 315 L389.9661 310 L392.9661 315 L389.9661 320 Z" clip-path="url(#clipPath2)" stroke="none"/>
      <path fill="none" d="M321.2208 350.0243 L325.9583 372.4138 L333.5133 397.7683 L342.7856 420.8879 L353.7751 441.7726 L366.482 460.4224 L380.9061 476.8372 L397.0475 491.0172 L414.9061 502.9622 L434.482 512.6724 L455.7751 520.1476 L478.7856 525.3879 L503.5133 528.3933 L529.9583 529.1638 L558.1205 527.6993 L564.0412 526.9663" clip-path="url(#clipPath2)"/>
      <path d="M571.9806 525.9833 L559.4572 522.4957 L563.0488 527.0892 L560.6859 532.4199 Z" clip-path="url(#clipPath2)" stroke="none"/>
      <text x="351.8882" xml:space="preserve" y="508.0997" clip-path="url(#clipPath2)" font-family="sans-serif" stroke="none">&gt; Run</text>
      <path fill="none" d="M582.0018 252.2876 L585.7621 255.9173 L593.9967 265.4367 L600.8876 275.2295 L606.4348 285.2958 L610.6382 295.6357 L613.4978 306.2489 L615.0137 317.1357 L615.1859 328.2958 L614.0143 339.7295 L611.4989 351.4367 L607.6398 363.4173 L603.2241 373.8175 L603.1777 373.9062" clip-path="url(#clipPath2)"/>
      <path d="M599.6179 381.0705 L609.4354 372.5489 L603.6227 373.0106 L600.48 368.0991 Z" clip-path="url(#clipPath2)" stroke="none"/>
      <path fill="none" d="M672.6412 264.0084 L674.3317 272.5241 L675.7533 285.8758 L675.8312 298.6494 L674.5652 310.8448 L671.9556 322.462 L668.0022 333.5011 L662.7051 343.962 L656.0641 353.8448 L648.0795 363.1494 L638.7511 371.8758 L632.965 376.2936 L632.8804 376.3469" clip-path="url(#clipPath2)"/>
      <path d="M626.4261 381.0737 L639.0617 378.0174 L633.6871 375.756 L633.1533 369.9496 Z" clip-path="url(#clipPath2)" stroke="none"/>
    </g>
  </g>
</svg>
